{"glyphs":{"0":{"ha":478,"x_min":0,"x_max":0,"o":"m 56 -6 b 7 75 19 17 7 44 b 79 260 7 135 60 204 l 88 292 b 100 358 92 314 97 336 b 143 457 108 396 122 428 b 156 489 149 467 151 478 b 161 504 157 494 160 499 l 181 556 b 194 594 185 568 189 582 b 221 642 201 613 211 628 b 244 683 229 657 239 669 b 294 781 257 718 276 750 l 303 793 b 332 831 313 808 322 821 b 347 849 339 836 344 842 b 353 867 350 853 351 860 b 371 901 356 878 360 892 b 400 914 379 910 389 914 b 454 874 428 914 447 896 b 457 850 456 867 457 858 b 458 839 457 846 457 843 b 464 814 458 831 461 822 b 471 776 467 801 471 789 b 468 746 471 765 469 756 l 465 729 b 464 715 465 725 465 719 l 457 651 l 456 651 b 428 556 449 621 439 588 l 422 540 b 376 429 408 504 394 465 l 374 422 b 346 360 367 401 358 381 b 325 318 338 347 331 333 l 310 285 b 285 242 301 269 293 254 b 265 214 279 232 272 222 b 243 181 257 203 249 192 b 107 -22 217 108 183 -22 b 56 -6 92 -22 75 -18 m 143 183 b 194 249 164 204 175 229 l 207 269 l 219 289 b 253 350 233 308 243 328 b 263 369 256 357 258 363 l 275 394 b 286 415 279 401 283 408 b 304 460 294 429 299 444 l 317 492 b 336 532 322 506 329 519 b 368 613 349 558 361 585 b 381 713 378 647 379 682 l 381 731 b 375 763 381 757 378 763 b 367 760 375 763 372 764 b 351 742 361 754 357 749 b 340 726 349 736 344 731 b 307 682 328 713 317 697 l 294 665 b 244 532 268 625 256 578 l 233 493 b 213 449 229 478 221 463 l 203 432 b 193 408 200 424 197 417 b 157 282 178 367 161 325 b 154 256 157 274 156 265 b 143 183 149 229 139 208 "},"1":{"ha":607,"x_min":0,"x_max":0,"o":"m 107 0 b 76 1 97 1 86 1 b 46 6 65 1 56 1 b 7 43 25 11 10 26 l 7 47 b 26 79 7 57 10 69 b 68 92 39 88 54 89 b 94 96 78 92 86 93 b 121 107 104 99 113 101 l 157 124 b 261 192 196 142 233 158 b 272 214 267 199 269 204 b 285 240 275 222 281 232 b 296 268 289 250 293 258 b 344 401 311 311 326 357 l 372 465 b 429 622 393 517 411 571 l 431 626 b 440 649 433 635 438 642 b 447 663 443 653 446 658 b 457 692 451 672 454 682 l 468 721 l 472 729 b 476 742 474 733 476 738 b 464 729 472 739 469 735 l 463 728 b 428 689 451 714 439 701 b 393 651 417 678 404 665 b 375 631 386 644 382 638 b 364 615 372 625 368 619 l 356 604 b 335 576 347 596 340 588 b 325 547 331 568 328 557 b 300 494 321 528 317 508 b 272 485 293 489 282 485 b 247 492 264 485 254 488 b 232 518 238 497 232 507 b 254 554 232 538 244 546 b 267 564 258 557 263 560 b 307 624 281 582 294 603 l 340 674 b 369 707 350 686 360 697 b 393 733 378 715 386 724 l 419 768 l 439 794 b 453 814 443 801 449 807 l 499 871 b 508 886 501 875 506 881 b 544 918 518 899 528 914 b 561 921 550 919 556 921 b 588 910 571 921 581 917 b 600 875 596 901 600 889 b 597 856 600 869 599 863 b 578 818 593 842 585 831 b 563 790 572 810 567 800 b 542 736 554 772 549 754 l 521 678 b 501 629 514 661 507 646 l 474 565 b 451 501 465 543 457 522 b 407 379 439 464 425 421 l 386 321 l 386 319 l 358 224 l 354 215 b 347 183 350 204 347 193 b 374 168 347 171 350 167 l 379 168 l 406 169 b 447 172 419 171 433 172 b 474 171 456 172 465 172 b 476 169 475 171 475 169 b 524 114 506 156 524 135 b 469 68 524 92 503 74 b 467 67 468 67 468 67 l 432 75 b 382 83 414 79 397 83 b 365 82 376 83 371 83 l 318 74 l 311 72 b 288 57 303 69 294 64 b 272 46 282 53 278 49 b 261 38 268 43 264 40 b 233 21 253 32 244 25 b 147 1 206 10 176 6 l 138 0 l 107 0 "},"2":{"ha":510,"x_min":0,"x_max":0,"o":"m 65 0 b 25 17 46 0 33 8 b 7 65 14 28 7 46 b 26 146 7 101 15 122 b 61 222 38 175 47 199 b 129 346 85 268 107 310 b 147 383 136 357 142 371 l 157 406 b 185 457 165 424 175 440 b 204 492 192 468 199 479 b 276 601 225 531 250 567 l 293 626 b 303 642 296 631 299 636 b 308 653 304 646 306 649 l 319 669 l 342 704 b 343 706 342 706 343 706 b 397 786 360 729 381 756 l 397 788 b 401 799 400 793 401 797 l 396 799 b 276 758 360 793 322 781 b 213 703 251 744 232 724 b 172 663 200 689 186 675 l 143 640 l 106 610 l 101 606 b 129 571 119 603 129 588 b 96 519 129 551 115 531 b 69 513 86 515 78 513 b 42 521 60 513 50 515 b 15 571 25 532 15 550 b 33 626 15 589 21 610 b 57 650 40 636 49 643 b 72 667 63 656 68 661 b 131 726 89 688 108 708 l 146 739 b 167 756 153 744 161 750 l 167 757 b 236 822 190 785 214 807 b 307 856 257 835 281 846 l 381 883 l 400 890 l 401 890 b 408 893 403 892 406 892 b 450 901 421 897 436 901 b 489 882 465 901 479 897 b 490 881 490 882 490 881 b 501 839 499 868 501 854 b 483 783 501 818 494 799 l 482 783 l 469 768 l 440 729 b 386 649 421 704 403 676 l 357 604 b 256 451 322 557 286 506 b 236 418 249 440 242 429 b 186 324 224 388 199 357 l 174 300 l 174 299 b 117 176 150 261 133 219 l 106 150 l 101 138 l 96 124 b 136 147 110 129 122 138 l 171 168 l 201 183 b 432 339 290 211 340 339 b 475 331 446 339 460 336 b 503 282 496 324 503 304 b 485 211 503 258 496 232 b 293 115 443 143 360 138 b 256 99 282 110 271 104 b 238 89 250 96 243 93 l 206 74 b 190 68 201 72 196 69 b 133 39 171 60 150 50 b 115 25 126 35 121 31 b 75 1 104 15 92 4 l 74 1 b 65 0 71 0 68 0 "},"3":{"ha":515,"x_min":0,"x_max":0,"o":"m 128 -31 b 56 -61 110 -49 81 -61 b 8 -21 32 -61 11 -49 b 147 225 -3 85 97 142 b 161 246 153 232 157 239 l 174 268 b 256 410 199 315 226 364 b 356 551 283 460 321 507 l 394 603 l 401 615 b 419 646 406 621 417 638 b 393 635 411 643 401 639 l 371 625 b 286 568 339 613 314 590 b 239 532 271 556 256 543 b 200 519 228 524 214 519 b 171 526 189 519 179 522 b 143 579 153 538 142 556 l 143 581 b 163 638 147 601 156 619 l 171 656 l 171 657 b 194 707 181 672 188 689 b 200 718 196 711 197 715 b 211 739 201 724 206 731 b 224 760 214 743 221 753 l 218 756 l 217 754 b 172 706 196 736 182 721 b 161 682 168 699 164 690 b 147 656 157 674 153 664 b 142 647 146 653 144 650 b 129 622 138 639 132 631 b 126 610 128 619 128 614 b 118 585 125 601 124 593 b 96 571 113 576 104 571 b 60 601 79 571 63 583 b 57 617 58 607 57 611 b 64 647 57 628 61 638 b 67 654 65 650 65 653 l 71 669 b 82 703 74 681 75 692 b 115 743 92 718 104 731 b 132 761 121 749 128 756 l 160 789 b 188 817 169 797 178 807 b 206 844 194 825 200 833 b 229 878 213 856 221 867 b 274 899 242 892 258 899 b 297 893 282 899 290 897 b 328 825 319 879 328 851 b 325 800 328 817 326 808 l 325 799 b 289 742 317 778 303 760 b 261 700 278 728 268 715 b 253 675 257 693 256 685 l 249 658 b 246 650 249 657 247 653 b 242 626 243 642 242 633 b 249 631 243 628 246 629 b 344 690 276 651 308 674 l 382 711 l 399 721 b 449 736 414 732 432 736 b 490 722 464 736 479 732 b 508 681 503 711 508 697 b 500 644 508 669 506 657 l 500 643 b 463 592 489 625 475 608 b 432 551 451 578 440 565 b 411 524 426 542 418 532 b 392 497 404 515 397 507 l 375 474 b 318 386 353 447 335 418 b 279 308 301 363 290 335 l 269 283 b 258 264 265 276 263 269 b 246 239 253 256 249 247 b 236 222 243 232 240 228 l 228 206 b 213 171 224 192 218 181 b 128 -31 181 106 186 26 "},"4":{"ha":481,"x_min":0,"x_max":0,"o":"m 144 -6 b 110 -24 133 -18 122 -24 b 51 15 88 -24 65 -4 b 40 67 43 33 40 50 b 104 236 40 126 82 182 l 115 265 b 136 317 124 283 131 301 l 151 360 b 174 419 158 381 165 400 b 188 457 178 432 182 444 l 203 494 b 204 499 203 496 203 497 b 208 518 206 503 208 514 l 206 518 b 94 493 176 510 136 499 b 79 492 89 492 83 492 b 56 494 71 492 63 493 b 11 528 36 497 19 510 b 7 549 8 535 7 542 b 17 582 7 560 11 572 b 119 690 46 624 83 658 l 133 703 l 157 725 b 197 763 169 738 183 751 b 232 788 207 771 218 779 b 311 863 258 804 285 829 b 343 881 321 875 332 881 b 357 876 349 881 353 879 b 369 863 363 874 367 869 b 383 888 375 869 379 878 b 393 915 388 896 390 906 b 413 960 397 931 400 946 b 440 972 419 968 431 972 b 465 963 449 972 458 969 b 488 919 479 951 488 936 b 465 858 488 897 479 875 l 461 854 b 407 775 440 828 421 804 l 399 751 b 382 714 394 739 389 726 b 367 686 378 704 372 694 l 358 674 l 344 646 b 318 593 335 628 325 611 b 315 575 317 586 315 579 b 324 553 315 567 318 560 b 338 528 329 546 335 538 b 339 519 339 525 339 522 b 332 496 339 511 336 503 b 294 471 325 485 311 475 l 290 471 l 279 467 b 264 443 272 463 268 453 b 261 439 263 442 263 440 l 238 376 b 213 310 229 354 219 332 b 185 249 204 289 194 268 b 174 225 181 240 178 232 b 163 197 171 215 167 206 b 156 178 157 188 157 183 b 167 67 156 140 167 103 b 144 -6 167 43 161 18 m 143 583 b 185 593 157 585 171 589 l 190 596 b 249 633 214 604 238 613 l 274 692 l 282 713 l 282 714 b 311 768 290 732 301 750 l 326 794 b 303 767 318 786 311 776 b 281 742 296 758 289 750 b 214 678 261 718 238 697 b 135 599 186 654 157 628 b 131 588 131 593 129 589 b 143 583 132 586 136 583 "},"5":{"ha":571,"x_min":0,"x_max":0,"o":"m 113 -22 b 29 14 81 -22 50 -12 b 7 81 15 35 7 58 b 50 156 7 110 21 138 b 76 156 54 156 71 160 b 118 108 92 139 101 114 b 136 107 124 107 131 107 b 250 242 201 107 229 185 l 264 267 l 293 318 l 313 354 l 349 418 l 383 481 b 442 621 408 524 432 571 b 446 651 444 632 446 643 b 429 685 446 668 440 679 b 393 693 418 690 406 693 b 288 650 356 693 317 671 b 221 542 257 621 238 581 l 218 536 b 174 500 207 513 192 500 b 136 519 161 500 144 507 b 129 554 129 531 126 543 b 163 600 136 574 150 586 b 179 615 168 604 174 610 l 179 617 b 213 685 197 633 208 657 b 215 708 214 693 215 701 b 240 789 218 736 221 765 b 371 883 275 833 326 861 b 429 904 390 892 411 899 b 458 914 439 908 449 911 b 475 921 464 915 469 918 b 522 935 489 926 507 935 b 558 914 536 935 549 929 b 564 894 563 907 564 901 b 543 857 564 879 556 865 b 507 843 532 850 519 847 b 489 838 501 842 494 840 b 465 828 481 835 474 832 b 440 815 458 824 450 818 b 411 808 432 813 421 810 b 406 807 410 808 407 807 b 343 783 383 803 363 794 b 288 731 319 769 294 754 l 286 729 b 282 708 283 718 282 713 l 292 714 b 303 719 296 717 299 718 b 364 743 326 732 346 739 b 411 747 378 746 394 747 b 479 729 435 747 458 743 b 514 658 506 710 514 685 b 494 572 514 629 503 599 b 492 561 493 568 492 565 l 490 561 l 489 554 b 463 489 481 532 472 510 l 444 453 b 429 424 439 443 433 433 b 394 361 419 401 407 381 b 371 321 386 347 378 335 b 308 208 353 281 331 243 l 294 183 b 113 -22 258 93 222 -12 "},"6":{"ha":456,"x_min":0,"x_max":0,"o":"m 101 1 b 72 1 92 3 82 1 b 7 86 22 1 7 50 b 21 144 7 107 14 125 l 29 175 b 53 250 35 200 43 226 b 72 310 60 271 64 290 b 122 411 88 344 110 375 b 139 463 128 428 132 446 b 161 521 150 481 154 501 b 189 585 169 542 183 563 b 240 668 194 619 222 640 b 260 700 247 679 257 690 b 253 806 258 733 253 769 b 329 931 253 858 267 908 b 344 932 335 932 339 932 b 392 914 363 932 381 926 b 418 849 410 893 418 872 b 413 815 418 838 417 826 b 300 650 388 753 340 706 b 286 622 294 642 288 632 b 285 604 285 617 285 610 b 283 585 285 597 285 592 b 274 572 282 579 279 574 l 269 572 b 256 569 265 572 260 572 b 242 553 249 567 246 560 b 221 490 232 533 224 514 b 214 465 219 482 217 474 l 189 411 b 190 397 186 406 179 393 b 231 422 203 403 219 414 b 281 467 249 436 261 457 b 328 476 296 475 313 471 b 367 494 340 482 353 492 b 382 496 371 496 376 496 b 433 471 401 496 422 488 b 447 422 443 457 446 439 l 447 421 b 449 406 449 415 449 410 b 429 335 449 381 440 357 b 414 276 422 317 418 296 b 399 235 411 261 407 246 b 378 204 392 224 383 215 b 315 113 357 175 346 133 b 228 47 286 90 260 65 b 208 32 221 43 215 36 b 151 6 193 18 171 14 b 101 1 136 0 118 0 m 88 76 b 93 75 89 76 92 75 b 115 78 100 75 108 78 b 147 75 125 78 136 75 b 163 78 153 75 157 76 b 204 96 176 83 192 89 b 246 121 218 104 231 114 b 307 189 282 135 290 156 b 368 307 328 229 360 263 l 368 308 b 383 383 369 324 383 360 b 374 407 383 394 381 403 b 357 411 368 410 363 411 b 310 394 342 411 324 401 b 254 371 290 388 269 385 b 192 301 229 351 210 326 b 156 247 176 286 167 267 b 115 207 146 231 128 222 b 83 142 101 189 92 164 b 76 103 81 133 76 117 b 88 76 76 92 79 81 "},"7":{"ha":456,"x_min":0,"x_max":0,"o":"m 99 0 b 25 72 63 0 25 36 b 100 285 31 151 72 214 l 110 307 b 164 431 125 347 143 389 b 175 458 168 439 172 449 l 194 501 l 225 571 l 240 604 b 246 624 242 610 244 617 l 257 651 b 271 675 261 660 267 668 b 285 700 276 683 281 692 b 314 758 292 718 301 739 l 321 775 b 338 803 325 785 331 794 b 339 806 338 804 338 804 b 347 818 342 810 346 814 b 301 775 329 808 314 793 b 269 739 292 763 281 750 b 229 692 254 724 240 708 l 229 690 b 183 638 215 671 199 654 l 151 600 l 149 597 b 133 571 142 589 135 579 l 133 560 b 135 551 135 557 135 554 b 106 503 135 531 124 513 b 74 494 96 497 85 494 b 47 499 64 494 56 496 b 7 550 22 506 7 525 b 25 590 7 564 14 579 b 54 614 33 600 43 607 b 61 619 56 615 58 618 b 117 672 82 635 100 654 l 142 699 b 206 771 161 724 183 747 l 218 783 b 229 797 221 788 225 793 b 244 817 233 804 239 811 b 258 831 249 822 254 826 b 279 849 267 836 274 842 b 354 917 303 881 328 901 b 401 932 367 925 383 932 b 442 910 419 932 435 924 b 449 881 447 901 449 890 b 442 850 449 869 447 860 b 411 808 435 832 422 819 b 397 794 406 804 401 799 b 390 781 396 790 393 785 b 369 746 385 768 379 757 b 350 710 363 735 356 722 l 336 682 b 325 654 332 674 328 664 l 317 628 l 315 628 b 264 501 293 588 278 544 b 232 418 254 474 244 446 b 182 275 210 371 193 322 b 178 244 179 263 179 254 b 186 128 179 211 186 168 b 99 0 186 65 171 10 "},"8":{"ha":521,"x_min":0,"x_max":0,"o":"m 79 -22 b 7 69 36 -22 7 24 b 65 254 7 135 57 188 l 74 279 b 107 350 82 304 93 328 b 176 478 126 394 154 435 b 215 554 190 503 204 528 b 229 590 224 569 229 581 b 213 622 229 600 225 610 b 169 665 200 639 183 650 b 150 742 153 686 147 715 b 221 814 156 779 197 792 b 324 883 250 846 282 874 b 354 892 333 888 343 892 l 358 892 b 382 888 365 892 374 889 l 386 888 b 414 903 397 888 408 893 b 460 932 421 921 442 932 b 492 915 472 932 485 926 b 514 847 503 896 514 871 b 488 793 514 828 503 806 b 429 768 469 783 447 778 b 411 750 421 764 415 757 l 368 686 b 338 622 357 665 349 643 b 332 600 335 615 332 608 b 351 549 332 582 344 565 b 375 446 364 515 375 482 b 325 288 375 388 349 338 l 290 206 l 272 163 b 79 -22 231 82 185 -22 m 118 125 b 218 188 154 114 181 172 l 238 218 l 256 253 b 275 310 263 272 265 292 l 294 356 b 308 394 301 368 304 382 b 319 451 315 413 319 432 b 317 476 319 460 319 468 b 299 536 313 497 306 517 b 290 544 296 540 294 543 l 288 544 b 268 533 281 544 274 539 b 249 494 258 522 256 507 b 192 378 226 457 206 418 b 146 281 178 344 154 317 b 128 240 142 267 132 254 b 121 217 125 231 124 224 b 104 149 119 197 104 169 b 118 125 104 139 107 131 m 254 663 b 272 675 261 663 268 669 b 294 714 281 688 289 700 b 325 765 303 732 314 750 b 335 794 329 774 338 786 b 321 803 332 800 326 803 b 297 794 313 803 304 799 b 236 738 272 782 256 757 b 210 706 225 728 210 721 b 254 663 210 683 233 663 "},"9":{"ha":501,"x_min":0,"x_max":0,"o":"m 57 0 b 25 67 35 22 25 44 b 156 281 25 140 128 208 b 172 322 160 294 165 310 b 183 350 176 332 183 339 l 185 350 b 224 425 196 376 210 401 b 253 479 233 443 244 460 b 297 563 268 514 281 540 b 308 586 301 569 306 578 b 335 642 315 603 324 622 b 354 668 340 651 347 660 b 368 688 358 675 364 681 b 374 703 371 692 372 697 l 378 711 b 392 735 381 719 386 728 b 403 753 396 740 400 746 b 414 799 410 769 414 786 b 407 825 414 810 411 818 b 364 842 399 836 383 842 b 274 829 333 842 304 838 l 257 825 l 240 822 b 215 810 232 818 224 815 l 196 801 b 182 794 190 799 186 796 b 156 775 171 789 161 783 b 150 767 153 772 151 769 b 135 746 146 760 140 751 b 99 694 121 732 108 714 b 86 650 90 678 86 661 b 90 635 86 643 88 638 b 100 632 92 632 96 632 b 125 638 106 632 114 633 b 136 642 128 638 132 639 b 201 678 161 651 185 660 l 219 697 b 246 726 226 708 235 718 b 311 763 263 739 285 763 b 324 764 315 764 319 764 b 346 758 332 764 339 763 b 364 732 356 751 361 742 b 343 679 365 714 360 696 l 332 667 b 306 639 325 657 317 647 b 283 625 299 633 290 629 b 268 615 278 622 272 618 b 251 603 263 611 257 608 b 217 582 242 596 231 586 b 199 576 210 579 204 578 b 192 575 196 575 194 575 b 174 568 185 572 179 571 b 149 561 165 565 157 563 b 89 556 129 556 108 556 l 82 556 b 18 583 56 554 32 564 b 7 618 11 594 7 606 b 14 646 7 628 10 636 l 42 697 b 64 740 49 711 57 725 l 65 742 b 72 751 67 744 69 749 l 93 785 b 115 807 97 794 107 801 b 124 813 118 808 121 810 b 131 819 125 815 128 818 b 163 847 139 831 149 840 l 171 851 b 215 874 183 861 197 869 b 247 885 228 876 238 881 b 365 918 276 900 319 918 b 389 917 372 918 381 918 b 494 786 463 899 497 854 l 494 785 b 494 785 494 785 493 783 b 469 700 492 754 481 726 b 450 669 464 690 458 679 b 435 657 446 664 440 660 b 421 642 428 651 422 647 b 388 563 413 615 388 594 b 371 542 382 554 376 547 b 357 525 365 536 360 531 b 331 467 346 503 338 483 l 318 439 l 306 414 b 292 385 301 403 296 393 l 279 360 b 269 339 276 351 272 346 b 249 288 263 322 254 304 l 249 285 b 235 258 243 276 239 267 b 188 21 197 183 236 93 b 110 -22 169 -6 139 -22 b 57 0 90 -22 72 -15 "}," ":{"ha":278,"x_min":0,"x_max":0,"o":""}," ":{"ha":278,"x_min":0,"x_max":0,"o":""},"A":{"ha":689,"x_min":0,"x_max":0,"o":"m 67 -94 b 7 -24 38 -94 7 -61 b 35 43 7 0 18 25 b 99 115 58 65 81 88 l 147 190 b 208 307 174 225 192 267 b 217 333 213 314 217 324 b 200 376 217 351 201 360 b 199 386 200 379 199 383 b 207 418 199 397 203 408 b 236 449 214 432 224 442 b 288 490 254 461 269 478 b 322 522 299 500 313 510 b 340 557 329 533 336 544 b 397 674 358 597 372 639 b 460 799 424 714 439 758 b 499 869 472 822 489 843 b 531 943 508 896 511 925 b 569 957 540 951 556 957 b 624 889 611 957 624 922 b 617 849 624 875 621 860 b 586 769 611 821 593 797 b 567 679 578 740 575 708 b 556 629 565 669 556 644 b 567 611 556 619 558 613 l 583 611 b 604 606 590 611 597 611 b 625 560 619 594 625 579 b 601 499 625 539 615 515 b 568 474 594 489 582 474 b 544 490 560 474 551 488 b 540 492 543 490 543 492 b 525 472 533 492 529 478 b 500 353 514 433 506 392 b 490 271 493 325 490 297 b 494 164 490 238 494 201 b 461 46 494 122 489 82 b 418 26 453 36 433 31 b 394 24 410 24 401 24 b 325 106 350 24 325 61 b 332 142 325 117 328 129 b 403 258 340 189 382 217 b 419 313 411 278 414 296 b 433 360 425 328 433 343 b 431 393 433 372 431 383 b 443 421 431 403 433 414 b 464 467 456 433 464 449 b 444 490 464 482 456 490 b 431 485 440 490 435 489 b 390 449 414 478 404 461 b 324 394 369 429 340 419 b 265 285 297 361 288 322 b 244 249 258 272 250 261 b 217 188 235 228 228 207 b 158 88 197 153 175 121 b 129 1 144 60 132 32 b 121 -53 125 -17 126 -37 b 67 -94 111 -75 89 -93 m 417 574 b 438 574 425 572 431 574 l 439 574 b 493 599 463 572 483 571 b 519 750 508 647 515 700 b 514 760 518 754 517 760 b 506 754 510 760 507 758 b 490 731 500 749 494 738 b 463 679 481 714 469 699 b 417 600 453 653 432 628 b 417 574 413 593 404 578 "},"B":{"ha":640,"x_min":0,"x_max":0,"o":"m 33 -22 b 22 -21 28 -24 26 -22 b 8 -7 15 -18 11 -14 b 7 4 7 -3 7 1 b 19 42 7 18 13 31 b 53 78 28 57 40 67 b 85 111 65 88 76 97 b 100 151 93 124 96 138 l 111 186 b 125 240 118 204 121 222 b 132 269 126 250 129 260 b 157 354 139 299 149 328 b 174 425 165 378 169 401 b 186 481 178 443 181 463 b 197 519 190 493 194 507 b 207 557 200 533 203 544 l 228 626 l 232 635 b 236 665 235 644 242 657 b 222 667 233 669 226 668 b 217 664 221 667 218 665 b 171 651 203 658 188 653 b 167 650 169 651 168 650 b 144 650 160 650 151 647 b 132 672 138 656 132 663 b 161 714 132 692 144 707 b 183 721 168 718 176 719 b 222 743 199 725 214 729 b 228 761 226 749 226 756 b 229 769 229 764 229 767 b 256 821 235 789 242 807 b 281 832 264 828 272 832 b 293 829 285 832 289 832 b 307 817 299 826 304 821 l 311 808 b 319 797 314 806 315 799 l 322 797 b 340 806 329 797 335 801 l 349 813 b 414 844 364 822 408 843 b 557 889 471 864 497 889 b 633 818 610 889 633 860 b 586 694 633 772 611 735 l 579 682 b 538 640 568 665 553 653 b 506 614 526 632 514 622 b 488 590 499 607 488 600 b 501 590 488 589 496 589 b 511 592 504 592 507 592 b 533 589 518 592 528 590 b 546 588 536 588 542 588 l 556 588 b 594 576 569 588 585 586 b 618 518 610 560 618 539 b 603 468 618 501 613 483 b 553 417 589 446 571 433 b 536 403 547 411 542 407 l 513 381 b 485 356 503 374 493 365 b 479 350 482 354 481 351 l 454 324 b 415 288 442 311 429 299 b 399 274 410 285 404 279 b 386 263 394 271 390 265 b 293 190 353 240 322 218 l 265 164 b 228 129 251 150 246 143 b 168 71 210 115 189 90 b 33 -22 133 33 88 -17 m 178 185 b 222 211 189 178 213 203 l 243 229 b 361 321 285 256 325 289 b 413 374 381 339 396 354 l 433 393 l 457 418 b 489 451 465 429 479 444 b 529 508 506 464 529 488 b 522 522 529 519 526 522 b 510 518 519 522 514 519 b 461 510 496 515 478 508 l 456 510 b 424 501 444 508 433 504 b 419 500 422 501 421 500 b 314 426 378 485 346 458 l 299 411 b 251 375 283 397 269 383 b 236 371 247 372 242 372 l 225 368 b 179 225 188 342 185 264 b 175 210 178 224 176 214 b 172 194 174 206 172 199 b 178 185 172 190 174 188 m 257 499 b 303 517 272 499 289 510 b 311 521 306 518 307 519 b 313 522 311 522 311 522 b 407 589 344 544 376 564 b 485 663 435 611 460 638 b 496 676 489 667 492 672 b 538 732 511 693 526 711 b 558 782 546 747 553 767 b 558 804 561 790 563 799 b 510 815 546 819 525 817 l 506 815 b 461 796 489 811 475 804 l 440 786 l 364 753 l 363 753 b 293 675 324 735 307 717 b 253 542 288 660 253 558 b 247 504 250 529 246 517 b 257 499 247 500 247 499 "},"C":{"ha":526,"x_min":0,"x_max":0,"o":"m 88 -22 b 11 22 53 -22 24 -10 b 7 42 8 29 7 36 b 19 89 7 58 14 72 b 21 90 19 90 21 90 b 42 154 29 111 35 133 l 42 156 b 74 231 50 182 60 206 b 96 275 82 244 89 258 l 108 313 b 133 379 114 335 122 358 b 172 447 144 403 157 425 l 196 485 l 196 486 b 231 544 210 506 221 525 l 256 589 b 301 682 274 619 288 650 b 365 806 321 724 340 765 b 369 813 367 807 368 810 b 404 854 381 828 390 842 l 419 875 b 439 899 425 882 431 893 b 472 911 449 906 460 911 b 489 907 478 911 483 910 b 519 850 513 897 519 874 b 513 806 519 835 515 819 b 510 783 511 799 510 792 l 506 771 b 499 717 501 753 499 735 b 465 646 499 683 493 669 b 417 628 456 638 435 621 b 400 643 410 631 403 635 b 400 667 397 650 396 660 l 408 682 b 418 699 413 688 415 692 b 422 721 421 706 421 713 b 431 756 424 733 425 744 l 435 761 b 442 772 438 765 440 768 b 447 799 444 781 446 790 l 451 822 b 451 824 453 822 453 824 b 401 768 436 814 410 781 b 347 660 376 729 364 699 b 338 639 344 653 340 647 b 318 590 332 622 325 607 l 306 568 b 196 385 267 507 231 450 b 185 361 192 378 189 369 b 169 307 178 343 175 325 b 142 215 161 276 153 244 b 126 185 138 204 132 194 b 113 158 122 175 117 168 b 97 93 104 138 100 115 l 97 86 b 103 72 97 81 97 76 b 111 69 106 71 108 69 b 125 74 115 69 121 71 b 160 99 136 81 149 90 b 186 119 168 106 178 114 b 211 132 194 124 203 129 b 217 135 213 133 214 135 b 240 151 225 139 232 146 b 249 158 243 154 246 157 b 303 215 269 175 286 194 b 319 242 310 224 315 233 l 331 260 b 347 300 343 275 347 288 b 286 424 347 346 286 379 b 367 494 286 464 328 494 b 388 492 374 494 381 494 b 444 407 431 479 444 446 b 396 243 444 353 415 285 b 381 221 390 236 385 229 l 365 196 b 350 174 360 188 356 181 b 313 126 339 157 328 140 l 294 110 l 279 96 b 244 72 268 86 257 79 b 225 60 238 68 232 65 b 183 28 211 50 196 40 l 181 25 b 104 -22 158 3 136 -15 l 88 -22 "},"D":{"ha":604,"x_min":0,"x_max":0,"o":"m 69 -14 b 44 3 60 -8 51 -3 b 7 92 18 28 7 60 b 79 249 7 150 39 211 b 94 272 85 256 90 261 b 131 364 108 303 122 333 b 143 388 135 371 139 378 l 151 410 b 160 438 156 419 158 429 b 163 446 161 440 161 444 b 169 471 164 454 168 463 b 176 489 172 478 175 482 b 182 511 178 497 181 504 b 196 567 186 529 190 549 l 207 607 l 217 646 b 221 669 219 653 221 661 l 224 686 b 247 797 229 724 238 761 b 250 818 250 806 251 810 b 246 825 250 821 247 822 b 236 842 242 829 236 833 b 260 878 238 857 243 872 b 276 881 265 881 271 881 b 315 868 290 881 303 876 b 322 854 321 864 319 858 b 324 850 324 851 322 850 l 324 846 b 326 847 325 846 325 847 b 335 856 329 850 331 853 b 399 886 354 871 374 881 l 400 886 b 440 889 414 889 428 889 b 513 857 474 889 490 874 b 524 847 517 854 519 850 b 532 838 524 847 532 839 b 571 772 550 814 558 799 l 572 771 b 575 763 572 768 574 764 b 597 667 585 731 593 700 l 597 661 b 596 640 597 654 596 649 b 594 628 594 636 594 632 b 593 625 593 626 593 626 b 585 578 592 610 590 593 b 557 518 576 557 567 538 b 540 497 551 510 546 504 b 529 486 536 493 532 490 l 506 457 b 464 399 490 438 475 421 b 388 268 442 351 421 308 l 385 265 b 318 190 357 244 336 218 b 300 163 311 182 306 172 b 115 -22 271 83 208 -22 b 69 -14 100 -22 85 -19 m 150 147 b 168 144 157 144 163 144 b 239 210 203 144 219 183 b 260 236 244 218 253 226 b 338 313 283 264 310 290 b 357 335 344 319 351 329 b 401 407 375 357 390 382 b 425 449 410 424 417 435 l 453 490 l 478 521 b 485 532 481 524 483 525 b 519 657 513 557 519 613 b 517 704 519 676 518 693 b 454 808 510 743 488 782 b 413 814 440 811 426 814 b 388 811 404 814 396 814 b 358 796 376 808 368 803 b 339 772 350 789 346 781 b 325 753 335 767 331 758 b 297 738 317 746 307 742 b 286 726 290 736 289 733 l 286 725 l 281 696 l 274 656 b 267 618 272 643 269 631 l 257 579 l 246 543 l 236 501 l 229 468 l 208 403 l 200 381 b 183 310 190 358 186 335 l 179 289 l 174 256 b 167 231 171 244 168 239 b 147 185 163 218 153 199 b 143 163 144 178 143 169 b 150 147 143 156 144 149 "},"E":{"ha":607,"x_min":0,"x_max":0,"o":"m 56 -22 b 31 -17 49 -22 39 -21 b 7 29 15 -8 7 11 b 31 81 7 53 19 65 b 78 175 51 111 67 142 b 90 229 83 193 86 211 b 106 289 94 250 99 269 l 121 344 b 136 399 126 363 132 379 b 138 407 138 401 138 404 b 135 428 138 414 136 419 b 129 453 132 435 129 443 l 129 457 b 140 486 129 468 135 478 b 153 497 143 490 149 494 b 160 504 156 500 158 501 b 178 560 168 522 172 540 l 186 590 b 197 644 190 607 194 626 l 204 685 b 211 718 207 696 210 707 b 219 764 215 733 218 749 b 221 772 219 767 219 769 b 226 814 222 785 222 803 b 303 881 240 854 265 867 b 310 882 306 881 308 882 b 328 889 315 885 322 886 l 353 896 b 376 901 361 899 369 900 b 546 1003 447 914 478 988 l 569 1004 b 593 997 578 1004 586 1003 b 614 953 608 986 614 969 b 603 919 614 940 610 929 b 422 839 551 872 483 861 b 399 831 415 836 407 835 b 371 822 389 828 381 826 b 329 807 357 817 346 815 b 296 758 314 799 301 776 l 296 757 l 286 724 l 278 692 b 240 543 264 643 258 590 b 228 513 240 540 228 515 l 240 521 l 267 540 b 415 668 326 575 353 638 b 429 671 419 669 425 671 b 482 638 450 671 474 657 b 483 611 485 629 486 621 b 389 528 463 569 426 549 l 363 511 b 282 463 333 497 304 483 b 256 444 272 457 264 450 b 244 436 253 442 249 439 b 197 385 225 421 206 408 b 189 360 193 376 192 369 b 172 306 182 342 176 324 b 160 250 168 285 165 268 b 150 206 156 235 153 221 b 140 154 146 189 143 171 b 139 151 140 153 140 153 l 160 171 l 190 199 b 222 221 200 208 211 215 l 243 233 l 290 269 b 367 333 317 290 343 311 b 382 349 374 339 378 343 b 515 479 415 407 447 465 l 521 479 b 540 472 528 479 535 476 b 572 406 561 456 572 431 b 567 376 572 396 571 386 b 444 296 546 329 489 318 b 425 281 438 292 432 288 l 393 254 b 332 211 374 239 353 225 l 289 183 l 288 182 b 193 111 254 163 219 138 b 101 7 160 76 133 43 b 56 -22 89 -8 78 -19 "},"F":{"ha":676,"x_min":0,"x_max":0,"o":"m 36 19 b 21 85 25 42 21 63 b 26 125 21 99 22 111 b 39 158 29 136 33 147 b 189 479 124 251 171 356 l 200 515 b 210 543 203 526 207 535 b 249 701 210 543 238 647 b 250 731 250 710 250 721 b 251 753 251 738 251 746 b 269 814 254 775 261 794 l 274 824 b 329 888 288 853 300 874 b 369 894 343 890 357 893 b 410 901 383 897 396 900 b 519 957 453 908 485 932 b 592 975 543 968 568 975 b 558 829 701 975 704 829 b 468 836 528 829 497 833 b 440 832 457 835 451 836 b 390 817 425 829 406 822 l 389 817 b 367 804 382 813 372 811 b 329 707 347 774 338 743 l 318 657 b 304 596 314 638 310 615 b 299 576 303 589 301 582 b 297 571 297 574 297 572 b 304 574 299 572 301 574 b 357 592 321 582 339 586 l 358 592 b 479 653 406 600 433 640 b 551 600 514 649 535 631 b 558 574 556 590 558 582 b 536 528 558 557 549 542 b 464 507 513 513 489 507 b 421 511 450 507 436 508 b 401 515 414 513 408 515 b 372 513 392 514 382 515 b 324 490 354 508 339 501 b 294 458 313 482 303 469 b 274 433 288 451 281 442 b 199 150 207 361 217 246 l 196 118 b 175 21 194 86 189 53 b 111 -22 163 -10 138 -22 b 36 19 82 -22 51 -7 "},"G":{"ha":583,"x_min":0,"x_max":0,"o":"m 76 -22 b 13 15 50 -22 24 -11 b 7 69 8 33 7 51 b 32 200 7 115 18 161 l 36 228 b 43 256 38 238 40 246 b 49 286 46 265 47 275 b 50 294 49 289 49 292 b 71 361 53 318 63 342 l 75 368 b 94 410 81 382 86 396 b 110 442 100 419 106 431 l 121 463 b 143 500 128 476 136 489 b 165 535 151 511 158 524 b 175 557 169 542 172 549 l 178 564 b 203 621 185 583 194 603 l 222 660 l 239 683 b 256 707 244 692 251 699 b 276 733 261 718 269 726 b 292 751 282 740 286 746 b 311 779 297 761 304 769 b 329 804 318 788 324 796 l 344 831 b 483 950 374 888 415 935 b 557 897 519 956 535 924 b 569 854 564 885 569 869 b 546 808 569 836 563 819 b 368 728 489 778 400 804 b 350 710 364 722 357 715 b 324 672 340 699 332 686 b 308 649 318 664 314 656 l 301 640 b 283 614 296 632 289 624 b 265 578 276 603 271 590 l 239 529 l 204 468 l 183 433 l 179 425 b 172 413 176 421 174 417 b 179 415 175 414 178 414 b 185 417 181 415 183 417 b 199 419 189 418 194 418 b 236 433 213 422 225 425 b 263 442 244 439 254 440 b 281 447 269 443 275 444 l 300 460 b 383 485 321 479 353 485 b 410 506 394 485 404 496 b 468 589 415 547 436 568 b 513 600 482 596 497 600 b 557 579 531 600 547 594 b 574 535 569 563 574 547 b 404 413 574 471 443 456 b 400 401 401 411 400 407 b 408 357 400 390 406 374 b 406 333 408 350 407 342 b 386 272 401 313 394 293 l 385 267 b 317 168 369 235 347 203 l 293 140 b 272 115 286 132 281 124 b 250 90 264 107 257 99 b 76 -22 207 31 149 -17 m 113 125 b 238 171 160 125 201 146 b 257 194 244 178 251 186 b 281 225 264 206 272 215 l 306 260 b 315 275 308 265 313 269 l 339 314 b 351 363 344 325 351 346 b 343 386 351 372 349 381 b 329 390 339 389 335 390 b 261 360 307 390 281 378 b 192 322 238 339 214 328 l 185 322 b 154 331 175 322 164 325 b 139 336 147 335 143 336 b 133 333 136 336 135 335 b 113 288 122 322 117 304 l 108 269 b 103 240 106 260 104 250 l 99 213 b 86 151 97 194 86 169 b 113 125 86 138 93 126 "},"H":{"ha":678,"x_min":0,"x_max":0,"o":"m 326 -51 b 276 3 300 -51 276 -35 b 338 214 276 79 307 150 b 356 247 344 225 350 236 b 371 278 363 258 367 268 b 379 303 375 286 376 294 l 379 310 b 378 329 379 317 379 322 b 376 357 376 338 375 347 b 399 432 381 386 386 408 b 406 444 400 436 403 440 b 418 489 414 460 422 474 b 401 490 413 490 407 490 b 311 464 372 490 336 475 b 300 458 307 463 303 461 b 258 418 269 446 267 439 b 251 399 257 413 254 407 l 235 329 l 231 307 b 225 263 226 292 225 276 b 229 182 225 235 229 208 b 218 119 229 161 226 140 b 146 67 204 86 175 67 b 88 99 125 67 103 76 b 76 135 79 111 76 122 b 160 290 76 188 149 236 b 169 325 164 301 167 311 l 182 368 l 183 374 b 193 414 188 388 192 400 b 192 415 193 414 192 414 b 174 407 188 415 179 410 b 168 404 172 406 169 406 l 138 389 b 93 365 122 382 108 375 l 86 361 b 25 342 69 350 50 338 b 10 351 19 342 14 346 b 7 368 7 356 6 363 b 47 407 14 389 32 400 l 54 411 l 90 431 b 189 488 125 450 157 467 b 214 513 199 494 208 501 l 243 571 l 268 625 b 293 697 281 649 286 672 l 294 703 b 311 754 299 721 303 738 b 335 794 318 768 326 781 b 363 843 344 811 356 826 b 371 879 367 856 368 867 b 378 910 372 889 375 900 b 419 944 385 932 400 944 b 449 921 433 944 446 935 b 450 908 450 917 450 913 b 442 875 450 896 446 885 b 439 869 440 874 440 871 l 431 849 b 424 825 429 840 426 833 b 390 764 414 804 401 783 b 361 711 381 747 369 731 b 347 665 356 697 351 682 b 332 614 343 649 339 631 b 317 581 326 603 321 592 l 296 536 l 296 535 b 342 549 311 538 326 543 b 438 593 378 561 410 578 b 471 668 454 615 463 642 l 493 729 b 521 808 504 756 513 781 b 531 843 525 819 528 832 b 551 908 536 865 542 886 l 554 915 b 593 976 564 938 574 960 b 646 994 607 990 626 994 b 668 981 656 994 663 989 b 671 968 669 976 671 972 b 667 951 671 963 669 957 b 646 926 661 942 654 935 b 631 908 640 921 633 914 b 617 874 624 897 621 886 b 610 851 615 867 613 858 b 560 706 596 806 581 758 l 550 681 b 531 628 543 663 536 646 l 526 611 b 522 590 525 604 525 597 l 510 547 l 494 501 l 494 500 l 490 490 b 481 458 486 479 482 469 b 461 344 476 413 471 376 b 451 324 458 336 456 329 b 444 304 449 317 444 311 b 439 258 442 290 439 275 b 326 -51 418 147 439 -51 "},"I":{"ha":632,"x_min":0,"x_max":0,"o":"m -37 0 b -93 21 -54 0 -72 6 b -126 94 -115 33 -126 54 b -115 133 -126 104 -121 117 b -72 150 -106 150 -82 150 l -37 150 b 0 160 -25 153 -12 165 b 36 150 13 154 25 153 b 63 144 46 150 51 144 b 79 139 68 144 75 139 b 151 178 107 133 136 150 b 169 222 157 189 163 206 b 179 263 174 233 174 251 b 201 306 186 278 196 289 b 219 350 208 317 213 335 b 229 385 224 361 224 372 l 246 435 b 258 463 253 446 253 457 b 263 479 258 468 263 472 b 290 568 274 508 285 533 b 308 613 296 579 303 596 b 331 685 313 633 324 663 b 353 757 336 713 346 735 b 363 790 357 767 357 779 b 386 840 369 807 374 825 l 386 846 b 392 864 392 850 392 858 b 386 872 392 867 390 876 b 363 864 382 867 375 867 l 353 864 l 346 858 b 240 840 313 850 274 846 b 174 868 213 840 190 850 b 160 907 167 875 160 894 b 169 925 160 910 163 918 b 213 947 179 940 196 947 b 264 963 229 954 247 967 b 336 940 289 957 313 951 b 407 929 353 935 374 929 b 457 940 425 935 442 935 b 475 951 464 947 469 947 b 486 958 479 951 479 958 b 508 971 494 964 501 976 b 525 958 515 965 521 964 b 536 947 531 958 531 951 b 540 940 536 940 540 940 b 553 942 544 938 549 946 b 569 940 558 936 564 938 l 590 940 b 649 947 608 940 631 947 b 717 960 671 950 696 971 b 749 951 728 954 738 954 b 774 925 769 947 774 929 b 742 875 782 908 764 890 b 708 868 732 875 719 868 b 608 879 675 868 640 875 l 603 879 b 569 889 593 882 581 890 b 479 858 536 883 500 874 b 442 796 464 840 453 818 l 436 790 b 407 717 425 763 414 742 b 353 544 396 657 374 601 l 353 540 b 336 489 346 522 342 508 b 313 417 331 463 319 439 b 303 379 308 400 308 389 b 290 339 303 361 296 350 b 279 306 290 328 285 317 b 269 263 279 289 274 278 b 263 228 269 251 263 238 l 263 194 b 258 178 263 189 258 183 l 258 163 b 258 156 253 156 258 156 b 279 150 258 150 274 150 l 285 150 b 314 151 294 147 304 157 b 342 150 324 146 333 147 l 353 150 b 428 171 375 157 403 178 b 479 150 446 165 464 161 b 518 100 501 140 518 122 b 515 79 518 89 517 83 b 436 39 503 44 464 33 b 346 61 403 44 374 54 l 336 68 b 258 72 308 72 279 72 b 224 68 246 72 235 68 l 213 68 b 186 54 201 61 196 61 b 129 44 169 54 151 50 b 107 50 125 44 111 50 l 75 50 b 29 29 57 44 40 33 b -37 0 7 17 -14 0 "},"J":{"ha":828,"x_min":0,"x_max":0,"o":"m 92 3 b 56 47 71 13 65 32 b 36 107 40 67 36 88 b 92 201 40 142 65 176 b 140 251 111 215 131 231 b 175 342 160 282 160 315 b 238 375 189 364 214 375 b 290 356 257 375 275 368 b 314 307 307 344 314 325 b 300 267 314 292 308 278 b 215 201 275 242 244 226 b 131 132 185 182 156 163 b 107 88 119 121 107 104 b 115 67 107 81 110 72 b 132 63 121 64 126 63 b 200 96 156 63 179 85 b 240 117 215 107 231 111 l 271 147 b 410 394 350 215 369 301 b 450 469 424 421 435 446 b 458 519 454 490 458 506 l 458 525 b 469 633 458 558 469 594 b 474 685 469 649 469 669 b 467 692 472 690 469 692 b 435 678 457 692 440 678 b 300 610 390 658 344 633 b 290 599 300 604 294 604 b 200 535 260 574 231 554 b 175 519 190 529 185 519 b 144 554 151 519 140 539 b 290 654 160 618 240 625 b 364 693 315 669 339 685 b 419 718 383 704 404 708 b 474 764 439 733 464 738 b 518 828 479 789 494 818 b 544 832 526 831 536 832 b 574 824 554 832 565 829 b 593 808 578 813 583 804 b 607 813 599 808 603 808 b 753 913 653 849 688 908 b 817 857 782 913 813 888 b 813 838 817 853 817 843 b 793 808 807 828 801 818 b 757 793 786 797 772 793 b 618 733 703 793 663 764 b 574 699 599 724 583 718 b 554 618 563 674 554 649 b 543 589 549 610 549 599 l 529 510 b 503 435 524 485 514 461 b 479 381 499 415 489 394 b 458 350 469 371 464 361 b 419 267 443 321 439 290 b 404 231 414 256 404 246 b 350 132 390 196 375 163 b 300 88 335 117 319 103 b 240 43 279 67 260 51 b 185 22 225 32 204 28 b 117 -3 163 11 140 -3 b 92 3 108 -3 100 -1 "},"K":{"ha":679,"x_min":0,"x_max":0,"o":"m 7 -4 b -21 42 -11 6 -21 21 b -10 85 -21 54 -17 68 b -7 92 -8 88 -8 90 b 11 122 -1 103 3 114 b 15 128 13 125 14 126 b 26 144 19 133 24 138 b 32 161 29 150 31 156 b 43 192 33 172 36 182 b 54 201 46 196 50 199 b 65 211 60 204 64 207 b 88 271 74 231 81 251 b 103 313 92 285 97 299 l 106 324 b 114 344 108 331 110 338 b 132 379 121 356 126 368 b 138 393 135 385 136 389 b 149 417 142 401 146 408 b 167 454 154 429 160 442 b 178 485 171 464 175 475 b 185 507 179 492 182 500 b 224 626 203 553 215 590 b 239 688 228 647 233 668 l 247 717 b 264 819 256 751 260 786 l 271 869 b 318 931 275 901 293 924 b 335 933 324 932 329 933 b 356 928 343 933 350 931 b 371 903 363 922 368 914 l 371 899 b 364 876 371 890 368 883 b 358 860 361 871 358 865 l 346 789 l 346 788 b 331 731 343 768 339 749 b 313 692 325 717 318 704 b 286 626 303 671 293 649 b 283 601 285 618 283 610 l 281 582 b 278 572 281 579 279 576 b 275 553 276 567 274 556 l 283 560 l 292 568 b 340 613 307 582 324 599 b 357 626 346 617 351 621 l 367 636 l 379 646 b 396 660 385 650 392 654 b 419 690 404 669 413 679 b 586 876 461 757 501 876 b 649 857 604 876 625 871 b 672 811 665 847 672 831 b 639 731 672 782 657 750 b 500 674 596 694 550 679 b 482 660 493 671 488 667 b 465 640 476 654 471 647 l 440 614 b 414 589 432 606 424 596 b 390 571 406 582 399 576 b 346 532 374 560 358 549 b 340 524 344 529 342 526 b 326 500 333 517 328 510 l 326 493 b 332 460 326 481 329 469 b 393 296 349 401 369 349 b 406 272 397 286 401 279 b 492 129 436 224 492 190 b 415 53 492 88 453 53 b 393 57 407 53 400 54 b 319 251 318 86 335 182 b 313 279 318 260 315 269 l 304 308 b 246 417 292 350 264 376 l 236 439 b 231 444 233 443 232 444 b 228 442 229 444 228 443 b 200 385 218 425 210 407 b 189 361 196 378 192 369 b 164 307 183 339 174 324 b 153 276 158 297 156 288 l 144 254 l 136 221 b 121 167 132 203 128 185 l 117 154 b 85 76 108 128 99 101 l 72 57 l 60 36 b 13 -4 49 17 36 -4 l 7 -4 "},"L":{"ha":599,"x_min":0,"x_max":0,"o":"m 57 0 b 15 26 38 0 22 10 b 7 67 10 40 7 54 b 35 156 7 99 21 126 b 46 181 39 164 43 172 l 57 201 b 67 218 61 207 64 213 l 71 231 b 74 243 71 235 72 239 l 82 265 b 89 285 83 272 86 278 l 93 303 l 97 317 b 107 364 101 332 104 349 l 118 411 b 158 542 131 453 143 497 l 175 578 b 178 592 175 582 176 588 b 196 647 183 610 189 629 l 207 672 b 218 694 211 679 214 688 l 222 711 b 228 726 224 717 225 721 l 231 735 b 253 813 239 760 249 786 b 254 844 254 824 254 833 b 257 886 254 858 254 872 b 258 890 257 888 258 889 b 290 911 271 907 282 911 b 322 863 311 911 322 885 b 294 754 322 824 308 789 l 281 717 b 271 692 278 708 275 700 l 263 674 b 258 656 260 668 260 663 l 254 638 l 246 610 b 239 592 243 603 242 597 l 222 529 l 210 486 b 193 418 204 465 197 442 b 183 363 189 400 186 381 b 172 297 181 342 178 319 l 172 296 b 125 188 160 260 144 225 l 106 135 l 106 133 b 111 135 107 133 108 135 b 161 158 128 142 144 149 b 186 181 169 164 178 172 l 189 183 b 200 196 193 188 197 192 b 215 211 206 201 210 207 b 233 231 222 218 228 224 l 257 253 b 279 269 265 260 272 265 l 301 286 l 336 317 b 360 336 343 324 351 329 l 381 357 b 400 379 388 364 394 372 b 508 471 435 413 461 454 b 525 474 514 472 519 474 b 571 460 540 474 556 468 b 592 415 583 447 592 431 b 575 383 592 403 586 392 b 558 358 569 374 564 365 b 483 306 539 329 508 319 l 461 296 l 435 288 l 410 275 b 386 261 401 271 393 265 b 278 169 349 236 317 208 b 267 151 272 164 269 158 b 257 135 264 146 261 140 b 247 119 254 129 250 125 b 221 86 239 108 232 97 b 165 56 204 71 185 63 b 149 49 160 53 154 50 b 108 22 133 42 119 31 l 104 18 b 88 7 100 14 94 8 b 57 0 76 3 67 0 "},"M":{"ha":542,"x_min":0,"x_max":0,"o":"m 65 -33 b 43 -43 58 -40 50 -43 b 8 -12 25 -43 8 -29 b 7 8 7 -6 7 1 b 75 213 7 82 57 142 b 81 236 78 219 79 228 l 82 239 b 93 290 85 256 88 274 b 119 390 104 324 113 357 b 126 417 122 400 125 408 l 129 431 b 156 551 140 471 150 511 b 168 600 158 569 164 585 l 178 631 l 190 686 l 208 763 l 213 781 b 221 818 214 793 215 806 b 254 844 228 833 240 843 l 257 844 b 289 824 269 844 281 836 b 297 768 299 806 297 786 b 296 756 296 764 296 760 l 296 717 b 296 665 297 700 297 683 b 288 618 294 649 292 633 b 281 585 285 606 282 596 b 279 506 278 558 278 532 l 279 488 l 288 514 l 293 532 l 307 569 b 325 617 314 585 321 600 l 325 618 b 336 646 329 628 332 638 l 351 693 b 353 694 351 694 353 694 b 363 739 357 708 360 724 b 365 757 364 744 364 750 b 367 758 365 757 365 758 b 401 871 379 792 392 831 b 428 931 407 896 418 914 b 481 967 444 957 460 967 b 522 944 494 967 508 958 b 525 940 524 943 524 942 b 533 906 531 929 533 917 b 522 850 533 886 528 867 b 517 831 521 843 518 836 l 503 775 l 490 729 b 468 610 481 690 474 649 l 458 547 b 453 514 456 536 454 525 b 446 472 451 500 450 486 b 444 469 446 471 446 471 b 428 411 436 451 432 432 l 424 390 b 422 383 422 388 422 386 b 425 368 422 378 424 372 b 428 326 428 354 428 340 b 436 233 428 296 425 265 b 444 199 442 222 444 210 b 410 129 444 172 432 147 b 365 113 396 118 381 113 b 300 150 340 113 314 128 b 288 203 292 168 288 185 b 349 363 288 258 324 311 l 360 389 l 375 440 b 392 517 382 465 386 490 l 397 554 l 411 633 b 428 726 417 664 421 696 l 421 710 b 392 624 407 682 400 654 l 379 581 b 344 461 364 542 354 501 b 321 378 338 435 331 406 b 319 375 321 376 321 375 b 275 351 307 361 292 351 b 249 360 267 351 257 354 b 224 386 239 365 231 375 b 214 450 211 407 213 429 b 215 469 215 457 215 463 b 219 578 215 507 218 544 b 210 553 215 569 213 561 b 199 501 204 536 201 519 l 192 468 b 144 293 179 408 161 350 b 128 214 140 264 135 238 b 124 189 125 204 125 197 b 65 -33 97 114 113 35 "},"N":{"ha":593,"x_min":0,"x_max":0,"o":"m 85 -43 b 7 26 28 -43 7 -15 b 147 372 7 119 111 283 b 154 410 149 385 151 396 l 182 524 l 194 569 l 228 706 l 243 779 b 264 871 249 808 254 839 b 290 897 268 885 278 894 b 297 899 293 897 294 899 b 328 883 308 899 319 893 b 340 847 336 875 339 864 l 346 760 b 351 636 350 719 351 679 l 349 529 l 353 428 l 353 422 b 361 344 354 396 356 369 b 364 343 363 343 363 343 b 374 349 368 343 371 346 b 410 440 393 378 403 408 b 419 486 414 456 417 471 b 425 511 421 494 422 503 b 428 551 426 526 428 539 l 435 618 b 458 711 439 647 449 678 b 468 743 461 721 464 732 b 475 785 471 753 474 768 l 475 792 b 474 806 475 796 475 800 b 467 878 471 828 467 853 b 503 981 467 915 475 953 b 544 994 514 990 529 994 b 614 939 578 994 614 972 b 611 924 614 933 613 929 b 547 761 596 865 560 819 b 538 733 543 751 540 742 b 514 675 532 714 522 694 b 488 601 503 647 492 621 l 474 514 b 422 296 463 440 451 371 b 403 263 419 286 414 274 b 379 247 396 256 388 250 b 356 243 371 243 363 242 b 304 369 308 260 304 322 l 304 396 l 306 436 b 304 478 304 450 304 465 b 303 536 303 497 303 515 b 304 567 303 546 303 557 l 304 601 b 303 638 304 613 304 625 l 300 713 b 299 756 300 726 300 740 l 276 653 l 271 629 l 263 590 b 242 499 257 560 250 529 l 222 411 b 217 385 219 401 218 393 b 194 250 215 339 210 292 b 147 25 163 176 178 99 b 85 -43 132 -7 119 -43 "},"O":{"ha":436,"x_min":0,"x_max":0,"o":"m 118 -22 b 90 -18 110 -22 100 -21 b 7 104 26 -1 7 47 b 36 265 7 158 25 219 l 39 292 l 43 319 b 57 390 47 347 51 369 l 69 428 b 85 481 75 446 81 463 b 108 563 90 508 100 536 l 117 586 l 126 624 l 139 669 b 222 847 160 732 192 790 l 231 861 l 246 889 b 279 944 256 908 265 928 b 356 986 300 971 328 986 b 425 926 390 986 414 963 l 425 925 b 429 897 428 915 429 906 b 403 825 429 868 415 844 b 374 746 388 794 378 769 b 372 733 372 742 372 738 b 376 701 372 724 375 713 b 381 668 378 690 381 679 b 378 631 381 656 379 643 l 374 604 l 374 582 b 369 525 372 563 372 544 b 329 392 364 468 351 425 b 276 281 304 358 290 318 l 272 268 l 257 217 l 249 186 b 243 160 246 176 244 168 l 244 142 b 118 -22 244 64 196 -22 m 175 150 b 201 243 206 160 190 213 l 210 271 b 260 392 225 315 242 356 b 275 424 265 403 269 414 b 307 501 288 449 300 475 b 317 571 314 526 317 551 b 318 578 317 574 317 575 b 315 615 318 592 318 604 b 301 638 313 624 307 631 b 283 672 294 647 286 658 l 283 681 b 289 719 283 694 286 707 b 293 749 292 729 293 739 b 286 785 293 761 289 772 b 279 815 283 794 281 804 b 279 831 278 821 279 825 l 279 840 l 275 836 b 249 792 264 824 257 807 l 243 779 l 229 753 b 207 708 221 738 213 724 l 193 664 l 188 642 b 163 546 176 610 169 578 b 146 478 157 522 153 500 l 138 444 b 121 390 132 426 128 408 b 107 328 114 367 108 347 b 106 301 107 319 107 310 l 104 274 b 100 244 101 265 100 254 b 175 150 100 196 126 140 m 58 250 b 56 251 57 251 54 253 l 58 250 "},"Ø":{"ha":606,"x_min":0,"x_max":0,"o":"m 154 -1 b 119 110 128 28 128 74 b 113 140 118 121 119 133 b 100 126 107 142 103 131 b 32 56 82 101 68 57 b 7 85 17 56 7 71 b 25 129 7 101 15 117 b 75 204 40 154 56 181 b 139 346 132 269 121 264 b 178 475 150 388 167 432 b 214 589 189 514 203 551 b 294 786 231 658 260 725 l 344 875 b 393 940 358 899 372 922 b 454 965 413 957 435 965 b 533 874 496 965 533 931 b 500 786 533 842 514 817 b 488 751 496 776 488 761 b 578 849 506 767 543 849 b 593 843 583 849 589 847 l 593 842 b 599 826 597 836 599 832 b 569 765 599 806 578 782 b 494 649 546 725 521 688 b 479 594 485 632 481 614 b 468 471 474 556 475 513 b 415 339 461 422 442 379 b 354 189 388 292 371 240 b 324 92 346 156 335 124 b 289 28 315 68 306 47 b 200 -22 268 1 233 -22 b 154 -1 183 -22 168 -15 m 228 83 b 274 153 249 89 263 128 b 336 328 294 210 311 274 b 403 481 357 378 386 426 b 411 528 404 489 411 514 b 407 536 411 533 410 536 b 394 524 406 536 401 533 l 324 436 b 240 321 292 400 268 360 b 196 240 224 296 199 272 l 196 239 b 192 178 194 218 192 199 b 197 129 192 161 193 144 b 228 83 201 114 214 83 m 235 407 b 375 590 282 467 329 528 b 388 621 382 600 388 611 b 383 650 388 632 385 640 b 390 731 379 678 390 704 b 378 800 390 754 381 776 b 372 811 376 808 375 811 b 361 799 368 811 364 804 b 301 679 340 760 318 719 b 236 438 272 600 257 518 b 235 407 235 432 218 388 "},"P":{"ha":636,"x_min":0,"x_max":0,"o":"m 108 0 b 7 82 63 -7 7 32 b 10 100 7 88 8 94 b 92 256 25 157 78 199 l 101 283 b 111 311 106 293 108 301 b 154 442 126 354 143 397 b 157 475 157 453 157 464 b 161 513 158 488 158 500 l 169 539 l 171 543 l 185 592 l 189 611 l 192 621 b 203 703 199 649 206 675 b 193 740 203 715 199 726 b 182 783 188 754 182 768 b 192 813 182 793 185 803 b 221 836 200 822 210 829 b 243 856 231 842 238 849 b 306 890 263 882 282 886 l 322 894 b 464 944 369 907 414 925 b 574 976 513 963 547 976 b 607 968 588 976 599 974 b 629 926 621 960 629 946 b 585 835 629 892 604 861 l 578 826 b 479 724 551 788 514 756 b 417 665 458 706 436 686 b 386 624 406 653 396 638 b 378 613 383 619 379 615 l 374 606 b 353 571 365 594 358 583 b 292 493 339 531 329 515 b 233 421 260 472 240 447 b 221 369 231 403 225 386 l 207 311 b 197 265 203 296 201 281 l 185 221 b 176 160 179 203 176 182 l 178 104 b 108 0 178 56 169 10 m 285 615 l 292 624 b 333 672 304 642 318 658 b 356 688 340 678 349 683 b 378 701 364 692 371 696 b 399 725 390 713 394 718 b 424 753 403 732 408 740 l 440 769 b 490 819 458 785 475 801 l 493 822 b 526 893 531 874 529 889 b 517 896 525 896 521 896 b 474 882 503 894 489 886 l 460 878 b 363 842 426 868 396 851 b 322 810 328 832 326 828 b 313 775 321 801 318 790 l 299 746 b 279 706 290 732 283 719 b 275 668 276 693 276 681 l 275 661 b 261 594 274 638 271 614 l 260 592 b 257 576 258 589 253 572 l 261 581 l 276 601 "},"Q":{"ha":465,"x_min":0,"x_max":0,"o":"m 196 -125 b 175 -85 181 -112 175 -100 b 201 11 175 -56 197 -21 b 182 7 194 7 189 7 b 136 15 167 7 153 13 b 110 26 128 18 118 22 b 72 60 93 36 79 47 l 31 143 b 7 242 15 174 7 207 b 13 290 7 261 10 275 l 14 297 l 22 351 b 28 381 24 361 25 371 l 33 421 b 71 603 42 481 53 543 b 96 669 78 628 85 649 b 115 699 101 679 108 689 l 132 728 l 146 753 l 167 792 l 174 801 b 188 824 178 808 182 817 l 201 846 b 357 972 222 924 283 972 b 421 961 378 972 399 969 b 458 904 450 949 458 928 b 443 789 458 867 439 824 l 443 763 b 442 735 443 753 443 744 b 425 672 440 713 433 692 l 424 667 b 407 614 417 650 413 632 b 401 594 406 608 404 601 b 379 492 393 561 385 526 l 378 486 l 369 450 b 363 414 367 439 364 426 l 344 343 l 332 299 b 317 253 329 282 322 267 b 311 239 314 247 313 243 b 285 158 301 217 292 189 b 279 90 281 135 279 113 b 279 58 278 79 279 68 b 311 -32 285 26 300 -6 b 318 -61 315 -42 318 -51 b 285 -125 318 -86 306 -111 b 240 -136 272 -132 256 -136 b 196 -125 225 -136 210 -132 m 203 85 b 190 210 201 126 196 168 l 181 290 l 181 296 l 179 315 b 190 349 179 326 182 338 b 224 367 200 360 211 367 b 261 329 240 367 256 351 l 261 331 l 269 354 l 271 356 b 299 451 282 386 290 419 l 303 472 b 328 582 313 508 321 546 l 335 611 l 347 665 b 357 704 350 678 353 692 b 363 782 363 732 364 756 b 358 803 361 793 360 799 b 306 832 346 822 325 832 b 269 817 292 832 278 826 b 251 790 264 811 258 801 l 232 764 b 199 701 218 746 208 724 b 189 678 196 693 193 686 b 172 650 185 668 178 658 b 161 629 168 643 164 636 b 125 539 144 596 132 568 b 96 389 111 490 103 442 l 89 338 l 85 315 b 75 247 79 292 75 269 b 78 219 75 238 76 229 b 96 175 79 204 88 190 l 106 154 l 108 149 b 133 106 115 133 122 118 b 193 86 139 99 174 92 b 203 85 196 86 200 85 "},"R":{"ha":606,"x_min":0,"x_max":0,"o":"m 50 -22 b 8 24 18 -22 11 4 l 8 25 b 7 56 7 35 7 46 b 28 129 7 81 11 107 b 82 249 54 167 69 207 b 117 364 99 286 113 324 b 126 413 118 379 121 396 b 161 536 139 454 149 496 b 175 572 165 549 172 560 b 185 611 178 585 179 597 b 192 635 188 618 190 626 b 247 797 201 690 226 744 b 269 875 257 822 258 849 b 328 953 282 903 304 931 b 388 981 344 968 367 974 b 431 990 403 988 417 990 b 510 939 465 990 494 971 b 546 835 533 892 546 864 b 514 733 546 807 535 779 b 501 713 511 725 506 719 b 453 642 483 689 469 665 b 428 615 444 633 435 625 b 404 593 419 607 410 601 b 346 526 386 569 364 549 b 342 514 343 522 342 518 b 356 501 342 507 346 503 b 533 471 411 490 474 496 b 564 454 544 467 554 461 b 599 388 588 439 599 414 b 547 303 599 353 579 318 b 507 293 532 296 519 293 b 339 397 439 293 400 375 b 308 406 328 399 319 400 b 238 501 260 425 238 461 b 263 578 238 528 246 554 b 328 647 278 606 301 628 b 392 714 351 668 374 690 b 435 799 410 743 414 769 b 451 836 443 810 451 825 b 406 904 451 863 440 904 b 335 835 367 904 343 864 b 314 788 329 818 318 803 b 303 768 311 781 308 774 b 274 724 290 754 282 739 b 261 689 268 713 265 700 b 244 649 256 675 249 663 b 215 532 233 610 225 571 b 181 381 201 482 194 432 b 118 197 164 319 139 258 b 83 75 108 156 96 117 b 82 64 83 71 82 67 b 86 4 82 43 90 24 b 50 -22 85 -11 68 -22 "},"S":{"ha":568,"x_min":0,"x_max":0,"o":"m 235 -11 b 171 -22 214 -18 193 -22 b 7 113 92 -22 15 26 b 69 175 7 143 38 169 b 94 179 78 178 86 179 b 242 113 151 179 186 118 b 307 140 263 113 283 128 l 333 156 b 392 224 357 172 379 193 b 410 311 401 244 410 279 b 401 354 410 328 408 343 b 357 392 392 371 374 383 b 294 399 338 400 315 397 b 228 418 269 400 243 400 b 196 553 200 456 194 504 l 197 614 b 208 675 199 635 201 656 b 251 779 221 711 235 746 b 296 825 263 799 276 815 b 410 886 332 849 371 865 b 493 914 435 901 463 919 b 560 833 528 911 557 875 b 556 806 560 824 558 814 b 446 582 529 729 503 644 b 404 571 435 576 419 571 b 378 576 394 571 386 572 b 344 639 358 590 344 615 b 363 682 344 654 350 669 b 389 700 371 690 381 696 b 461 792 429 713 456 750 b 440 817 461 807 450 822 b 265 622 342 803 265 722 b 268 586 265 610 265 599 l 271 558 b 318 489 272 521 292 507 l 376 450 b 426 414 394 439 413 431 b 479 264 460 375 479 322 b 471 203 479 243 476 221 b 406 107 458 164 431 135 b 261 -6 364 57 324 3 b 235 -11 251 -7 243 -10 "},"T":{"ha":615,"x_min":0,"x_max":0,"o":"m 40 19 b 7 97 19 38 7 67 b 31 165 7 121 14 144 b 57 175 39 174 47 175 l 69 175 b 82 176 75 175 79 175 b 122 300 124 203 103 260 b 132 329 125 311 129 319 b 142 360 136 339 139 349 b 164 443 147 388 156 417 b 185 524 171 469 179 496 l 193 557 b 233 688 203 604 229 642 b 125 658 199 672 161 658 b 57 678 101 658 79 664 b 36 715 42 689 36 701 b 82 772 36 742 58 768 b 118 775 94 774 106 775 l 168 774 b 261 804 200 774 232 778 b 274 824 268 810 272 817 b 278 847 276 832 276 839 l 281 869 b 313 907 286 888 299 903 b 325 908 315 908 319 908 b 346 901 331 908 339 907 b 367 847 365 888 367 867 b 368 832 368 842 368 838 b 374 822 369 828 371 824 b 382 822 375 821 379 821 b 439 840 401 826 421 832 b 483 854 453 846 468 850 b 507 861 492 856 500 858 b 535 867 517 864 526 865 b 554 869 542 867 547 868 b 569 875 560 871 564 874 b 586 882 575 878 581 881 b 597 883 590 882 593 883 b 638 893 611 886 624 889 b 672 911 650 899 661 904 b 715 931 686 918 700 925 b 736 939 722 932 729 935 b 776 951 750 944 763 951 b 794 947 782 951 789 950 b 808 926 803 944 807 936 b 810 918 808 924 810 921 b 800 893 810 908 806 899 b 768 876 790 885 779 881 b 739 864 758 874 747 869 b 690 818 722 846 707 831 l 689 818 b 654 799 676 813 665 806 l 651 799 b 625 792 643 793 635 793 l 622 792 b 601 789 615 792 608 790 b 576 786 593 788 585 786 b 522 775 558 785 540 781 l 497 768 l 478 764 b 438 753 465 761 450 758 l 424 747 b 411 742 419 746 415 744 b 353 713 389 732 369 722 b 329 686 342 707 335 697 l 325 676 b 315 651 321 668 317 660 b 303 621 313 640 307 631 l 299 608 b 289 578 294 599 292 589 l 286 572 b 276 544 283 563 281 553 l 268 519 b 260 486 264 510 263 497 b 254 461 258 478 257 469 l 250 446 b 243 429 247 440 244 435 b 240 413 243 424 242 418 b 235 383 239 403 238 393 b 229 367 232 378 231 372 b 217 332 224 356 219 343 b 206 293 214 317 211 306 l 199 268 b 196 253 199 263 197 258 b 176 103 188 203 192 156 b 81 0 161 60 124 0 b 40 19 68 0 54 6 "},"U":{"ha":633,"x_min":0,"x_max":0,"o":"m 75 10 b 49 92 56 35 49 63 b 81 235 49 139 68 189 l 89 261 b 117 344 97 290 107 317 l 132 386 l 156 460 b 211 618 171 513 188 567 l 225 646 b 258 721 238 671 250 696 b 268 754 263 731 265 742 b 282 797 272 768 276 783 b 315 822 289 813 303 822 b 344 783 333 822 344 807 b 321 717 344 760 332 738 l 318 714 b 265 606 299 679 281 643 b 210 431 240 549 225 489 l 207 422 b 189 354 203 400 196 376 l 172 293 l 165 263 b 156 194 168 242 156 215 b 174 167 156 182 160 172 b 188 163 179 164 183 163 b 231 206 208 163 218 194 l 244 231 b 361 474 286 301 325 382 b 442 644 392 543 417 596 b 482 736 460 679 474 708 l 488 760 b 582 997 493 840 482 971 b 613 981 594 996 606 990 b 626 925 622 961 626 943 b 547 729 626 857 571 792 b 535 701 543 721 540 711 b 496 624 524 675 510 649 l 488 610 l 449 535 l 436 507 b 383 376 417 465 400 419 b 358 311 375 356 368 333 b 294 182 342 267 318 224 b 285 158 290 174 288 167 b 226 19 268 114 257 67 b 146 -22 207 -8 176 -22 b 75 10 121 -22 94 -12 "},"V":{"ha":649,"x_min":0,"x_max":0,"o":"m 90 -14 b 35 25 68 -14 47 3 b 31 50 32 33 31 40 b 40 110 31 68 36 89 l 40 117 l 57 165 b 68 219 63 182 68 197 b 79 274 74 236 79 257 b 90 354 83 300 83 328 b 100 414 94 376 94 393 b 106 468 100 431 106 446 b 111 507 111 479 111 496 b 122 560 117 528 122 544 b 133 610 126 576 133 593 b 154 718 139 647 149 681 b 149 772 154 735 154 756 l 147 814 b 154 853 147 826 149 840 b 221 908 164 883 188 908 b 289 838 258 908 289 872 b 292 824 289 832 292 828 b 253 735 292 792 271 763 l 236 703 b 214 632 225 681 219 658 l 214 625 b 175 403 204 550 188 475 l 175 397 b 160 296 171 365 171 332 b 149 231 160 279 154 251 b 139 188 149 214 143 204 l 126 165 b 122 149 126 160 126 154 b 126 154 126 149 126 154 b 154 197 139 171 143 182 b 175 231 165 204 171 219 b 231 328 192 263 208 300 l 253 354 b 279 414 263 376 274 393 b 301 458 289 431 296 446 b 361 560 322 496 339 528 b 367 576 361 567 367 572 b 410 653 383 604 399 625 b 447 751 425 686 436 718 b 475 815 458 772 464 794 b 490 901 485 843 490 869 b 518 967 490 929 497 944 l 518 974 b 567 1010 533 989 546 1010 b 582 1013 572 1011 578 1013 b 625 994 599 1013 614 1006 b 647 944 642 983 647 967 b 621 886 647 924 632 901 b 594 847 610 869 604 860 b 567 815 582 838 572 826 b 447 604 518 746 481 681 b 383 485 425 567 403 524 l 350 436 b 333 410 344 425 339 414 b 311 376 328 397 318 388 b 289 328 306 361 296 344 b 279 306 285 322 285 311 b 269 283 274 300 274 289 b 236 219 257 263 247 240 b 219 192 231 214 225 197 b 197 160 214 182 204 171 b 175 106 188 139 182 126 b 154 46 165 83 165 61 b 90 -14 143 13 126 -14 "},"W":{"ha":703,"x_min":0,"x_max":0,"o":"m 42 -22 b 32 -17 38 -22 33 -19 b 7 54 13 7 7 32 b 11 93 7 68 8 81 b 25 153 15 115 21 133 l 33 185 l 47 243 b 78 378 58 286 68 331 b 104 526 88 425 96 476 b 114 582 107 546 110 564 b 128 653 117 607 122 631 l 142 718 b 146 758 144 731 144 744 l 149 788 l 149 789 b 186 831 150 803 153 831 b 225 793 200 831 218 822 b 226 778 226 788 226 783 b 221 743 226 765 224 754 b 210 703 217 731 213 717 b 194 649 204 685 199 667 b 158 463 181 588 169 524 b 132 317 150 414 142 364 l 117 253 l 104 192 l 101 181 b 108 201 104 188 107 194 b 139 281 118 228 128 256 l 172 350 l 189 383 l 210 422 b 233 465 218 436 226 450 b 260 539 243 489 251 513 l 264 553 b 292 593 268 567 275 585 b 311 599 297 596 304 599 b 329 594 317 599 324 597 b 336 589 332 594 335 592 b 350 532 346 569 350 551 b 346 490 350 518 349 504 b 343 469 344 483 343 476 l 339 444 b 326 390 336 426 331 408 b 314 329 322 369 317 349 l 314 326 b 317 333 314 329 315 332 l 336 385 l 358 433 b 376 472 365 446 371 460 l 392 511 b 403 543 396 522 399 533 l 443 639 l 457 672 b 508 854 478 728 490 793 l 519 889 b 640 1051 539 956 583 1051 b 672 1042 650 1051 661 1049 b 696 996 690 1032 696 1015 b 643 836 696 950 661 885 b 626 822 636 831 628 826 b 521 635 610 743 553 696 b 506 606 517 625 511 615 b 500 594 504 603 501 599 b 492 579 497 590 493 585 l 472 535 b 458 497 468 522 464 510 l 436 451 l 407 386 b 369 281 394 356 382 321 b 365 258 367 275 367 267 b 343 206 363 240 360 219 b 304 190 331 196 318 190 b 242 240 276 190 250 213 b 238 272 238 251 238 263 b 242 313 238 286 239 300 l 246 342 b 243 338 244 340 243 339 b 221 304 235 328 226 315 l 214 288 b 147 124 189 232 167 181 l 140 99 l 129 63 b 43 -22 117 29 101 -15 l 42 -22 "},"X":{"ha":749,"x_min":0,"x_max":0,"o":"m 46 -56 b 7 -28 18 -56 7 -43 b 156 186 7 21 126 119 l 176 219 b 196 253 183 231 190 242 b 236 314 208 274 222 294 l 267 360 b 283 399 275 375 281 388 b 285 418 285 406 285 413 b 274 481 285 439 281 460 b 268 500 271 488 269 494 l 250 550 b 233 594 244 564 238 579 b 213 689 222 625 217 657 l 208 717 b 206 729 207 721 207 725 b 201 757 204 738 201 747 b 214 789 201 768 204 779 b 229 794 218 793 224 794 b 250 785 236 794 243 792 b 276 725 267 769 272 747 l 279 708 b 297 635 283 683 288 658 b 321 581 303 617 311 599 l 343 529 b 358 499 353 501 358 499 b 376 524 358 499 364 500 b 399 561 385 536 392 549 b 438 633 413 585 428 608 b 449 658 442 642 446 650 b 471 706 456 674 463 690 b 506 765 481 726 493 746 b 525 793 513 775 518 785 b 588 943 563 833 567 890 b 679 1014 596 981 636 1014 b 714 1006 690 1014 703 1011 b 740 954 729 996 744 975 b 683 872 729 917 714 890 b 674 864 679 869 676 867 b 574 767 635 833 599 807 l 557 743 b 514 664 539 718 524 692 l 506 639 b 476 569 497 617 489 592 b 439 508 465 549 451 528 l 414 468 b 383 406 401 447 389 428 b 381 378 382 397 381 388 b 383 333 381 364 382 349 b 386 297 385 322 386 310 b 388 260 388 283 388 274 b 468 213 388 207 428 217 b 497 167 489 207 497 189 b 478 103 497 146 489 121 b 417 75 463 83 440 75 b 332 124 383 75 347 93 b 319 176 322 140 319 158 b 324 240 319 197 324 219 b 319 271 324 250 322 261 l 313 307 b 310 314 311 311 311 313 b 288 286 307 313 300 307 l 247 213 l 246 211 b 232 186 242 203 238 194 b 218 160 228 178 224 168 b 46 -56 157 81 113 -56 "},"Y":{"ha":565,"x_min":0,"x_max":0,"o":"m 83 -22 b 7 51 43 -22 11 10 b 29 132 7 81 18 107 b 36 149 32 138 35 143 b 40 165 39 154 40 160 b 39 183 40 172 40 178 b 21 251 33 204 21 226 b 88 315 21 290 56 315 b 106 313 93 315 100 314 b 147 247 133 301 147 275 b 117 181 147 222 136 196 b 108 168 114 176 111 174 l 100 154 l 96 138 l 96 119 b 189 224 138 146 153 193 b 192 231 189 225 190 228 b 199 242 193 235 196 239 b 210 264 203 250 207 256 l 210 265 b 222 282 214 272 218 278 b 231 294 225 286 229 290 b 232 300 232 297 232 299 l 232 306 b 246 336 232 317 239 328 l 253 349 b 264 367 257 356 260 361 b 306 474 274 404 290 439 b 317 500 308 482 313 492 b 343 564 326 521 335 543 b 393 678 358 601 375 640 b 396 682 394 679 394 681 b 360 633 382 667 371 650 l 351 617 b 285 519 332 583 313 549 l 276 510 b 246 474 265 499 254 486 b 232 442 239 464 236 453 b 207 394 226 425 221 408 b 164 378 196 385 181 378 b 93 410 135 378 107 390 b 83 446 85 421 83 433 b 86 475 83 456 85 465 b 96 517 90 489 93 503 b 128 621 104 551 111 588 b 154 671 135 638 144 654 b 156 678 156 674 156 675 b 158 688 156 681 157 683 l 164 697 b 168 704 165 700 168 703 l 169 706 l 169 711 b 172 729 169 718 171 724 b 174 751 174 736 174 744 b 169 836 174 779 169 808 b 204 935 169 871 176 904 b 272 969 222 956 250 969 b 310 944 289 969 303 963 b 314 913 313 933 314 924 b 211 694 314 835 238 768 l 199 663 b 161 514 179 610 168 561 l 161 507 b 164 492 161 493 164 492 b 197 521 169 490 189 511 l 211 535 b 294 642 246 567 272 607 b 357 728 315 672 338 701 b 376 753 364 736 371 744 b 446 900 414 793 435 846 l 447 903 b 475 944 453 917 461 933 l 475 946 b 511 958 488 954 500 958 b 542 946 524 958 533 954 b 558 903 553 935 558 919 b 547 863 558 889 554 875 b 461 694 511 810 486 751 l 443 654 b 319 381 399 564 358 471 l 292 317 b 233 196 272 272 253 233 b 219 169 229 188 225 178 b 83 -22 168 114 171 -22 "},"Z":{"ha":647,"x_min":0,"x_max":0,"o":"m 92 0 b 88 1 90 0 89 1 b 56 72 64 19 56 44 b 106 221 56 125 88 188 l 107 225 b 204 404 139 286 172 346 l 281 549 b 319 632 297 578 308 606 b 376 746 336 669 351 706 l 406 789 l 422 811 b 425 815 422 811 424 814 b 428 819 425 815 426 818 b 419 811 424 817 421 813 b 414 807 417 810 415 808 b 393 788 407 800 400 793 b 346 744 379 772 364 758 l 283 700 b 167 608 243 672 201 643 b 136 574 157 599 146 586 b 69 508 117 550 97 525 b 38 497 57 500 46 497 b 18 504 28 497 22 501 b 7 532 11 510 7 519 b 11 554 7 539 8 546 b 63 618 17 574 35 596 l 101 650 b 161 697 122 665 143 681 l 308 824 l 376 885 l 407 914 b 417 924 410 917 414 919 b 494 981 440 944 465 968 b 518 988 503 985 511 988 b 536 982 525 988 532 985 b 563 946 550 976 558 963 b 565 922 564 938 565 929 b 525 822 565 889 551 857 l 503 799 b 496 792 500 797 499 794 b 410 689 458 756 432 724 b 394 664 404 681 399 672 l 382 640 b 311 493 353 594 332 547 l 299 469 l 189 258 l 186 253 b 156 181 175 231 163 204 b 181 200 163 185 174 193 b 182 204 182 201 182 203 b 183 207 183 204 183 206 b 192 210 186 210 189 211 b 201 218 196 214 199 217 b 239 236 211 225 226 232 b 376 336 308 261 339 282 b 392 358 382 343 388 351 b 393 360 393 358 393 358 b 588 582 457 422 497 558 b 597 583 590 583 593 583 b 625 568 608 583 618 578 b 639 511 635 547 639 529 b 469 335 639 426 538 372 b 449 307 463 328 456 318 b 392 221 431 278 413 247 b 343 175 379 207 363 189 b 278 150 324 163 300 156 b 258 143 272 147 265 146 b 168 63 222 128 194 93 b 93 0 142 31 119 4 l 92 0 "},"a":{"ha":415,"x_min":0,"x_max":0,"o":"m 140 14 b 83 0 124 6 103 0 b 15 40 53 0 25 13 b 7 85 10 56 7 69 b 74 233 7 138 40 189 l 99 268 l 126 301 l 178 365 b 304 490 217 410 263 449 b 356 519 319 506 335 519 b 407 464 385 519 415 494 b 364 407 400 439 382 422 b 340 378 354 399 343 390 l 340 374 b 343 349 340 365 343 357 b 293 210 343 306 293 257 b 356 131 293 164 336 158 b 365 97 363 119 365 108 b 354 69 365 88 363 78 b 325 57 346 61 335 57 b 296 69 315 57 304 61 b 239 156 271 93 265 135 b 140 14 213 103 192 46 m 104 129 b 117 128 108 128 113 128 b 217 226 167 128 199 185 b 233 268 224 239 229 253 b 256 358 239 299 242 331 b 271 393 258 364 276 388 b 268 394 269 393 269 394 b 242 374 260 394 246 378 b 176 299 217 351 197 325 b 133 242 161 281 147 261 b 121 225 129 235 125 231 b 83 151 110 206 83 174 b 104 129 83 140 89 133 "},"Æ":{"ha":675,"x_min":0,"x_max":0,"o":"m 133 22 b 68 0 118 8 92 0 b 7 54 35 0 6 15 b 18 136 4 81 11 113 b 56 211 26 163 43 188 b 108 281 69 238 89 258 b 160 344 125 303 142 325 b 286 471 199 389 244 429 b 338 500 301 485 318 500 b 353 497 342 500 347 499 b 389 443 375 489 396 469 b 346 386 381 419 364 403 b 322 357 336 379 325 369 b 321 349 322 354 321 351 b 324 319 321 339 325 329 b 296 256 319 300 307 278 b 307 269 300 260 304 265 b 313 278 308 272 310 275 b 318 292 314 282 317 286 b 331 318 321 300 325 310 l 332 318 b 374 372 347 335 361 353 l 375 374 b 400 392 383 382 392 386 l 418 401 b 429 410 422 404 426 407 l 457 426 b 510 453 474 438 492 444 b 547 471 522 458 535 464 b 607 492 568 482 589 492 b 624 489 613 492 618 492 b 656 440 639 482 650 465 b 658 426 657 436 658 432 b 643 392 658 414 653 401 b 571 336 624 371 600 353 b 503 289 546 321 525 306 l 489 279 l 488 278 b 468 268 481 275 475 271 b 451 261 463 267 457 264 b 450 260 451 260 451 260 b 426 243 442 257 435 250 b 408 229 421 239 415 233 l 407 229 b 376 210 396 224 386 217 l 365 201 b 339 169 349 190 340 181 b 349 106 338 147 336 124 b 376 101 354 99 367 100 b 422 111 392 107 407 110 b 497 144 451 119 476 131 l 499 144 b 542 176 513 153 526 164 b 543 178 542 176 542 178 b 574 204 554 185 564 194 b 589 221 578 210 583 215 b 618 232 599 229 608 232 b 640 228 626 232 633 229 b 668 192 657 225 667 213 b 661 169 668 182 665 175 b 647 161 657 165 651 163 b 643 160 646 161 643 160 b 597 122 631 131 618 126 b 579 117 592 121 586 119 b 560 106 572 114 567 110 l 528 89 b 518 82 525 88 521 85 b 499 69 513 78 507 72 b 403 44 469 57 438 49 b 375 39 392 43 383 40 b 346 35 364 36 354 35 b 324 40 339 35 331 36 b 307 36 318 38 313 36 b 278 49 296 36 286 40 b 260 75 269 57 265 65 b 238 106 253 86 244 94 b 219 131 233 113 229 131 b 194 99 210 131 199 107 b 133 22 176 72 157 44 m 89 88 b 122 103 100 88 114 97 b 175 167 149 119 160 140 b 214 249 192 193 207 217 b 238 339 221 279 224 310 b 253 372 240 344 258 367 b 250 374 251 372 251 374 b 224 354 242 374 228 357 b 158 279 199 332 179 304 b 101 201 138 254 118 229 b 71 119 86 174 71 151 b 88 88 71 107 71 88 l 89 88 m 282 168 b 279 167 281 168 281 168 b 281 165 281 167 281 167 b 282 164 281 165 281 164 l 282 168 m 371 289 b 401 304 379 294 390 300 b 408 308 403 306 406 307 b 428 317 414 311 419 315 l 431 318 b 446 324 436 319 442 321 b 461 335 451 329 456 332 b 471 340 464 338 468 339 b 497 358 479 347 489 353 b 532 383 510 365 522 374 l 560 406 b 583 424 568 411 576 417 b 589 432 586 426 588 431 b 578 429 585 432 579 431 l 575 429 l 517 403 l 471 381 b 461 375 467 379 467 379 b 443 361 456 371 450 365 l 418 342 b 401 326 414 338 408 332 l 379 306 l 371 289 "},"æ":{"ha":675,"x_min":0,"x_max":0,"o":"m 133 22 b 194 99 157 44 176 72 b 219 131 199 107 210 131 b 238 106 229 131 233 113 b 260 75 244 94 253 86 b 278 49 265 65 269 57 b 307 36 286 40 296 36 b 324 40 313 36 318 38 b 346 35 331 36 339 35 b 375 39 354 35 364 36 b 403 44 383 40 392 43 b 499 69 438 49 469 57 b 518 82 507 72 513 78 b 528 89 521 85 525 88 l 560 106 b 579 117 567 110 572 114 b 597 122 586 119 592 121 b 643 160 618 126 631 131 b 647 161 643 160 646 161 b 661 169 651 163 657 165 b 668 192 665 175 668 182 b 640 228 667 213 657 225 b 618 232 633 229 626 232 b 589 221 608 232 599 229 b 574 204 583 215 578 210 b 543 178 564 194 554 185 b 542 176 542 178 542 176 b 499 144 526 164 513 153 l 497 144 b 422 111 476 131 451 119 b 376 101 407 110 392 107 b 349 106 367 100 354 99 b 339 169 336 124 338 147 b 365 201 340 181 349 190 l 376 210 b 407 229 386 217 396 224 l 408 229 b 426 243 415 233 421 239 b 450 260 435 250 442 257 b 451 261 451 260 451 260 b 468 268 457 264 463 267 b 488 278 475 271 481 275 l 489 279 l 503 289 b 571 336 525 306 546 321 b 643 392 600 353 624 371 b 658 426 653 401 658 414 b 656 440 658 432 657 436 b 624 489 650 465 639 482 b 607 492 618 492 613 492 b 547 471 589 492 568 482 b 510 453 535 464 522 458 b 457 426 492 444 474 438 l 429 410 b 418 401 426 407 422 404 l 400 392 b 375 374 392 386 383 382 l 374 372 b 332 318 361 353 347 335 l 331 318 b 318 292 325 310 321 300 b 313 278 317 286 314 282 b 307 269 310 275 308 272 b 296 256 304 265 300 260 b 324 319 307 278 319 300 b 321 349 325 329 321 339 b 322 357 321 351 322 354 b 346 386 325 369 336 379 b 389 443 364 403 381 419 b 353 497 396 469 375 489 b 338 500 347 499 342 500 b 286 471 318 500 301 485 b 160 344 244 429 199 389 b 108 281 142 325 125 303 b 56 211 89 258 69 238 b 18 136 43 188 26 163 b 7 54 11 113 4 81 b 68 0 6 15 35 0 b 133 22 92 0 118 8 m 89 88 l 88 88 b 71 119 71 88 71 107 b 101 201 71 151 86 174 b 158 279 118 229 138 254 b 224 354 179 304 199 332 b 250 374 228 357 242 374 b 253 372 251 374 251 372 b 238 339 258 367 240 344 b 214 249 224 310 221 279 b 175 167 207 217 192 193 b 122 103 160 140 149 119 b 89 88 114 97 100 88 m 282 168 l 282 164 b 281 165 281 164 281 165 b 279 167 281 167 281 167 b 282 168 281 168 281 168 m 371 289 l 379 306 l 401 326 b 418 342 408 332 414 338 l 443 361 b 461 375 450 365 456 371 b 471 381 467 379 467 379 l 517 403 l 575 429 l 578 429 b 589 432 579 431 585 432 b 583 424 588 431 586 426 b 560 406 576 417 568 411 l 532 383 b 497 358 522 374 510 365 b 471 340 489 353 479 347 b 461 335 468 339 464 338 b 446 324 456 332 451 329 b 431 318 442 321 436 319 l 428 317 b 408 308 419 315 414 311 b 401 304 406 307 403 306 b 371 289 390 300 379 294 "},"b":{"ha":379,"x_min":0,"x_max":0,"o":"m 113 8 b 71 0 99 3 85 0 b 22 13 54 0 39 4 b 8 26 17 15 11 19 b 7 39 7 31 7 35 b 22 93 7 57 18 75 b 25 119 25 103 24 111 b 53 221 32 154 40 188 b 108 342 74 260 94 299 b 117 389 114 357 118 372 l 124 453 b 146 514 132 472 139 493 l 156 544 b 164 604 163 564 164 583 l 163 647 b 182 725 163 674 165 700 b 224 749 193 739 208 749 b 250 740 232 749 242 746 b 286 672 276 731 292 699 b 206 540 265 621 208 600 b 200 518 204 533 203 526 l 192 493 b 176 433 188 471 181 456 b 174 408 175 426 174 417 b 176 392 174 403 175 397 b 189 396 181 389 185 392 b 267 472 213 422 238 449 b 308 497 279 482 292 496 b 372 444 346 501 365 479 l 372 443 b 347 372 374 417 357 396 b 342 342 343 363 346 351 b 325 301 336 328 328 317 b 271 219 314 269 292 246 b 249 190 264 210 257 200 b 226 163 240 182 235 171 b 197 132 218 150 206 143 b 182 108 192 125 186 117 b 169 68 176 96 176 81 b 140 36 163 56 150 46 b 113 8 131 26 125 14 m 135 143 b 171 186 154 143 158 172 b 235 274 193 214 214 243 b 271 386 253 310 268 344 l 271 388 b 261 396 271 393 267 397 b 235 374 250 392 243 381 b 217 360 229 368 222 364 b 185 322 204 349 196 335 l 165 300 b 142 208 154 272 149 238 b 133 182 139 196 136 193 b 129 153 131 174 129 163 b 135 143 129 150 129 143 "},"c":{"ha":343,"x_min":0,"x_max":0,"o":"m 89 0 b 10 51 53 0 24 17 b 7 97 8 67 7 81 b 22 185 7 129 14 156 b 67 275 32 218 42 250 l 67 276 b 75 292 74 279 71 286 l 111 350 b 136 383 118 363 128 372 b 210 479 160 415 182 450 b 233 493 217 486 225 492 b 247 494 238 494 243 494 b 311 446 278 494 299 474 b 318 415 315 436 318 425 b 317 400 318 410 318 406 b 288 379 313 386 300 379 b 253 385 276 379 265 385 b 221 369 239 385 232 375 b 204 354 214 365 208 361 b 90 181 147 311 106 254 b 89 167 89 176 89 172 b 122 103 89 139 100 103 b 138 108 126 103 132 104 b 263 239 194 139 200 218 b 276 240 267 240 272 240 b 336 185 311 240 336 213 b 335 171 336 179 336 175 b 139 22 299 88 215 50 l 115 10 b 89 0 107 4 99 0 "},"d":{"ha":453,"x_min":0,"x_max":0,"o":"m 285 1 b 226 69 247 -8 217 33 b 311 232 243 132 289 175 b 322 260 317 240 321 249 b 353 357 331 292 340 325 b 374 479 365 397 369 438 b 371 475 374 481 372 479 l 371 474 b 361 460 369 468 367 463 b 344 439 354 454 349 447 b 324 392 335 424 329 408 l 278 314 b 267 289 272 306 268 297 b 249 254 263 276 256 267 l 229 219 b 138 90 196 179 169 132 b 108 61 129 79 121 68 b 68 51 96 54 82 49 b 8 122 35 57 1 86 b 33 206 11 151 19 179 b 56 251 42 221 50 236 b 90 319 61 276 75 299 b 117 361 99 333 106 347 b 150 393 126 372 139 383 b 221 451 169 417 192 440 b 254 471 233 457 244 464 l 300 504 b 319 529 308 511 315 519 l 338 601 b 367 719 349 638 363 682 b 406 792 367 747 367 792 b 438 765 421 792 431 778 b 442 708 449 749 447 726 b 421 631 436 683 425 656 b 418 572 419 611 418 592 b 417 510 417 551 414 531 b 415 399 421 474 419 435 b 410 363 414 386 413 374 b 406 342 408 356 406 349 b 408 310 407 331 418 319 b 390 290 403 303 393 299 b 379 246 385 276 379 263 b 376 226 379 240 379 233 b 285 1 342 154 374 39 m 90 136 b 106 144 94 135 101 142 b 172 238 135 169 157 201 b 199 278 182 250 190 264 b 218 324 208 292 211 308 b 243 367 226 338 238 350 l 269 417 b 258 419 274 431 264 426 b 190 342 233 396 214 367 b 142 275 168 324 151 300 l 121 239 b 114 221 118 233 115 228 b 96 181 110 207 101 193 b 88 150 93 171 89 161 b 90 136 86 144 86 138 "},"e":{"ha":475,"x_min":0,"x_max":0,"o":"m 167 0 b 111 28 153 0 136 7 b 108 29 110 28 110 29 b 99 49 104 35 101 42 b 96 54 97 50 97 53 b 85 83 92 64 86 74 b 82 111 82 93 82 103 l 81 111 b 60 107 74 108 67 107 b 24 124 44 107 33 114 b 7 154 13 131 7 142 b 15 179 7 163 11 172 b 19 188 17 182 19 185 b 49 207 25 203 36 210 b 64 199 56 207 60 201 b 67 196 64 197 65 196 b 76 215 71 197 75 208 b 79 225 78 219 79 222 b 82 240 81 229 81 235 b 86 269 82 250 82 260 l 88 269 b 113 333 97 289 106 311 l 113 335 b 132 360 119 346 125 351 b 146 375 136 364 142 368 b 156 385 150 378 153 381 b 176 408 163 393 171 400 b 219 449 190 424 206 436 b 251 476 231 458 242 467 b 315 515 272 497 293 515 b 364 478 333 515 350 501 b 371 453 369 469 371 461 b 365 428 371 444 369 436 b 342 392 358 415 351 403 b 217 247 289 349 264 292 b 199 225 210 242 204 233 b 185 206 194 218 190 213 b 160 178 175 197 168 188 l 151 168 b 136 129 139 151 133 140 b 163 69 140 107 146 83 b 168 68 164 68 167 68 b 190 75 175 68 183 72 b 231 96 204 83 217 90 b 264 119 244 104 256 113 b 401 285 321 165 321 285 b 431 281 410 285 419 283 b 467 233 451 275 467 260 b 329 88 457 156 383 129 b 317 76 325 83 322 79 l 299 64 b 232 26 278 49 256 36 l 207 14 b 167 0 192 6 179 0 m 132 253 b 157 275 139 261 149 268 b 163 282 160 278 161 279 b 179 296 168 286 172 292 l 182 297 b 194 307 188 300 193 303 b 207 322 199 313 203 318 b 214 331 210 325 213 328 l 235 354 b 261 389 244 365 254 376 l 282 418 l 299 442 b 301 451 301 444 301 449 l 292 446 l 290 444 l 242 403 b 203 368 229 392 217 379 b 196 361 200 367 199 365 b 182 342 192 356 186 349 l 164 315 l 153 297 b 136 271 146 288 139 276 l 132 253 "},"f":{"ha":426,"x_min":0,"x_max":0,"o":"m 88 14 b 58 86 67 36 58 61 b 124 246 58 140 99 197 b 132 254 128 249 131 250 l 136 269 l 143 290 b 146 297 144 293 146 294 l 150 306 l 158 336 l 169 379 b 168 386 169 382 169 385 b 160 388 168 386 165 388 l 156 388 b 133 383 149 386 142 386 b 114 374 126 381 121 378 l 100 365 b 81 350 93 363 86 356 b 58 333 74 344 67 338 b 38 326 51 329 44 326 b 17 336 31 326 22 331 b 7 361 10 342 7 351 b 14 388 7 369 8 379 b 46 407 21 401 35 404 l 60 411 b 72 418 64 414 68 417 b 110 436 85 425 97 431 b 133 443 118 439 126 442 b 143 446 136 444 139 444 b 192 504 174 454 185 464 l 204 550 l 214 593 l 225 633 l 229 651 l 240 704 l 250 743 l 250 749 b 254 763 251 753 251 757 l 263 781 b 281 814 268 792 274 803 b 333 860 301 846 317 860 b 400 808 356 860 376 836 l 400 807 b 419 739 414 782 419 760 b 418 719 419 732 419 725 b 397 693 414 703 407 694 b 372 715 390 693 381 696 b 353 751 368 726 361 742 b 350 756 353 753 351 754 b 347 760 350 757 349 758 b 308 718 331 757 319 742 b 281 618 297 686 289 651 b 260 535 275 590 268 563 b 257 526 258 532 258 529 b 253 493 254 517 249 499 b 261 490 254 492 258 490 b 300 504 274 492 286 497 b 336 518 313 510 324 515 l 343 518 b 360 517 349 518 354 518 l 365 517 b 371 515 368 515 369 515 l 376 515 b 389 511 381 515 385 515 b 397 499 394 508 397 503 b 386 475 397 489 393 482 b 381 468 385 472 383 471 b 361 449 375 461 369 453 b 347 443 356 444 351 444 b 342 442 344 443 343 443 b 319 432 333 440 328 436 b 290 419 310 426 300 422 l 278 415 l 261 407 b 247 400 257 404 251 401 l 246 399 b 233 392 240 397 236 396 b 226 374 229 388 228 381 b 225 367 225 371 225 369 l 224 363 b 218 343 221 356 219 350 b 203 271 214 319 210 296 l 199 254 b 193 233 196 247 194 239 b 214 89 189 186 214 135 b 182 19 214 64 207 40 b 122 0 165 10 143 0 b 88 14 110 0 97 4 "},"g":{"ha":461,"x_min":0,"x_max":0,"o":"m 146 -300 b 46 -258 100 -299 68 -283 b 29 -229 39 -250 33 -240 b 7 -132 14 -199 7 -165 b 38 -14 7 -92 18 -51 b 132 32 58 17 94 32 b 179 -26 163 32 179 3 b 174 -56 179 -36 178 -46 b 74 -183 153 -96 74 -139 b 99 -222 74 -196 81 -210 b 129 -236 108 -228 118 -232 b 138 -237 132 -237 135 -237 b 167 -226 147 -237 157 -233 b 201 -196 176 -219 189 -208 b 282 24 257 -140 278 -56 l 283 38 b 279 64 283 46 282 56 b 275 100 278 75 278 90 b 271 106 274 104 272 106 b 249 88 261 106 254 94 b 192 53 233 64 214 53 b 178 54 188 53 182 53 b 93 117 142 63 93 75 b 96 136 93 122 94 129 l 110 176 b 160 258 121 207 138 235 l 224 319 b 278 357 240 333 257 349 b 331 401 301 367 318 376 b 397 457 346 428 367 457 b 418 453 404 457 411 456 b 454 388 443 440 454 414 b 411 283 454 346 432 314 b 353 113 368 232 353 175 b 354 72 353 99 353 86 b 358 3 357 47 361 25 b 325 -118 353 -40 339 -78 b 278 -211 313 -150 299 -182 b 207 -275 260 -237 235 -260 b 146 -300 188 -286 168 -300 m 183 110 b 189 108 186 108 188 108 b 206 117 196 108 200 111 b 222 135 211 122 217 131 l 283 228 b 301 254 289 238 296 244 b 336 321 317 275 326 297 b 339 340 339 328 340 335 l 339 342 b 332 346 338 346 335 346 b 321 342 328 346 324 344 b 268 304 303 329 285 318 b 185 183 235 268 204 229 b 176 154 181 174 178 164 b 176 125 175 144 176 135 b 183 110 176 119 178 111 "},"h":{"ha":381,"x_min":0,"x_max":0,"o":"m 289 6 b 282 4 286 6 285 4 b 250 17 271 4 260 10 b 229 97 236 42 229 68 b 260 207 229 135 240 172 b 278 242 267 218 272 229 b 294 276 285 253 289 265 l 299 294 b 307 325 303 304 306 315 l 308 332 b 314 382 311 349 314 367 b 315 400 314 386 315 393 b 311 417 315 408 314 415 l 310 417 b 296 407 308 417 304 415 b 288 390 292 404 289 397 b 279 374 285 385 282 378 l 256 332 l 254 328 b 236 294 249 317 243 306 l 219 264 b 194 238 210 256 201 247 b 178 214 186 229 182 222 b 107 11 138 151 169 63 b 74 0 97 4 85 0 b 7 67 39 0 7 28 b 93 275 7 146 81 201 l 97 300 b 100 331 99 310 100 319 b 106 369 103 344 104 357 l 107 382 l 146 485 l 149 492 b 154 507 150 497 151 501 l 188 596 b 221 717 201 636 211 679 b 224 732 222 721 222 726 b 225 746 224 736 224 742 b 225 769 226 754 226 763 b 236 814 225 785 225 799 b 288 843 250 832 269 843 b 301 840 292 843 297 842 b 321 824 310 838 317 832 b 325 807 324 819 325 813 b 322 796 325 803 324 800 b 308 758 318 783 314 771 b 301 739 307 751 304 746 b 271 658 294 711 282 685 b 249 603 263 640 256 621 l 238 565 b 232 546 236 558 235 553 l 225 515 b 218 483 224 504 221 493 b 207 451 215 472 211 461 b 200 428 204 443 201 436 b 194 414 197 422 196 418 b 188 390 192 406 189 399 b 181 360 185 381 182 369 l 175 332 l 175 331 b 174 325 174 329 174 326 l 213 383 b 222 403 217 390 219 397 b 231 419 225 408 228 415 l 235 428 b 268 483 246 447 256 467 b 275 493 271 486 272 489 b 303 519 282 504 289 515 b 319 522 308 521 314 522 b 344 515 329 522 338 519 b 367 485 356 508 364 497 b 374 422 372 463 374 443 b 371 367 374 404 372 386 l 371 354 b 356 269 369 326 363 300 b 350 240 354 258 353 250 b 340 189 343 225 340 207 b 347 86 340 156 347 118 b 289 6 347 49 338 17 "},"i":{"ha":235,"x_min":0,"x_max":0,"o":"m 126 29 b 82 0 117 8 100 0 b 11 56 53 0 21 24 b 7 93 8 68 7 81 b 92 272 7 161 50 222 b 93 274 93 272 93 274 b 107 297 97 281 103 289 b 122 339 113 311 118 325 b 128 381 126 351 128 365 l 128 406 b 131 433 128 414 128 424 b 158 500 136 457 143 481 b 196 518 168 513 182 518 b 226 490 213 518 224 508 b 228 478 228 486 228 482 b 222 449 228 467 225 457 l 218 436 b 214 400 215 425 214 413 b 215 374 214 392 214 382 b 218 344 217 365 218 356 b 213 310 218 333 217 321 l 213 308 b 203 292 210 303 207 297 l 200 289 b 126 29 132 222 174 113 m 182 583 b 150 607 167 583 156 593 b 147 624 149 613 147 618 b 176 681 147 647 161 668 b 197 693 183 686 190 689 l 206 701 b 238 717 214 711 225 717 b 264 707 246 717 256 714 b 281 676 274 699 279 689 l 281 657 b 279 649 281 654 279 651 b 272 640 279 642 279 643 l 267 636 l 242 614 b 225 599 236 608 231 603 b 185 583 213 592 199 585 l 182 583 "},"j":{"ha":406,"x_min":0,"x_max":0,"o":"m 221 -133 b 160 -153 201 -147 181 -153 b 43 -101 117 -153 75 -131 b 7 -22 18 -79 7 -51 b 47 83 7 15 24 53 b 68 107 53 93 60 100 b 142 132 88 122 113 132 b 164 131 149 132 157 132 b 203 88 190 126 201 108 b 197 56 203 76 201 65 b 131 4 183 29 147 29 b 133 -14 131 4 131 -4 b 158 -32 142 -28 150 -32 b 183 -24 167 -32 175 -26 b 218 47 204 -8 204 29 l 232 82 b 258 154 246 117 257 149 b 269 197 261 169 265 183 l 274 213 b 285 283 279 236 282 260 l 289 310 l 289 311 b 311 388 289 313 303 364 l 315 404 b 322 442 319 415 321 429 l 322 454 b 322 476 321 461 319 469 b 342 506 325 489 328 500 b 360 510 347 508 353 510 b 371 508 363 510 367 510 b 399 463 389 500 399 485 b 386 389 399 440 392 413 l 376 354 b 363 301 371 336 365 319 b 357 254 360 285 360 269 b 349 181 356 229 353 204 b 329 115 343 158 336 136 l 294 15 b 281 -18 289 4 285 -7 l 267 -51 b 221 -133 257 -81 246 -112 m 356 549 b 319 582 339 549 325 563 b 317 606 319 590 317 597 b 349 688 317 640 333 671 b 375 706 358 694 365 700 l 383 718 b 419 739 392 732 406 739 b 450 725 431 739 442 735 b 469 681 463 714 468 700 l 469 654 b 468 642 469 649 468 646 b 461 631 468 632 468 633 l 454 625 l 425 593 b 406 569 419 585 411 576 b 360 549 390 560 376 550 l 356 549 "},"k":{"ha":526,"x_min":0,"x_max":0,"o":"m 71 1 b 7 60 39 13 13 28 b 60 153 3 101 44 122 b 118 269 86 185 101 226 l 132 306 l 143 349 b 156 394 147 364 150 379 b 171 476 163 421 167 449 b 189 567 175 507 179 536 l 228 696 l 265 821 b 283 893 268 844 275 871 l 283 894 b 328 939 290 911 300 939 l 331 939 b 354 921 344 935 351 928 b 358 904 357 915 358 910 b 343 857 358 889 349 871 l 342 854 b 322 803 333 833 328 821 l 310 757 l 297 708 l 275 646 l 247 571 b 232 450 238 533 235 492 l 228 404 l 228 396 b 233 404 229 399 232 401 b 281 457 247 424 264 440 b 292 469 283 461 288 465 b 350 542 311 496 329 519 l 375 574 b 408 615 386 586 399 601 b 418 628 413 619 415 624 b 468 676 432 644 447 664 l 471 676 b 483 679 475 678 479 679 b 507 665 493 679 501 674 b 514 646 511 660 514 653 b 504 619 514 636 510 626 l 468 579 b 426 532 454 564 439 549 l 404 503 b 367 453 392 486 378 469 b 350 425 360 444 356 435 b 332 394 344 415 339 404 l 321 376 b 296 326 313 364 293 335 b 306 322 297 325 300 324 b 394 299 336 310 374 325 b 488 236 419 268 446 247 b 519 193 504 233 519 213 b 504 164 519 182 515 171 b 424 138 481 149 450 138 b 374 158 404 138 386 143 b 279 232 340 194 321 232 b 260 229 272 232 267 231 b 218 240 246 231 232 235 b 194 258 210 244 201 250 b 149 28 154 185 181 101 b 92 0 138 7 115 0 b 71 1 85 0 78 0 "},"l":{"ha":297,"x_min":0,"x_max":0,"o":"m 43 0 b 11 42 28 0 14 21 b 7 79 8 54 7 68 b 79 294 7 157 57 221 l 81 301 l 93 338 l 99 354 l 103 361 l 103 364 l 104 365 b 110 392 104 375 107 383 b 113 403 111 396 113 399 l 124 436 b 129 447 125 440 126 444 l 133 456 l 138 475 b 140 483 139 478 139 481 l 151 531 b 153 533 151 532 151 532 l 161 576 l 161 578 b 164 588 161 581 163 583 b 171 604 168 592 169 597 l 175 615 l 179 635 b 182 644 181 638 181 640 l 186 660 l 189 674 l 189 676 l 190 678 b 201 718 192 692 196 706 b 207 736 203 725 204 731 l 207 740 b 210 747 208 743 210 744 b 211 765 210 753 210 758 l 211 781 b 214 792 213 785 213 789 l 214 794 b 215 800 214 797 215 799 b 217 808 215 803 217 806 b 218 814 217 810 217 813 b 219 822 218 817 218 819 b 256 853 222 840 236 853 b 289 826 271 853 283 843 b 290 807 290 819 290 814 b 283 769 290 793 288 781 b 279 744 281 763 279 754 b 274 711 278 733 278 722 b 257 667 271 697 265 685 b 249 639 253 657 249 649 b 246 626 249 635 247 629 l 244 622 b 236 583 240 610 236 597 b 233 572 235 579 233 575 b 232 568 232 571 232 569 b 226 553 231 564 228 558 l 217 519 l 213 504 b 211 493 213 501 211 497 b 208 483 210 490 208 488 b 206 479 207 482 207 481 b 204 471 206 476 204 474 b 201 460 203 468 201 464 b 196 443 199 454 197 449 l 194 440 b 193 438 194 439 193 438 l 193 436 b 190 425 192 432 192 428 l 186 408 b 183 400 186 406 185 403 l 182 399 b 181 394 182 397 181 396 b 178 386 179 392 178 389 b 172 365 176 379 175 372 b 171 356 172 363 172 358 b 169 350 171 354 169 351 b 163 325 165 342 164 333 b 160 315 161 322 161 318 b 157 304 160 311 158 308 b 154 297 157 303 156 300 b 151 283 154 292 153 288 b 57 6 121 188 157 63 b 43 0 53 1 47 0 "},"m":{"ha":756,"x_min":0,"x_max":0,"o":"m 660 1 b 639 0 653 0 646 0 b 574 68 590 0 574 29 b 632 257 574 128 613 213 l 638 281 b 644 304 639 289 642 297 l 653 343 b 656 368 654 350 658 365 b 647 371 656 369 653 371 b 638 369 644 369 642 369 b 621 367 632 369 625 368 b 589 351 610 364 600 357 b 572 342 583 349 578 346 b 544 321 563 338 553 329 l 531 308 b 510 289 524 300 517 294 b 507 288 508 289 508 288 b 492 269 501 281 497 275 b 446 204 475 249 458 226 l 446 203 b 414 168 439 190 429 176 l 413 168 b 371 158 400 163 386 158 b 329 174 356 158 342 163 b 296 282 293 203 293 247 l 296 286 b 297 307 297 293 297 300 b 294 304 296 307 296 306 b 282 297 290 301 286 299 b 260 278 274 290 265 285 l 258 278 l 246 265 b 215 232 235 254 224 244 l 215 231 l 207 221 b 194 203 201 214 197 208 l 194 201 b 171 163 188 186 179 174 l 164 150 b 143 117 158 139 151 128 l 143 115 b 125 83 136 104 129 93 b 119 69 122 79 121 75 b 92 24 113 54 106 36 b 90 22 92 22 92 22 b 60 11 82 14 71 11 b 49 13 57 11 53 11 b 11 47 32 17 18 29 b 7 67 8 54 7 60 b 15 103 7 81 11 93 l 17 106 b 47 213 29 144 39 178 b 53 226 49 218 51 222 l 54 229 l 61 250 b 67 269 63 256 64 263 b 74 285 68 275 71 281 b 81 299 76 290 79 294 l 82 300 b 94 329 85 310 90 319 b 106 354 99 338 103 346 b 111 376 108 361 110 368 b 117 401 113 383 114 393 b 119 422 118 407 119 415 b 128 461 121 435 121 449 b 181 486 139 479 160 489 b 219 461 197 485 211 476 b 226 435 224 453 226 443 b 219 407 226 425 224 415 b 197 383 214 396 206 389 b 185 369 192 378 186 375 b 160 301 175 350 168 328 l 160 299 b 151 285 157 294 154 290 b 142 263 147 278 143 271 l 142 261 l 132 240 b 122 218 128 233 125 225 l 122 217 b 119 201 121 213 119 207 b 117 186 118 196 117 190 l 121 196 b 126 210 122 201 125 206 b 139 229 131 218 135 224 b 146 239 142 232 143 236 b 178 286 153 258 167 274 b 189 300 182 290 185 296 b 210 329 194 310 201 319 l 224 342 b 232 349 226 344 231 346 l 260 378 b 278 397 265 385 272 392 b 344 439 301 425 324 439 b 371 429 353 439 363 435 b 396 365 392 413 396 385 l 396 363 b 389 338 394 354 392 346 l 383 319 l 383 317 b 376 276 379 306 376 289 b 379 260 376 268 378 263 l 382 260 b 419 296 397 267 410 282 l 450 326 l 453 328 l 468 344 b 482 361 472 350 476 356 l 483 361 b 554 415 504 379 528 399 l 556 417 b 565 419 560 418 563 419 l 578 425 l 579 426 l 582 428 b 633 453 597 438 614 447 l 647 453 b 679 451 658 453 668 453 b 681 450 679 451 681 451 b 735 422 700 446 719 436 b 736 421 735 422 735 421 b 747 389 744 411 746 399 b 749 383 747 386 747 385 b 733 335 751 364 742 347 b 724 311 729 326 724 318 b 722 310 724 310 724 310 b 717 293 721 304 719 299 b 711 267 714 285 713 276 b 707 242 711 258 710 250 b 706 217 706 233 706 225 b 719 76 706 172 719 119 b 660 1 719 36 707 6 "},"n":{"ha":454,"x_min":0,"x_max":0,"o":"m 64 0 b 10 40 39 1 17 17 b 22 113 3 65 13 90 l 31 133 b 39 163 32 143 36 153 b 47 190 42 171 46 181 b 56 246 51 208 54 228 b 68 314 58 268 61 292 b 82 347 72 325 76 336 b 89 364 83 353 86 358 b 100 386 92 372 96 379 b 113 408 104 393 110 401 b 118 426 115 414 117 421 l 121 438 b 131 472 125 449 128 460 b 144 519 135 488 139 504 l 144 521 b 178 535 158 538 171 538 b 200 500 189 532 199 518 b 172 429 197 472 185 451 l 157 403 b 135 343 147 385 140 365 b 132 332 135 339 133 336 b 128 278 126 314 121 294 b 135 271 131 274 132 271 b 160 288 139 271 147 272 b 207 333 176 306 192 321 l 218 346 b 239 365 224 353 231 360 b 394 415 296 399 343 414 b 443 371 419 417 440 397 b 436 340 443 360 440 350 l 435 339 l 425 307 l 421 293 b 414 264 418 283 415 274 b 418 179 411 232 413 206 b 438 114 421 160 425 136 b 424 31 457 76 444 44 b 383 22 411 22 397 19 b 342 60 367 26 351 40 b 338 110 333 76 335 93 b 339 122 338 114 339 118 b 339 161 340 135 339 149 l 338 190 b 349 275 339 215 343 243 l 357 319 l 357 321 b 354 333 358 328 358 332 b 272 310 328 340 293 325 b 239 282 258 300 249 292 l 226 269 b 213 260 222 265 218 263 b 194 243 206 254 200 250 b 156 186 182 229 167 210 b 144 133 149 171 146 154 b 146 113 144 126 144 119 b 146 79 147 101 147 90 b 68 0 139 39 113 0 l 64 0 "},"o":{"ha":317,"x_min":0,"x_max":0,"o":"m 111 4 b 88 0 104 1 96 0 b 50 8 75 0 63 3 b 7 93 17 24 7 58 b 13 143 7 110 10 128 b 18 197 14 163 18 179 b 26 250 18 215 21 233 b 57 318 33 274 47 296 b 94 378 64 342 81 358 b 117 435 106 394 104 418 b 156 464 126 447 142 456 b 200 489 169 474 182 489 b 242 472 215 489 229 481 b 281 431 258 463 269 446 b 310 367 293 410 307 389 l 310 365 b 301 313 311 347 310 329 l 288 283 b 231 131 271 231 254 179 b 111 4 211 64 172 31 m 75 101 b 90 89 76 92 82 89 b 125 106 103 89 119 99 b 203 225 161 139 189 179 b 226 303 208 251 221 276 l 226 304 b 229 336 228 310 229 324 b 219 360 229 349 228 360 b 204 331 211 353 213 339 b 193 324 201 328 197 326 b 172 319 188 322 179 319 b 138 332 157 319 147 332 b 125 324 133 332 129 329 b 88 240 107 300 97 269 b 76 203 83 228 78 217 b 74 149 74 185 71 167 b 75 101 75 133 72 117 "},"ø":{"ha":457,"x_min":0,"x_max":0,"o":"m 18 -28 b 7 -6 10 -22 7 -14 b 43 79 7 21 38 57 b 51 122 49 93 50 107 b 61 218 54 154 60 186 b 93 343 64 261 72 304 b 153 453 110 382 128 419 b 244 575 188 518 175 528 b 294 594 261 589 278 594 b 351 572 314 594 332 586 b 375 561 358 567 365 561 b 417 592 393 563 400 583 b 429 596 421 594 425 596 b 450 571 442 596 451 585 l 450 569 b 421 492 444 543 421 518 b 429 426 421 471 429 449 b 418 376 429 408 424 392 b 340 169 389 308 369 236 b 210 4 314 96 283 42 b 150 -14 185 -10 167 -14 b 88 0 122 -14 104 0 b 72 -4 82 0 78 -1 b 31 -32 61 -12 46 -32 b 18 -28 26 -32 22 -31 m 143 100 b 194 115 153 90 183 104 l 196 115 b 296 268 242 156 278 210 l 319 339 b 322 354 321 344 322 350 b 321 357 322 356 322 357 b 311 347 319 357 317 354 l 228 242 b 165 150 207 211 188 179 b 143 100 157 136 133 115 m 254 360 b 265 382 257 367 265 375 b 235 400 265 390 251 396 b 222 401 231 401 226 401 b 204 396 215 401 210 400 b 149 285 175 368 163 321 l 149 283 b 142 206 144 275 117 179 l 254 360 "},"Œ":{"ha":614,"x_min":0,"x_max":0,"o":"m 104 4 b 81 0 97 1 89 0 b 43 8 68 0 56 3 b 0 90 10 22 0 57 b 6 143 0 108 3 128 b 11 197 7 161 11 179 b 19 249 11 215 14 232 b 50 318 26 274 40 294 b 88 378 57 342 74 358 b 110 433 99 394 97 417 b 149 464 119 447 135 454 b 193 489 163 474 175 489 b 235 472 208 489 222 481 b 274 431 251 461 263 446 b 303 365 286 410 300 389 b 304 356 304 361 304 358 b 313 369 307 360 310 364 b 314 371 313 369 314 369 b 339 389 322 379 331 383 l 357 399 l 368 406 l 396 424 b 449 450 413 433 431 442 b 486 468 461 456 474 461 b 544 489 507 479 526 489 b 563 485 550 489 557 488 b 596 438 578 479 589 463 b 597 426 597 433 597 431 b 582 389 597 413 592 400 b 510 333 563 368 539 349 b 442 286 485 318 464 303 b 428 275 438 283 432 279 l 426 275 b 407 265 421 271 414 268 b 390 257 401 263 396 261 l 389 257 b 365 240 381 253 374 247 b 347 226 360 236 354 231 l 346 226 b 315 207 335 221 325 214 l 304 199 b 278 167 288 188 279 178 b 288 101 276 144 275 121 b 315 99 293 96 306 97 b 361 108 331 104 346 107 b 436 142 390 117 415 128 l 438 142 b 481 174 453 150 465 161 l 482 175 b 513 201 493 182 503 190 b 528 217 517 207 522 213 b 560 228 538 225 549 228 b 579 225 567 228 574 226 b 607 189 596 222 606 208 b 600 167 607 179 604 172 b 586 158 596 163 590 160 b 582 157 585 158 582 157 b 536 119 569 128 557 124 b 518 114 531 118 525 117 l 499 103 l 468 86 b 457 79 464 85 461 82 b 439 67 451 75 446 69 b 342 42 408 54 376 46 b 314 36 332 39 322 38 b 285 32 303 33 293 32 b 225 76 265 32 250 42 l 225 78 b 219 99 221 85 221 93 l 219 107 b 218 113 219 108 218 111 b 104 4 197 58 160 28 m 68 101 b 83 88 69 92 75 88 b 118 106 96 88 113 99 b 178 181 142 126 163 153 b 168 193 174 185 171 189 b 160 217 163 200 160 208 b 163 232 160 222 160 228 b 176 249 167 239 172 243 b 183 256 179 250 182 253 b 208 268 190 265 200 269 b 219 303 213 279 217 292 l 219 304 b 222 336 221 310 222 324 b 213 358 222 349 221 360 b 197 331 204 353 206 338 b 186 324 194 328 190 325 b 165 319 181 322 172 319 b 153 322 161 319 157 321 b 132 332 144 326 138 332 b 118 324 128 332 124 329 b 81 240 100 299 89 268 b 69 203 76 228 71 215 b 67 149 67 185 64 167 b 68 101 68 132 65 117 m 310 286 b 340 301 318 292 329 297 b 347 306 342 303 344 304 b 367 314 353 308 358 313 l 369 315 b 385 321 375 317 381 318 b 400 332 390 326 394 329 b 410 338 404 333 407 336 b 436 356 418 344 428 350 b 471 381 449 363 461 369 l 499 403 b 522 421 507 408 515 414 b 528 429 525 424 526 428 b 517 426 525 429 518 428 l 514 425 b 457 400 494 418 475 408 b 410 378 442 392 425 385 b 400 372 406 376 406 376 b 382 358 394 368 389 363 b 357 338 372 350 363 343 b 342 324 353 335 347 329 b 318 301 332 315 322 307 l 310 286 "},"œ":{"ha":614,"x_min":0,"x_max":0,"o":"m 104 4 b 218 113 160 28 197 58 b 219 107 218 111 219 108 l 219 99 b 225 78 221 93 221 85 l 225 76 b 285 32 250 42 265 32 b 314 36 293 32 303 33 b 342 42 322 38 332 39 b 439 67 376 46 408 54 b 457 79 446 69 451 75 b 468 86 461 82 464 85 l 499 103 l 518 114 b 536 119 525 117 531 118 b 582 157 557 124 569 128 b 586 158 582 157 585 158 b 600 167 590 160 596 163 b 607 189 604 172 607 179 b 579 225 606 208 596 222 b 560 228 574 226 567 228 b 528 217 549 228 538 225 b 513 201 522 213 517 207 b 482 175 503 190 493 182 l 481 174 b 438 142 465 161 453 150 l 436 142 b 361 108 415 128 390 117 b 315 99 346 107 331 104 b 288 101 306 97 293 96 b 278 167 275 121 276 144 b 304 199 279 178 288 188 l 315 207 b 346 226 325 214 335 221 l 347 226 b 365 240 354 231 360 236 b 389 257 374 247 381 253 l 390 257 b 407 265 396 261 401 263 b 426 275 414 268 421 271 l 428 275 b 442 286 432 279 438 283 b 510 333 464 303 485 318 b 582 389 539 349 563 368 b 597 426 592 400 597 413 b 596 438 597 431 597 433 b 563 485 589 463 578 479 b 544 489 557 488 550 489 b 486 468 526 489 507 479 b 449 450 474 461 461 456 b 396 424 431 442 413 433 l 368 406 l 357 399 l 339 389 b 314 371 331 383 322 379 b 313 369 314 369 313 369 b 304 356 310 364 307 360 b 303 365 304 358 304 361 b 274 431 300 389 286 410 b 235 472 263 446 251 461 b 193 489 222 481 208 489 b 149 464 175 489 163 474 b 110 433 135 454 119 447 b 88 378 97 417 99 394 b 50 318 74 358 57 342 b 19 249 40 294 26 274 b 11 197 14 232 11 215 b 6 143 11 179 7 161 b 0 90 3 128 0 108 b 43 8 0 57 10 22 b 81 0 56 3 68 0 b 104 4 89 0 97 1 m 68 101 b 67 149 65 117 68 132 b 69 203 64 167 67 185 b 81 240 71 215 76 228 b 118 324 89 268 100 299 b 132 332 124 329 128 332 b 153 322 138 332 144 326 b 165 319 157 321 161 319 b 186 324 172 319 181 322 b 197 331 190 325 194 328 b 213 358 206 338 204 353 b 222 336 221 360 222 349 b 219 304 222 324 221 310 l 219 303 b 208 268 217 292 213 279 b 183 256 200 269 190 265 b 176 249 182 253 179 250 b 163 232 172 243 167 239 b 160 217 160 228 160 222 b 168 193 160 208 163 200 b 178 181 171 189 174 185 b 118 106 163 153 142 126 b 83 88 113 99 96 88 b 68 101 75 88 69 92 m 310 286 l 318 301 b 342 324 322 307 332 315 b 357 338 347 329 353 335 b 382 358 363 343 372 350 b 400 372 389 363 394 368 b 410 378 406 376 406 376 b 457 400 425 385 442 392 b 514 425 475 408 494 418 l 517 426 b 528 429 518 428 525 429 b 522 421 526 428 525 424 b 499 403 515 414 507 408 l 471 381 b 436 356 461 369 449 363 b 410 338 428 350 418 344 b 400 332 407 336 404 333 b 385 321 394 329 390 326 b 369 315 381 318 375 317 l 367 314 b 347 306 358 313 353 308 b 340 301 344 304 342 303 b 310 286 329 297 318 292 "},"p":{"ha":513,"x_min":0,"x_max":0,"o":"m 82 -396 b 7 -324 26 -385 7 -358 b 103 -83 7 -254 85 -153 b 111 -51 104 -74 108 -62 b 113 -40 113 -47 113 -44 b 106 -22 113 -33 111 -28 b 54 26 89 -6 54 -1 b 92 74 54 47 72 74 b 126 64 103 74 118 64 b 135 75 131 64 135 67 l 135 78 b 131 106 135 86 131 97 b 158 149 131 121 150 135 b 178 210 169 168 172 189 b 208 317 186 246 190 285 b 260 385 224 340 240 365 b 306 414 274 397 290 404 b 381 456 329 431 354 449 l 382 456 b 422 463 394 458 408 463 b 506 381 464 463 506 424 b 463 281 506 342 478 315 b 436 213 453 258 447 235 l 408 158 b 364 110 399 140 382 122 b 251 43 326 89 281 76 b 233 17 244 35 239 26 b 207 -26 225 3 214 -11 b 185 -131 194 -60 196 -97 b 178 -168 179 -146 179 -156 b 82 -396 171 -254 165 -411 m 225 108 b 229 107 226 107 228 107 b 247 115 236 107 243 113 b 313 151 269 128 289 143 b 386 253 365 168 374 203 b 419 338 394 282 408 310 b 424 361 422 346 424 353 b 401 388 424 381 414 388 b 360 371 388 388 369 379 b 326 338 347 361 336 350 b 249 218 297 300 271 260 b 226 146 239 194 233 169 b 221 119 225 139 221 128 b 225 108 221 115 222 111 "},"q":{"ha":524,"x_min":0,"x_max":0,"o":"m 281 -285 b 236 -267 265 -279 250 -275 b 206 -233 224 -257 214 -247 b 185 -168 190 -214 186 -193 b 182 -128 182 -154 182 -140 l 181 -106 b 183 -85 181 -99 182 -92 b 185 -65 185 -78 185 -72 b 215 25 185 -37 203 -1 b 250 101 226 53 240 75 b 272 160 257 121 267 140 b 274 164 272 163 274 164 b 272 167 274 165 274 167 b 261 157 269 167 264 160 b 203 65 243 126 222 96 b 154 14 186 49 174 28 b 119 7 144 7 132 11 b 90 3 110 4 100 3 b 60 6 81 3 71 4 b 8 68 26 13 17 39 b 7 76 8 71 7 74 b 10 88 7 81 8 85 b 28 132 15 103 19 118 b 58 185 36 150 49 167 b 93 240 68 204 83 219 b 129 310 103 265 114 288 l 143 336 b 169 368 150 349 161 358 b 192 388 175 376 183 382 b 254 421 211 401 233 410 b 319 467 278 433 299 450 b 344 489 329 472 335 482 b 375 501 353 496 364 501 b 390 497 379 501 385 500 b 400 467 400 492 403 479 b 397 444 397 460 390 451 b 438 392 413 428 431 414 b 442 369 440 383 442 376 b 400 281 442 336 417 310 b 356 185 383 249 369 218 b 338 135 349 168 346 150 b 307 79 329 115 317 99 b 301 57 303 72 303 64 b 282 11 296 40 286 26 b 267 -28 278 -3 272 -15 b 256 -61 261 -37 257 -50 b 250 -112 253 -78 250 -96 b 251 -133 250 -119 250 -126 b 268 -169 253 -149 260 -158 b 282 -176 272 -174 276 -176 b 300 -171 288 -176 294 -174 b 446 -22 354 -125 396 -67 b 467 -19 454 -21 461 -19 b 488 -24 475 -19 482 -21 b 517 -92 508 -47 517 -69 b 381 -249 517 -158 435 -214 b 365 -258 376 -251 372 -253 b 281 -285 339 -274 311 -283 m 118 124 b 151 165 129 136 140 151 b 194 207 167 178 181 192 b 204 221 197 211 201 215 b 240 269 215 238 228 253 b 264 290 247 278 257 283 l 264 292 b 335 399 292 325 313 361 b 335 418 338 404 342 414 b 288 396 317 415 304 403 b 258 388 278 392 268 392 b 240 374 251 383 247 378 b 208 346 228 365 217 357 b 179 306 197 333 186 321 b 169 290 176 300 174 296 b 150 228 160 271 156 249 b 139 193 147 215 140 204 b 108 125 133 168 117 147 b 106 118 107 122 106 119 b 107 115 106 117 107 115 b 118 124 110 115 115 119 "},"r":{"ha":458,"x_min":0,"x_max":0,"o":"m 122 15 b 79 0 110 4 94 0 b 7 72 42 0 7 31 b 94 271 7 150 65 208 l 94 272 l 107 299 b 121 331 111 308 115 321 l 122 332 b 151 400 135 354 143 379 l 169 458 b 213 565 181 494 192 532 b 240 581 219 575 231 581 b 267 550 256 581 267 567 l 265 550 b 257 514 264 538 261 525 b 250 492 254 507 251 499 l 250 490 l 238 449 l 214 365 l 213 364 b 201 338 210 356 206 347 b 286 439 225 376 257 408 b 303 454 292 444 297 450 b 335 489 313 467 324 478 b 349 501 339 493 343 497 b 383 528 358 511 369 521 b 410 533 392 532 401 533 b 431 528 417 533 424 532 b 451 486 443 519 451 506 b 426 381 453 481 442 393 b 417 367 422 378 419 372 b 401 346 413 360 408 351 b 378 336 396 340 386 336 b 340 358 360 336 347 344 b 338 396 335 371 336 385 b 285 339 317 378 300 360 l 272 324 b 239 274 260 308 247 292 b 222 243 235 263 229 253 l 214 228 b 122 15 164 167 190 72 "},"s":{"ha":417,"x_min":0,"x_max":0,"o":"m 29 25 b 7 65 14 36 7 50 b 24 104 7 79 14 94 b 82 135 40 119 61 129 b 196 121 117 135 157 121 b 267 143 219 121 244 126 b 294 168 276 149 286 157 l 299 172 b 310 203 313 188 315 193 b 275 219 303 215 290 219 b 233 214 263 219 249 217 l 231 214 b 138 210 206 215 169 210 b 54 263 99 210 64 218 l 54 269 b 60 304 54 282 57 293 b 75 342 64 318 69 331 l 85 368 l 88 371 b 169 461 110 404 136 433 b 172 463 169 461 171 463 b 246 490 197 474 222 483 b 272 500 254 494 263 497 l 293 510 b 335 526 304 517 318 524 b 410 468 372 532 400 510 l 410 463 b 369 381 407 428 388 404 l 368 378 b 354 354 361 371 358 363 b 331 317 349 342 343 328 b 292 301 319 306 306 300 b 253 321 276 301 263 308 b 242 350 244 329 242 339 b 256 381 242 361 246 372 b 283 396 265 389 275 392 b 300 404 292 399 297 400 b 308 418 306 411 306 413 b 311 428 308 419 310 424 b 314 443 313 431 314 438 b 303 438 310 442 306 439 b 294 432 300 435 297 433 b 243 411 276 424 258 418 l 219 403 b 186 383 206 397 194 393 b 140 294 160 356 144 329 b 186 276 153 282 168 276 b 231 282 200 276 214 279 l 268 286 l 271 286 b 354 257 301 283 332 279 b 385 200 363 249 385 228 b 383 188 385 196 385 192 b 347 135 378 163 363 149 b 328 115 340 129 333 122 b 326 113 328 114 326 113 b 289 83 315 103 303 93 l 274 71 b 110 0 224 36 169 0 b 29 25 83 0 57 7 "},"t":{"ha":488,"x_min":0,"x_max":0,"o":"m 49 3 b 7 49 25 7 7 25 b 13 71 7 56 8 63 b 121 243 43 128 90 181 l 129 264 b 153 338 136 289 143 313 l 157 353 b 167 383 160 363 161 374 b 168 389 167 385 168 386 b 174 401 171 393 172 397 b 193 453 179 419 186 436 b 208 493 199 465 204 479 b 215 517 211 501 214 508 b 226 550 219 528 224 539 b 219 546 225 549 222 547 b 158 493 196 535 178 514 b 131 463 150 482 140 472 b 90 444 119 451 104 444 b 78 446 86 444 82 444 b 56 468 67 450 60 457 b 54 479 54 471 54 475 b 63 503 54 488 57 496 b 92 528 69 514 82 521 b 106 535 97 531 101 532 l 154 575 b 219 621 175 593 199 607 l 221 621 b 256 689 251 638 253 651 b 317 849 261 740 272 806 l 318 849 b 338 856 324 853 331 856 b 350 853 342 856 346 854 b 368 829 360 849 367 839 l 368 828 b 347 778 368 807 357 792 b 335 758 342 771 338 765 l 333 757 b 321 710 325 743 322 726 l 319 704 b 318 694 319 701 318 697 l 317 678 b 319 679 318 678 319 679 l 321 681 b 356 700 332 688 342 696 b 390 710 367 706 379 708 b 422 718 403 713 413 714 l 424 718 b 431 722 425 719 428 721 b 469 729 442 728 457 736 b 481 713 472 728 479 722 l 481 707 b 404 647 472 676 432 660 l 400 646 b 340 603 376 638 358 621 l 339 603 b 325 593 335 599 329 596 b 313 583 319 590 315 588 b 290 519 301 564 296 543 b 279 476 288 506 285 490 l 261 426 l 257 417 l 253 406 l 240 368 b 233 338 236 360 235 349 b 226 303 232 326 231 315 l 217 281 b 201 243 211 268 206 256 b 188 165 206 217 189 190 b 183 140 186 157 183 149 b 71 0 175 78 136 0 b 49 3 64 0 57 0 "},"u":{"ha":510,"x_min":0,"x_max":0,"o":"m 99 0 b 64 6 88 0 75 1 l 64 7 b 10 75 38 19 18 46 b 7 100 8 83 7 92 b 24 172 7 126 15 150 l 40 214 b 47 239 43 224 46 231 b 147 446 53 311 71 446 b 175 440 156 446 165 444 b 206 399 197 432 206 417 b 143 268 206 360 165 303 l 129 249 b 100 194 117 232 101 215 l 90 172 l 82 149 b 75 118 78 139 74 128 b 100 85 78 100 86 90 b 117 82 106 83 111 82 b 256 149 161 82 229 122 b 274 168 263 154 268 161 b 296 193 281 176 288 185 b 315 221 303 201 310 211 l 329 242 l 329 243 b 357 307 350 267 358 275 b 365 403 356 335 356 369 b 371 458 371 419 372 438 b 396 514 371 479 381 501 b 426 525 406 521 415 525 b 438 524 429 525 433 525 b 472 499 453 519 463 508 b 475 494 474 497 474 496 l 479 490 b 500 460 488 482 496 472 b 503 446 501 456 503 450 b 474 404 503 428 492 411 l 460 400 b 440 392 451 397 446 396 b 424 344 428 381 425 357 b 417 292 424 326 421 310 l 415 286 b 376 200 410 258 397 231 b 340 150 365 182 353 165 b 325 131 335 143 329 138 b 317 117 322 126 319 122 b 293 85 310 106 304 93 b 213 38 267 63 236 49 b 186 26 204 35 194 31 b 99 0 158 14 129 0 "},"v":{"ha":432,"x_min":0,"x_max":0,"o":"m 7 38 b 36 124 4 69 28 94 b 50 221 46 157 47 188 b 85 332 57 260 74 293 b 90 375 89 346 90 360 b 88 406 90 385 90 394 b 71 447 86 419 74 432 b 117 504 65 478 88 499 l 131 506 b 154 501 139 506 147 504 b 182 476 165 496 175 489 b 185 465 183 472 185 469 b 182 453 185 461 183 457 b 171 431 179 446 174 438 b 161 392 167 418 165 404 b 133 315 153 367 140 342 b 121 278 131 301 126 290 b 94 172 106 243 100 208 b 101 157 94 167 94 158 b 114 165 106 157 110 160 b 136 194 122 174 131 185 b 181 268 151 219 168 243 b 221 339 193 293 208 315 l 242 376 l 253 400 b 349 571 282 456 265 556 b 361 572 353 572 357 572 b 422 529 390 572 418 557 b 374 435 428 493 401 456 b 350 424 367 429 357 426 b 285 346 313 410 303 372 b 271 321 282 338 276 329 b 256 296 267 313 261 304 l 211 204 b 150 106 193 169 168 140 b 124 40 139 85 135 61 b 60 0 107 15 82 0 b 7 38 40 0 21 11 "},"w":{"ha":667,"x_min":0,"x_max":0,"o":"m 7 38 b 36 124 4 69 28 94 b 50 221 46 157 47 188 b 85 332 57 260 74 293 b 90 375 89 346 90 360 b 88 406 90 385 90 394 b 69 457 86 422 69 436 b 117 504 69 482 90 499 l 131 506 b 154 501 139 506 147 504 b 182 476 165 496 175 489 b 185 465 183 472 185 469 b 182 453 185 461 183 457 b 171 431 179 446 174 438 b 161 392 167 418 165 404 b 133 315 153 367 140 342 b 121 278 131 301 126 290 b 94 172 106 243 100 208 b 101 157 94 167 94 158 b 114 165 106 157 110 160 b 136 194 122 174 131 185 b 181 268 151 219 168 243 b 221 339 193 293 208 315 l 242 376 l 253 400 b 349 571 282 456 265 556 b 361 572 353 572 357 572 b 424 519 393 572 424 553 b 401 461 424 499 414 479 l 397 449 b 369 372 389 424 376 399 b 357 335 367 358 363 347 b 331 229 342 300 336 265 b 338 214 331 224 331 215 b 350 222 342 214 346 217 b 372 251 358 231 367 242 b 417 325 388 276 404 300 b 457 396 429 350 444 372 l 478 433 l 489 457 b 585 628 518 513 501 613 b 597 629 589 629 593 629 b 660 576 629 629 660 610 b 610 492 660 543 635 511 b 586 481 603 486 593 483 b 521 403 549 467 539 429 b 507 378 518 394 513 386 b 492 353 503 369 497 361 l 447 261 b 386 163 429 226 404 197 b 360 97 375 142 371 118 b 296 57 343 72 318 57 b 243 94 276 57 257 68 b 272 181 240 126 264 151 b 286 278 282 214 283 244 b 321 389 293 317 310 350 l 325 408 b 285 346 307 390 299 365 b 271 321 282 338 276 329 b 256 296 267 313 261 304 l 211 204 b 150 106 193 169 168 140 b 124 40 139 85 135 61 b 60 0 107 15 82 0 b 7 38 40 0 21 11 "},"x":{"ha":464,"x_min":0,"x_max":0,"o":"m 274 0 b 211 35 246 -4 218 14 b 204 53 208 42 207 47 b 201 61 203 56 203 58 b 181 106 192 75 189 92 b 176 119 178 110 178 114 b 164 143 174 128 171 136 b 158 154 163 146 161 150 b 157 164 158 157 157 160 b 146 174 154 171 150 174 b 136 168 143 174 140 172 l 119 150 b 99 126 114 142 107 133 b 76 100 90 119 83 110 b 44 71 68 88 57 78 b 29 67 39 68 33 67 b 15 71 24 67 19 68 b 7 89 10 75 7 82 b 31 131 7 108 17 121 l 54 151 b 83 183 67 160 74 174 b 115 235 99 199 107 217 b 118 249 118 239 118 244 b 111 286 117 261 115 274 b 82 344 104 307 97 328 b 63 372 75 354 68 363 b 53 400 57 382 53 390 b 57 417 53 406 54 411 b 75 436 61 425 67 432 b 114 446 86 442 97 446 b 153 419 129 444 144 438 l 168 381 b 175 358 171 374 172 367 l 188 338 b 196 324 190 332 193 328 b 208 318 199 318 203 317 b 260 340 226 322 243 331 l 261 340 b 289 360 268 351 279 354 b 324 390 301 368 313 381 b 333 399 328 393 331 396 b 340 406 336 401 339 403 b 367 436 347 418 356 428 b 403 471 381 446 392 458 l 426 496 b 433 500 428 497 431 499 b 447 532 447 507 451 517 l 447 535 b 454 563 447 542 451 558 b 483 568 463 569 474 569 l 519 567 b 563 533 543 565 558 554 l 567 521 b 568 510 568 517 568 514 b 556 485 568 500 564 490 b 522 467 546 476 535 469 b 504 457 515 465 510 461 b 451 407 485 442 467 425 b 439 385 446 400 443 392 b 433 376 438 382 436 378 b 382 326 417 360 404 339 l 361 313 b 360 311 361 311 361 311 b 307 278 342 300 326 286 b 293 267 303 276 297 271 b 272 254 288 261 281 256 b 256 243 265 253 260 249 l 247 231 b 240 211 243 225 240 218 b 246 192 240 204 243 199 b 263 167 250 183 256 175 b 279 119 274 153 278 136 b 292 64 281 100 286 83 b 297 39 294 56 296 47 l 297 35 b 292 11 297 26 294 18 b 274 0 289 3 281 1 "},"y":{"ha":582,"x_min":0,"x_max":0,"o":"m 78 -278 b 63 -276 74 -278 68 -278 b 7 -219 31 -274 10 -251 b 18 -176 7 -203 13 -190 l 22 -165 b 54 -117 29 -149 38 -131 b 82 -81 65 -107 74 -96 l 83 -79 b 142 8 104 -51 124 -21 l 154 28 b 171 49 160 36 165 42 b 179 58 174 51 176 54 b 213 86 189 68 199 79 b 243 92 224 92 235 92 b 296 71 260 90 281 88 b 313 38 304 63 313 51 b 290 10 313 25 304 15 b 271 10 283 8 276 10 b 260 11 267 11 263 11 b 229 -3 247 8 236 4 b 193 -44 217 -15 204 -31 l 172 -71 b 156 -92 165 -78 161 -85 b 150 -100 154 -94 153 -97 l 138 -117 b 100 -182 122 -137 108 -158 b 99 -189 100 -185 99 -187 b 104 -190 100 -190 103 -190 b 143 -175 115 -190 133 -179 l 153 -169 l 244 -124 b 268 -114 253 -119 261 -117 l 290 -106 b 365 -18 314 -82 342 -53 b 397 29 375 -1 386 14 b 432 81 410 46 422 63 b 438 107 436 88 436 97 b 440 128 438 114 439 121 b 447 189 446 149 446 168 b 449 224 447 200 447 213 b 458 283 446 242 458 267 b 444 303 458 293 456 300 b 379 258 418 314 397 278 b 367 243 375 254 371 249 l 335 194 l 322 175 l 322 174 l 317 168 b 281 135 306 157 294 146 l 279 135 l 261 125 b 192 103 240 114 218 103 b 111 157 156 103 124 124 b 106 192 107 169 106 181 b 110 231 106 206 107 218 b 113 249 111 238 111 243 b 118 294 114 265 115 281 l 121 311 b 194 450 138 368 160 408 l 208 468 b 282 525 226 494 250 525 b 311 517 290 525 300 522 b 331 486 322 510 329 499 b 325 461 331 478 329 469 b 310 440 321 454 317 446 b 292 429 304 436 297 433 b 274 418 285 426 278 424 b 207 258 225 372 213 314 b 208 239 207 250 207 244 b 217 229 211 231 215 229 b 258 256 221 228 232 231 l 288 282 l 304 299 b 321 314 310 304 315 310 b 471 481 367 376 382 465 b 575 392 524 486 569 444 b 576 372 576 385 576 378 b 524 193 576 308 532 254 l 522 167 l 519 142 l 518 110 l 517 107 b 453 -29 503 57 483 22 b 424 -69 443 -47 435 -57 l 397 -101 l 396 -103 b 304 -189 381 -122 351 -160 b 122 -269 285 -201 161 -261 b 78 -278 101 -275 92 -278 "},"z":{"ha":550,"x_min":0,"x_max":0,"o":"m 61 0 b 17 24 43 1 28 10 b 7 54 10 33 7 43 b 10 72 7 60 8 67 b 33 111 14 88 24 100 b 39 118 35 114 36 115 b 71 144 47 129 60 136 b 94 163 79 150 88 156 l 129 200 b 149 224 135 208 142 215 l 196 269 l 243 314 b 254 326 247 318 251 322 b 276 349 261 335 268 343 l 313 372 b 392 431 340 390 368 410 b 407 453 400 438 408 449 b 394 453 406 454 401 454 l 369 442 b 342 431 361 438 351 433 l 339 429 b 319 422 333 428 326 425 b 268 393 303 414 285 403 l 238 376 b 207 353 226 369 217 361 b 193 339 203 347 197 343 l 181 329 b 154 306 171 322 163 315 b 140 282 149 299 144 290 b 92 242 131 263 119 242 b 36 279 68 242 46 257 b 33 292 35 283 33 288 b 53 331 33 307 43 319 b 88 354 63 340 76 347 b 93 357 89 354 92 356 b 138 378 108 364 122 372 b 164 390 147 381 156 385 l 186 400 b 207 410 193 403 200 406 b 238 429 218 415 228 422 l 268 449 b 292 458 276 453 283 456 b 319 472 301 463 311 467 b 397 517 342 486 365 500 l 421 529 b 478 556 439 540 457 550 b 499 558 485 557 492 558 b 528 549 510 558 521 556 b 542 500 540 538 544 521 b 529 474 542 490 535 482 b 519 460 525 469 522 464 b 514 447 517 456 515 451 b 503 425 510 440 507 432 b 475 393 494 414 485 403 b 317 308 439 338 360 354 l 293 282 l 265 251 b 250 235 260 246 254 240 l 226 210 b 218 203 224 208 221 206 b 185 174 206 193 194 185 l 135 119 b 126 107 132 117 126 111 l 129 107 b 147 115 135 107 142 111 b 150 118 149 117 150 117 b 235 164 178 136 207 150 l 263 178 b 278 185 268 179 272 182 b 300 197 288 189 294 193 b 469 301 356 239 397 301 b 539 218 513 307 539 260 b 496 161 539 183 514 179 b 288 110 428 119 350 150 b 247 94 275 104 261 99 b 219 83 238 90 228 88 b 201 74 213 81 207 76 b 189 65 197 69 193 67 l 135 31 l 114 15 b 67 0 99 6 82 0 l 61 0 "},".":{"ha":133,"x_min":0,"x_max":0,"o":"m 35 0 b 3 24 19 0 8 10 b 0 40 1 29 0 35 b 29 97 0 64 14 85 b 50 110 36 103 43 106 l 58 118 b 90 133 67 128 78 133 b 117 124 99 133 108 131 b 133 93 126 115 132 106 l 133 74 b 132 65 133 71 132 68 b 125 57 132 58 132 60 l 119 53 l 94 31 b 78 15 89 25 83 19 b 38 0 65 8 51 1 l 35 0 "},",":{"ha":189,"x_min":0,"x_max":0,"o":"m 60 -83 b 43 -82 54 -83 49 -83 b 18 -65 31 -82 18 -75 b 24 -54 18 -62 19 -58 b 68 -15 38 -43 60 -35 b 71 -1 69 -11 71 -6 b 58 8 71 6 68 11 b 33 4 50 6 42 4 b 0 40 17 4 0 13 b 40 101 0 67 18 88 b 85 124 54 114 69 124 b 107 117 92 124 99 121 l 108 117 b 144 49 131 103 140 71 b 147 25 147 40 149 33 b 136 -21 144 11 142 -7 b 114 -47 131 -32 122 -37 l 88 -72 b 67 -83 79 -79 74 -82 l 60 -83 "},":":{"ha":165,"x_min":0,"x_max":0,"o":"m 35 0 b 3 24 19 0 8 10 b 0 40 1 29 0 35 b 29 97 0 64 14 85 b 50 110 36 103 43 106 l 58 118 b 90 133 67 128 78 133 b 117 124 99 133 108 131 b 133 93 126 115 132 106 l 133 74 b 132 65 133 71 132 68 b 125 57 132 58 132 60 l 119 53 l 94 31 b 78 15 89 25 83 19 b 38 0 65 8 51 1 l 35 0 m 67 325 b 44 329 60 325 51 326 b 26 361 31 336 22 344 l 26 371 b 43 400 26 382 33 393 l 75 422 b 90 438 81 428 86 432 b 117 446 97 444 107 447 b 125 444 119 446 122 446 b 165 401 146 442 164 424 b 156 378 165 392 163 385 b 126 350 144 369 135 361 b 74 325 114 332 96 326 l 67 325 "},";":{"ha":158,"x_min":0,"x_max":0,"o":"m 60 -83 b 43 -82 54 -83 49 -83 b 18 -65 31 -82 18 -75 b 24 -54 18 -62 19 -58 b 68 -15 38 -43 60 -35 b 71 -1 69 -11 71 -6 b 58 8 71 6 68 11 b 33 4 50 6 42 4 b 0 40 17 4 0 13 b 40 101 0 67 18 88 b 85 124 54 114 69 124 b 107 117 92 124 99 121 l 108 117 b 144 49 131 103 140 71 b 147 25 147 40 149 33 b 136 -21 144 11 142 -7 b 114 -47 131 -32 122 -37 l 88 -72 b 67 -83 79 -79 74 -82 l 60 -83 m 57 308 b 25 314 46 308 36 308 b 4 349 11 321 1 331 l 4 354 b 24 392 4 371 11 382 l 58 417 b 76 433 65 422 71 428 b 104 443 85 442 93 444 b 114 442 108 442 111 442 b 158 393 138 438 157 417 l 158 389 b 147 368 158 381 154 372 b 117 336 136 358 125 349 b 57 308 101 317 81 310 "},"…":{"ha":564,"x_min":0,"x_max":0,"o":"m 35 0 b 3 24 19 0 8 10 b 0 40 1 29 0 35 b 29 97 0 64 14 85 b 50 110 36 103 43 106 l 58 118 b 90 133 67 128 78 133 b 117 124 99 133 108 131 b 133 93 126 115 132 106 l 133 74 b 132 65 133 71 132 68 b 125 57 132 58 132 60 l 119 53 l 94 31 b 78 15 89 25 83 19 b 38 0 65 8 51 1 l 35 0 m 247 0 b 215 24 232 0 221 10 b 213 40 214 29 213 35 b 242 97 213 64 226 85 b 263 110 249 103 256 106 l 271 118 b 303 133 279 128 290 133 b 329 124 311 133 321 131 b 344 93 339 115 344 106 l 346 74 b 344 65 346 71 344 68 b 338 57 344 58 344 60 l 332 53 l 307 31 b 290 15 301 25 296 19 b 250 0 278 8 264 1 l 247 0 m 465 0 b 433 24 450 0 439 10 b 431 40 432 29 431 35 b 460 97 431 64 444 85 b 481 110 467 103 474 106 l 489 118 b 521 133 497 128 508 133 b 547 124 529 133 539 131 b 563 93 557 115 563 106 l 564 74 b 563 65 564 71 563 68 b 556 57 563 58 563 60 l 550 53 l 525 31 b 507 15 519 25 514 19 b 468 0 496 8 482 1 l 465 0 "},"!":{"ha":258,"x_min":0,"x_max":0,"o":"m 93 206 b 88 207 90 206 89 206 b 64 225 76 208 68 215 b 60 244 61 231 60 238 b 64 272 60 254 63 263 b 79 325 68 290 74 307 l 96 388 b 108 510 107 435 108 475 b 113 561 108 528 110 544 l 117 590 l 121 640 b 129 728 122 669 125 699 b 135 757 131 739 133 747 b 140 779 138 764 139 771 b 143 796 142 783 143 789 b 150 829 144 807 147 818 b 167 865 154 842 161 854 l 179 889 b 181 894 179 890 181 892 b 225 942 188 913 200 942 b 258 900 240 942 258 935 b 257 832 258 875 254 853 l 258 807 b 254 774 258 796 257 785 b 235 693 246 747 240 719 l 228 656 b 225 640 226 650 225 644 b 213 586 222 622 219 604 l 208 569 b 197 532 204 557 200 544 b 194 489 194 518 194 504 b 193 461 193 481 193 471 l 192 454 b 183 388 190 432 189 410 b 161 332 178 368 169 350 b 139 275 151 313 143 294 b 136 263 138 271 138 267 b 115 215 133 247 129 229 b 93 206 110 210 101 206 m 75 -19 b 28 -8 57 -19 40 -14 b 3 17 15 -3 7 6 b 0 35 0 22 0 29 b 11 75 0 53 7 68 l 19 99 b 57 151 25 118 32 140 l 58 151 b 74 154 64 154 69 154 b 113 133 88 154 103 147 b 126 76 125 118 126 97 l 126 54 b 128 35 128 49 128 42 b 101 -14 128 15 122 -4 b 75 -19 93 -18 83 -19 "},"¡":{"ha":258,"x_min":0,"x_max":0,"o":"m 33 -251 b 0 -210 18 -251 0 -244 b 1 -142 0 -185 4 -162 l 0 -117 b 4 -83 0 -106 1 -94 b 24 -3 13 -57 18 -29 l 31 35 b 33 50 32 40 33 46 b 46 104 36 68 39 86 l 50 121 b 61 158 54 133 58 146 b 64 201 64 172 64 186 b 65 229 65 210 65 219 l 67 236 b 75 303 68 258 69 281 b 97 358 81 322 89 340 b 119 415 107 378 115 396 b 122 428 121 419 121 424 b 143 475 125 443 129 461 b 165 485 149 481 157 485 b 171 483 168 485 169 485 b 194 465 182 482 190 475 b 199 446 197 460 199 453 b 194 418 199 436 196 428 b 179 365 190 400 185 383 l 163 303 b 150 181 151 256 150 215 b 146 129 150 163 149 146 l 142 100 l 138 50 b 129 -37 136 21 133 -8 b 124 -67 128 -49 125 -57 b 118 -89 121 -74 119 -81 b 115 -106 117 -93 115 -99 b 108 -139 114 -117 111 -128 b 92 -175 104 -151 97 -164 l 79 -199 b 78 -204 79 -200 78 -201 b 33 -251 71 -222 58 -251 m 185 536 b 146 557 171 536 156 543 b 132 614 133 572 132 593 l 132 636 b 131 656 131 642 131 649 b 157 704 131 675 136 694 b 183 710 165 708 175 710 b 231 699 201 710 218 704 b 256 674 243 693 251 685 b 258 656 258 668 258 661 b 247 615 258 638 251 622 l 239 592 b 201 539 233 572 226 550 l 200 539 b 185 536 194 536 189 536 "},"?":{"ha":449,"x_min":0,"x_max":0,"o":"m 140 192 b 110 200 129 192 117 197 l 96 204 b 60 222 83 210 71 214 b 33 272 43 232 33 250 b 57 333 33 294 44 318 b 82 378 67 347 74 363 b 104 417 89 392 96 404 l 124 458 l 154 519 b 211 610 169 551 190 581 l 213 614 b 268 707 229 647 249 679 l 268 708 l 285 729 l 315 771 b 343 846 329 789 343 822 b 340 863 343 853 343 858 b 318 875 339 865 335 874 b 256 867 296 874 274 874 b 236 853 249 863 243 858 b 224 842 232 849 228 844 b 154 785 201 825 181 808 l 146 778 b 114 746 133 768 122 758 b 101 717 106 733 101 722 b 113 721 104 717 107 718 b 128 733 118 724 122 728 b 151 751 133 740 142 747 b 167 754 157 754 161 754 b 203 733 181 754 194 747 b 210 710 207 726 210 718 b 194 676 210 697 204 686 b 99 640 169 650 132 644 l 94 640 b 68 638 88 639 78 638 b 22 651 53 638 36 642 b 0 699 6 664 0 681 b 14 754 0 718 7 738 l 18 765 b 42 810 24 779 29 796 l 79 849 l 133 904 b 199 943 153 921 175 932 b 324 972 243 963 283 972 b 431 938 361 972 404 964 b 449 890 443 921 449 906 b 425 819 449 865 436 840 b 372 711 411 783 396 744 b 346 679 364 700 356 689 b 321 647 338 668 328 658 b 300 614 314 636 306 625 l 285 590 l 267 561 b 229 499 253 542 239 521 b 210 463 224 488 218 475 b 193 424 203 450 199 438 b 190 414 193 419 192 417 b 183 388 188 406 185 396 l 179 371 l 175 360 b 172 340 174 353 171 346 b 181 325 172 336 176 331 b 193 304 185 319 190 313 b 197 281 196 297 197 289 b 188 239 197 268 194 254 b 185 232 186 236 185 235 b 164 200 179 221 174 208 b 140 192 157 194 149 192 m 82 -12 b 29 11 61 -12 39 -6 l 29 13 b 26 31 26 19 26 25 b 29 56 26 39 28 47 b 32 69 31 61 32 65 l 32 71 b 49 100 35 83 43 92 b 56 108 51 103 54 106 b 58 114 57 110 58 113 b 76 135 64 121 69 129 b 111 149 89 144 100 149 b 133 142 118 149 126 146 b 156 93 147 132 156 114 b 151 69 156 86 154 78 b 150 63 151 68 150 65 b 93 -12 142 33 132 -6 l 82 -12 "},"¿":{"ha":449,"x_min":0,"x_max":0,"o":"m 125 -12 b 18 22 88 -12 44 -4 b 0 69 6 39 0 54 b 24 140 0 94 13 119 b 76 249 38 176 53 215 b 103 281 85 260 93 271 b 128 313 111 292 121 301 b 149 346 135 324 143 335 l 164 369 l 182 399 b 219 461 196 418 210 439 b 239 497 225 472 231 485 b 256 536 246 510 250 522 b 258 546 256 540 257 543 b 265 572 261 554 264 564 l 269 589 l 274 600 b 276 619 275 607 278 614 b 268 635 276 624 272 629 b 256 656 264 640 258 647 b 251 679 253 663 251 671 b 261 721 251 692 254 706 b 264 728 263 724 264 725 b 285 760 269 739 275 751 b 308 768 292 765 300 768 b 339 760 319 768 332 763 l 353 756 b 389 738 365 750 378 746 b 415 688 406 728 415 710 b 392 626 415 665 404 642 b 367 582 382 613 375 597 b 344 543 360 568 353 556 l 325 501 l 294 440 b 238 350 279 408 258 379 l 236 346 b 181 253 219 313 200 281 l 181 251 l 164 231 l 133 189 b 106 114 119 171 106 138 b 108 97 106 107 106 101 b 131 85 110 94 114 86 b 193 93 153 86 175 86 b 213 107 200 97 206 101 b 225 118 217 111 221 115 b 294 175 247 135 268 151 l 303 182 b 335 214 315 192 326 201 b 347 243 343 226 347 238 b 336 239 344 243 342 242 b 321 226 331 236 326 232 b 297 208 315 219 307 213 b 282 206 292 206 288 206 b 246 226 268 206 254 213 b 239 250 242 233 239 242 b 254 283 239 263 244 274 b 350 319 279 310 317 315 l 354 319 b 381 322 361 321 371 322 b 426 308 396 322 413 318 b 449 261 443 296 449 279 b 435 206 449 242 442 222 l 431 194 b 407 150 425 181 419 164 l 369 111 l 315 56 b 250 17 296 39 274 28 b 125 -12 206 -3 165 -12 m 338 811 b 315 818 331 811 322 814 b 293 867 301 828 293 846 b 297 890 293 874 294 882 b 299 897 297 892 299 894 b 356 972 307 926 317 965 l 367 972 b 419 949 388 972 410 965 l 419 947 b 422 929 422 940 422 935 b 419 904 422 921 421 913 b 417 890 418 899 417 894 l 417 889 b 400 860 414 876 406 868 b 393 851 397 857 394 854 b 390 846 392 850 390 847 b 372 825 385 839 379 831 b 338 811 360 815 349 811 "},"·":{"ha":178,"x_min":0,"x_max":0,"o":"m 117 260 b 42 263 94 257 63 263 b 3 293 18 261 6 275 b 28 383 -4 328 6 357 b 53 400 35 392 43 394 l 64 410 b 140 424 86 433 111 440 b 169 390 156 417 165 406 b 174 364 171 382 171 372 b 176 351 175 360 175 356 b 172 335 179 342 179 342 b 168 326 169 333 169 329 b 147 278 161 310 157 292 b 117 260 140 268 131 261 "},"•":{"ha":157,"x_min":0,"x_max":0,"o":"m 126 224 b -1 229 88 221 33 229 b -67 282 -40 226 -62 250 b -25 433 -78 340 -62 389 b 18 463 -14 447 1 453 l 36 479 b 167 503 74 518 117 529 b 215 444 190 489 207 471 b 222 401 217 431 217 415 b 228 381 225 393 225 386 b 219 351 231 364 231 364 b 213 338 215 349 215 343 b 178 256 201 308 193 279 b 126 224 167 239 149 226 "},"*":{"ha":349,"x_min":0,"x_max":0,"o":"m 90 550 b 78 563 88 551 81 558 b 74 574 74 565 74 569 b 75 593 74 581 74 588 b 88 619 78 601 83 610 b 89 624 88 621 89 622 b 107 650 96 632 101 642 b 121 674 111 658 115 665 b 126 683 122 676 125 679 b 131 697 129 688 132 693 b 126 697 131 703 132 700 b 76 657 107 688 88 678 b 68 636 72 651 71 643 b 50 618 64 628 58 622 l 47 618 b 32 621 43 618 36 619 b 1 653 19 628 4 640 b 0 664 0 657 0 661 b 6 682 0 671 1 675 b 19 696 8 689 13 692 b 32 700 22 699 28 699 b 61 711 42 703 51 706 b 67 714 63 713 64 714 l 76 719 l 90 728 l 107 740 b 115 746 110 742 113 743 b 124 754 118 749 121 750 b 122 768 125 758 125 763 b 104 801 117 779 111 792 b 83 829 99 813 90 819 b 65 857 75 838 68 844 l 65 861 b 69 872 65 865 67 869 b 92 876 75 879 83 881 b 103 867 96 874 100 871 l 139 824 l 150 813 b 163 811 153 811 158 811 b 175 813 168 811 174 811 b 186 831 182 818 183 824 b 203 868 190 843 196 856 l 219 897 b 232 943 226 913 232 928 l 232 947 b 240 975 232 957 236 968 b 250 983 246 982 244 978 b 263 982 251 986 258 985 b 275 967 267 978 272 972 b 281 928 281 954 283 942 l 276 914 b 274 906 275 911 275 908 l 268 883 b 260 865 267 876 264 871 b 257 857 258 863 258 860 b 244 832 254 847 249 840 b 240 825 243 829 242 826 l 242 824 b 247 825 243 824 246 824 b 272 839 256 831 264 835 b 301 857 283 843 293 849 b 307 864 304 858 306 863 l 314 872 b 326 876 318 875 322 876 b 342 868 332 876 338 874 b 349 851 346 863 347 858 b 339 833 349 843 346 838 b 314 825 331 831 322 826 b 308 822 313 825 310 824 b 293 815 303 821 299 818 b 289 813 292 814 290 814 b 263 796 281 806 271 801 b 243 782 256 792 249 788 b 225 760 235 775 229 768 b 218 740 222 753 219 747 l 218 736 b 221 725 218 732 219 729 b 247 686 231 713 238 699 b 263 664 253 679 258 671 b 275 618 272 649 275 635 b 267 606 274 613 272 607 b 253 610 261 603 257 606 b 244 622 250 614 246 618 b 233 644 240 629 238 638 b 232 649 233 646 233 647 l 204 683 l 192 693 b 186 692 189 696 190 694 b 161 654 175 681 168 668 b 147 625 158 643 154 635 b 131 593 140 617 135 604 b 122 575 129 588 126 581 b 115 561 119 571 118 567 b 114 557 115 560 115 558 b 90 550 110 549 101 544 "},"#":{"ha":978,"x_min":0,"x_max":0,"o":"m 294 35 b 272 78 279 43 272 61 b 281 107 272 88 278 97 b 311 206 285 140 297 174 b 325 250 319 219 321 235 b 331 278 328 260 335 269 b 322 281 329 279 326 281 b 299 276 314 281 304 278 b 265 264 288 274 275 269 b 243 256 258 258 253 256 b 169 238 218 256 193 243 b 142 226 160 235 150 232 b 108 217 131 222 118 221 b 36 192 85 206 61 199 b 14 178 28 189 22 179 l 11 178 b 1 197 3 178 -3 190 b 19 239 6 211 11 226 b 44 257 26 247 36 253 b 107 285 64 268 85 278 b 174 317 129 296 150 308 b 211 335 186 322 199 331 b 275 346 232 340 254 342 b 326 361 293 347 310 354 b 381 418 364 372 372 381 b 392 475 383 438 388 456 b 406 531 397 493 404 511 b 392 536 406 538 397 538 b 286 508 356 529 321 519 b 256 503 276 506 267 504 b 183 486 231 500 207 486 b 165 489 178 486 171 486 b 153 506 157 493 151 499 b 199 529 157 525 183 524 b 263 554 221 535 242 546 b 367 588 296 568 331 583 b 431 607 388 592 414 593 b 440 636 438 614 436 626 b 457 665 444 647 453 654 b 468 706 461 678 463 693 b 494 796 478 736 488 765 b 522 872 501 824 513 847 b 565 932 532 894 538 926 l 569 932 b 596 913 581 932 592 924 b 597 901 597 908 597 906 b 588 865 597 889 592 876 b 565 768 576 833 568 801 b 558 739 564 757 563 747 b 549 703 554 728 554 714 b 542 686 546 699 543 693 b 533 653 538 675 538 663 b 511 622 528 640 515 633 b 510 618 510 621 510 618 b 525 613 510 611 519 611 b 571 619 540 615 556 618 l 597 624 b 649 631 614 628 632 628 b 672 676 668 636 665 661 b 694 735 678 697 682 718 b 710 756 700 742 706 749 b 749 813 722 776 736 793 b 767 843 754 822 758 835 b 785 851 772 849 779 851 b 808 825 797 851 808 840 b 793 779 808 811 799 794 b 764 693 786 750 776 721 l 757 667 b 757 644 754 660 751 651 b 789 632 765 635 778 632 l 867 635 b 944 628 892 635 921 638 b 978 589 960 622 978 606 b 972 575 978 585 976 579 b 956 569 968 571 963 569 l 935 571 b 899 564 922 571 911 567 b 878 563 893 563 885 563 b 856 561 871 563 863 563 b 779 550 829 558 803 563 b 764 547 774 549 769 547 l 740 549 b 726 546 735 549 731 549 b 717 533 722 543 719 538 b 697 478 704 507 713 501 b 688 439 690 465 688 453 b 704 426 688 429 694 426 b 732 431 713 426 725 429 b 824 443 763 435 793 438 b 849 446 833 444 842 446 b 875 438 858 446 867 444 b 879 431 878 436 879 433 b 868 417 879 424 874 417 b 804 404 847 414 825 410 b 668 375 760 392 713 389 b 625 336 649 369 639 350 b 606 292 614 324 610 307 b 592 246 600 276 593 263 b 582 224 590 238 586 231 b 561 165 572 206 567 185 b 550 125 558 153 553 139 b 540 65 547 106 551 83 b 521 54 535 57 528 54 b 481 85 504 54 486 69 b 479 94 479 88 479 92 b 488 121 479 104 483 114 b 504 164 496 135 500 150 b 506 190 506 174 503 182 b 517 214 507 199 514 206 b 524 254 524 226 521 242 b 532 279 526 263 531 271 b 536 314 533 290 532 303 b 543 333 538 321 543 326 b 474 318 543 347 483 318 b 440 301 461 317 451 307 b 382 278 422 296 397 294 b 371 251 375 271 375 260 b 349 203 365 236 354 219 b 340 160 344 189 343 174 b 335 135 338 151 335 143 b 335 110 335 126 338 118 b 315 94 332 103 318 101 l 315 90 b 328 53 315 78 328 65 l 328 50 b 308 31 328 39 319 31 b 294 35 304 31 300 32 m 544 388 b 576 404 557 392 569 394 b 597 436 583 414 592 424 b 615 489 599 456 613 469 b 631 536 619 506 625 521 b 631 549 632 540 632 544 b 611 553 626 554 617 553 b 575 553 599 551 588 554 b 540 551 564 551 553 551 b 506 550 529 551 517 551 b 476 538 494 547 486 542 b 453 493 461 529 460 508 b 424 406 440 465 428 436 b 419 389 422 400 419 394 b 443 371 419 378 432 368 l 544 388 "},"/":{"ha":600,"x_min":0,"x_max":0,"o":"m 31 3 b 19 0 26 1 24 0 b 0 22 8 0 0 10 b 4 39 0 28 1 33 l 6 40 b 78 188 35 86 49 140 b 115 251 90 208 101 231 b 164 324 131 276 151 297 b 242 458 186 371 218 413 b 436 861 310 592 358 733 b 478 958 451 893 447 935 b 544 981 494 972 521 981 b 600 939 574 981 600 968 b 597 919 600 933 599 926 b 536 826 581 886 554 858 b 449 700 508 783 476 743 b 357 515 414 640 385 578 b 311 429 343 486 331 456 b 251 343 290 401 274 369 b 147 201 213 299 181 250 b 113 132 133 179 124 156 b 85 79 104 115 93 97 b 31 3 71 53 60 17 "},"\\":{"ha":529,"x_min":0,"x_max":0,"o":"m 510 -4 b 500 -6 507 -6 503 -6 b 468 15 486 -6 474 3 b 460 63 460 29 463 47 b 408 183 450 104 428 144 b 386 236 397 200 393 218 b 304 392 361 289 331 339 b 242 500 283 428 260 463 b 208 547 233 518 218 531 b 186 585 200 560 196 574 b 160 628 176 599 167 613 b 138 664 154 640 144 651 b 74 767 118 700 93 732 b 21 851 56 796 35 822 b 0 918 13 872 0 894 b 3 936 0 924 1 931 b 40 986 8 957 19 978 b 56 989 44 988 50 989 b 97 965 72 989 89 979 b 124 886 113 940 111 911 b 161 810 133 860 149 835 b 203 715 176 779 190 746 b 217 688 206 706 210 696 b 254 631 231 669 244 651 b 268 606 260 622 264 613 b 361 443 306 554 333 499 b 393 396 371 426 383 413 b 422 332 403 375 414 354 b 461 238 435 300 451 269 b 483 192 467 221 475 206 b 510 118 494 168 500 142 l 526 72 b 529 49 528 67 529 58 b 510 -4 529 28 524 1 "},"(":{"ha":328,"x_min":0,"x_max":0,"o":"m 161 18 b 140 22 154 18 147 19 b 115 47 129 29 122 39 l 106 58 b 15 163 68 96 39 129 b 0 239 0 186 0 214 l 0 240 b 6 367 0 281 3 321 b 10 393 6 375 8 385 l 14 419 l 15 483 b 17 536 15 500 15 518 b 35 606 18 561 26 583 b 93 718 47 640 65 676 l 111 743 l 125 761 l 142 788 b 160 815 147 797 153 807 l 160 817 l 165 824 b 225 914 189 853 211 881 b 288 972 243 953 263 972 b 319 956 301 972 313 965 b 328 931 325 947 328 939 b 301 878 328 910 314 893 b 210 772 264 838 235 804 b 179 718 196 756 188 736 b 153 675 172 703 163 689 b 138 650 147 667 142 658 b 97 506 110 596 96 549 l 97 456 l 99 396 b 96 324 99 371 99 347 b 104 253 94 301 97 278 l 106 247 b 118 210 108 233 113 221 l 135 188 b 144 175 139 183 142 179 l 146 174 b 193 78 165 149 181 117 b 197 56 196 69 197 63 b 185 26 197 43 193 33 b 161 18 178 21 169 18 "},")":{"ha":356,"x_min":0,"x_max":0,"o":"m 49 44 b 29 49 43 44 36 46 b 0 83 7 58 1 72 b 38 140 -1 106 18 128 l 43 144 b 157 243 86 172 129 200 l 169 261 b 206 313 182 278 194 294 b 251 422 226 346 239 385 l 257 435 l 271 471 b 293 538 282 493 290 515 b 293 619 297 565 296 593 b 290 669 292 636 290 653 b 293 711 290 683 292 697 b 290 789 294 739 296 765 l 290 790 b 250 879 279 825 267 856 l 246 885 b 232 910 242 892 236 900 b 242 960 222 928 226 947 b 294 961 257 972 278 974 b 322 908 313 947 318 926 l 326 893 b 338 861 329 882 333 871 b 351 817 343 846 349 832 b 353 728 357 786 354 757 b 351 650 350 701 347 675 b 310 403 364 538 349 501 l 306 386 b 250 249 292 339 276 292 b 157 132 225 206 193 167 l 126 100 l 122 96 b 49 44 104 74 81 44 "},"{":{"ha":364,"x_min":0,"x_max":0,"o":"m 192 10 b 139 18 175 8 156 13 b 108 28 132 19 115 26 b 11 178 36 64 25 111 b 21 275 1 222 17 236 b 67 435 35 329 50 382 l 79 465 b 83 490 82 474 88 483 b 32 504 71 507 49 499 b 0 532 18 510 0 513 b 39 589 -1 561 8 576 b 115 685 83 610 107 632 l 125 726 b 133 756 126 735 131 746 b 143 796 136 769 139 782 b 157 840 147 810 151 826 l 157 842 b 163 851 157 844 161 849 b 244 944 175 896 207 935 b 354 947 293 956 317 967 b 364 918 368 939 363 931 b 349 886 364 907 358 894 b 300 874 333 875 321 868 b 210 794 235 890 231 849 b 194 711 197 765 196 739 b 186 647 192 688 190 667 b 174 619 185 636 178 624 b 96 535 153 586 74 563 b 117 524 100 529 110 529 b 139 510 124 518 132 518 b 140 372 179 465 161 426 b 122 276 131 344 125 307 b 121 268 121 275 121 271 b 119 214 119 250 118 231 b 124 178 119 200 122 189 b 126 158 125 171 126 165 l 126 157 b 194 88 135 111 157 107 b 221 42 215 76 219 61 b 208 18 221 31 215 26 b 192 10 204 14 200 11 "},"}":{"ha":418,"x_min":0,"x_max":0,"o":"m 19 -1 b 6 7 11 0 8 1 b 3 31 1 14 -3 19 b 47 76 11 50 21 65 b 140 146 90 96 115 100 l 142 147 b 151 167 144 154 147 160 b 171 201 158 178 165 189 b 189 257 178 219 185 239 b 192 265 190 258 192 263 b 210 361 201 296 210 333 b 264 499 210 415 207 453 b 292 513 275 507 283 507 b 317 524 300 518 310 518 b 271 607 349 551 281 575 b 269 636 269 613 267 625 b 286 699 274 656 279 676 b 303 783 294 726 303 754 b 242 861 303 838 314 879 b 200 875 219 857 210 864 b 196 907 193 883 190 894 b 217 936 201 918 200 928 b 325 933 261 954 282 944 b 372 840 360 924 376 885 b 374 831 372 838 374 832 l 374 829 b 369 785 372 814 372 799 b 364 744 368 771 367 758 l 361 714 l 354 674 b 396 578 343 619 357 599 b 413 521 419 565 424 549 b 369 493 404 501 385 499 b 313 479 350 488 331 496 b 307 454 304 471 308 463 b 307 424 307 444 308 435 b 292 264 304 371 299 317 l 293 263 b 264 165 281 224 290 211 b 110 17 225 100 196 51 b 75 7 101 14 83 8 b 19 -1 57 1 35 -3 "},"[":{"ha":488,"x_min":0,"x_max":0,"o":"m 63 40 b 10 71 42 40 21 50 b 32 200 -14 118 10 161 b 57 256 42 219 51 238 b 79 360 68 289 74 325 l 88 400 l 88 403 b 122 565 101 456 114 510 l 132 618 l 146 700 l 154 735 b 165 788 160 753 164 771 b 161 833 167 803 164 818 b 156 886 157 850 153 868 b 183 939 157 908 167 926 b 257 949 203 953 229 956 b 303 932 272 946 288 939 b 354 915 319 925 336 917 b 393 914 367 914 379 914 b 457 906 414 914 436 913 b 488 867 490 893 489 872 b 436 836 483 847 461 835 b 376 844 415 835 396 840 b 303 846 350 851 326 858 b 250 750 268 828 258 788 b 244 728 247 743 246 735 l 235 692 b 211 579 225 654 214 617 b 183 415 206 524 194 468 l 182 413 l 169 351 b 154 276 165 326 161 301 b 126 189 147 247 139 218 b 124 181 126 186 125 183 b 119 167 122 178 121 171 l 135 171 b 172 176 147 174 160 176 b 278 172 214 178 249 176 l 281 171 l 317 167 b 344 171 325 167 335 168 b 390 171 358 174 375 176 b 403 138 404 164 408 150 l 403 136 b 319 89 389 107 347 96 l 315 88 b 244 90 292 82 268 86 b 189 94 225 94 207 97 b 142 71 172 90 157 81 b 106 51 131 64 119 57 b 63 40 93 44 78 40 "},"]":{"ha":488,"x_min":0,"x_max":0,"o":"m 117 46 b 46 58 90 47 65 54 b 39 60 44 60 42 60 b 10 69 29 61 18 63 b 0 94 4 75 0 85 b 11 124 0 106 4 117 b 49 136 21 135 36 135 l 54 136 b 119 133 71 138 96 138 l 122 133 b 219 139 154 131 190 126 b 239 144 225 142 232 143 b 257 150 246 146 253 147 b 268 179 264 157 265 167 b 274 201 269 186 271 194 l 285 232 l 297 269 b 321 382 307 307 314 344 b 333 444 325 403 328 424 b 350 510 338 467 344 489 b 376 618 361 544 371 582 b 376 672 379 635 378 653 b 375 689 375 678 375 683 b 376 754 374 711 375 733 b 378 806 378 771 378 789 l 378 807 b 375 818 378 810 378 815 b 365 821 372 819 369 821 l 364 821 b 321 821 350 822 336 821 l 283 821 b 235 818 267 821 250 822 l 218 813 b 160 803 200 807 181 801 b 119 822 143 803 126 811 b 118 854 113 832 113 843 b 158 894 125 872 143 885 b 276 903 197 919 238 911 b 339 894 299 897 319 893 l 372 896 l 393 899 b 443 900 410 901 426 903 b 483 868 468 893 479 879 b 474 803 492 849 488 825 b 446 669 440 754 443 715 b 443 583 447 643 449 615 b 422 513 439 560 431 535 l 410 476 b 374 339 396 433 383 388 l 371 314 b 368 282 371 303 369 293 b 360 253 367 272 364 263 b 357 239 358 249 358 244 b 351 176 351 219 351 199 b 349 129 351 161 350 144 b 319 63 344 103 333 79 b 251 54 299 40 265 50 b 203 54 238 58 221 57 b 169 51 192 54 181 53 b 118 46 153 49 136 47 l 117 46 "},"-":{"ha":456,"x_min":0,"x_max":0,"o":"m 138 438 b 83 431 119 435 101 431 b 29 444 65 431 46 435 b 7 482 13 456 7 469 b 47 518 7 503 24 521 l 49 518 b 121 513 72 517 96 513 b 254 531 165 513 210 531 b 371 515 294 531 332 521 b 401 515 381 514 392 515 b 440 504 415 515 429 514 b 449 483 447 497 449 490 b 425 456 449 469 438 457 b 406 454 418 454 413 454 b 354 457 389 454 371 457 b 335 456 347 457 342 457 b 276 457 315 454 296 457 b 244 454 265 457 256 456 b 138 438 208 444 172 446 "},"–":{"ha":760,"x_min":0,"x_max":0,"o":"m 89 446 b 46 453 74 444 60 449 b 10 468 32 456 15 458 b 15 497 3 478 8 489 b 74 518 29 514 53 517 l 75 518 b 193 536 115 517 153 535 b 321 539 235 536 278 536 l 465 542 b 669 528 536 540 597 535 b 711 525 678 528 701 524 b 742 518 724 526 731 521 b 738 493 758 514 754 494 b 683 482 719 490 701 485 b 607 474 658 479 632 474 b 526 465 579 474 553 465 b 450 464 500 465 475 463 b 422 465 440 465 431 467 b 372 457 404 465 389 460 b 297 453 347 456 322 458 b 213 460 269 447 242 460 b 89 446 171 460 129 447 "},"—":{"ha":922,"x_min":0,"x_max":0,"o":"m 60 443 b 7 508 33 451 7 483 b 36 542 7 524 15 536 b 126 538 65 543 96 536 b 250 529 167 536 210 531 b 417 543 306 531 361 536 b 494 546 443 544 468 549 b 579 542 522 543 551 546 b 721 528 626 532 674 531 b 783 532 742 526 763 531 l 831 535 b 871 538 843 536 858 538 b 907 529 885 538 896 536 b 915 515 913 525 915 519 b 893 496 915 506 906 496 l 892 496 b 760 485 847 497 804 483 b 700 485 739 486 719 485 b 629 489 675 485 653 490 b 583 486 614 488 599 486 b 503 486 557 486 531 488 b 143 454 383 478 264 453 b 79 439 122 451 100 439 b 60 443 72 439 67 440 "},"_":{"ha":760,"x_min":0,"x_max":0,"o":"m 89 -172 b 46 -165 74 -174 60 -169 b 10 -150 32 -162 15 -160 b 15 -121 3 -140 8 -129 b 74 -100 29 -104 53 -101 l 75 -100 b 193 -82 115 -101 153 -83 b 321 -79 235 -82 278 -82 l 465 -76 b 669 -90 536 -78 597 -83 b 711 -93 678 -90 701 -94 b 742 -100 724 -92 731 -97 b 738 -125 758 -104 754 -124 b 683 -136 719 -128 701 -133 b 607 -144 658 -139 632 -144 b 526 -153 579 -144 553 -153 b 450 -154 500 -153 475 -156 b 422 -153 440 -153 431 -151 b 372 -161 404 -153 389 -158 b 297 -165 347 -162 322 -160 b 213 -158 269 -171 242 -158 b 89 -172 171 -158 129 -171 "},"‚":{"ha":154,"x_min":0,"x_max":0,"o":"m 60 -83 b 43 -82 54 -83 49 -83 b 18 -65 31 -82 18 -75 b 24 -54 18 -62 19 -58 b 68 -15 38 -43 60 -35 b 71 -1 69 -11 71 -6 b 58 8 71 6 68 11 b 33 4 50 6 42 4 b 0 40 17 4 0 13 b 40 101 0 67 18 88 b 85 124 54 114 69 124 b 107 117 92 124 99 121 l 108 117 b 144 49 131 103 140 71 b 147 25 147 40 149 33 b 136 -21 144 11 142 -7 b 114 -47 131 -32 122 -37 l 88 -72 b 67 -83 79 -79 74 -82 l 60 -83 "},"„":{"ha":344,"x_min":0,"x_max":0,"o":"m 60 -83 b 43 -82 54 -83 49 -83 b 18 -65 31 -82 18 -75 b 24 -54 18 -62 19 -58 b 68 -15 38 -43 60 -35 b 71 -1 69 -11 71 -6 b 58 8 71 6 68 11 b 33 4 50 6 42 4 b 0 40 17 4 0 13 b 40 101 0 67 18 88 b 85 124 54 114 69 124 b 107 117 92 124 99 121 l 108 117 b 144 49 131 103 140 71 b 147 25 147 40 149 33 b 136 -21 144 11 142 -7 b 114 -47 131 -32 122 -37 l 88 -72 b 67 -83 79 -79 74 -82 l 60 -83 m 250 -83 b 233 -82 244 -83 239 -83 b 208 -65 221 -82 208 -75 b 214 -54 208 -62 210 -58 b 258 -15 228 -43 250 -35 b 261 -1 260 -11 261 -6 b 249 8 261 6 258 11 b 224 4 240 6 232 4 b 190 40 207 4 190 13 b 231 101 190 67 208 88 b 275 124 244 114 260 124 b 297 117 282 124 289 121 l 299 117 b 335 49 321 103 331 71 b 338 25 338 40 339 33 b 326 -21 335 11 332 -7 b 304 -47 321 -32 313 -37 l 278 -72 b 257 -83 269 -79 264 -82 l 250 -83 "},"“":{"ha":229,"x_min":0,"x_max":0,"o":"m 56 753 b 3 774 38 746 11 754 b 7 825 -4 790 1 810 b 58 913 19 857 46 882 b 90 968 67 931 79 951 b 113 992 97 978 103 990 b 136 957 129 994 142 975 b 108 850 129 922 122 883 b 100 821 106 840 101 831 b 56 753 94 794 81 764 m 189 751 b 136 764 172 739 150 751 b 125 808 125 775 124 793 b 160 897 131 839 151 867 b 181 950 164 915 172 933 b 197 976 185 961 188 972 b 229 956 214 983 229 972 b 224 860 229 924 229 893 b 219 833 221 851 219 842 b 189 751 219 808 213 768 "},"”":{"ha":243,"x_min":0,"x_max":0,"o":"m 119 747 b 99 782 104 747 94 765 b 126 889 106 817 114 856 b 135 918 129 899 133 908 b 179 986 142 944 154 975 b 193 989 183 988 189 989 b 232 965 210 989 225 981 b 236 949 235 960 236 954 b 228 914 236 936 232 924 b 176 826 215 882 190 858 b 144 771 168 808 156 788 b 124 747 138 761 132 749 l 119 747 m 38 763 b 28 760 35 761 31 760 b 7 781 17 760 7 768 b 13 879 7 814 7 846 b 15 906 14 888 15 897 b 46 988 15 931 24 971 b 63 993 51 992 56 993 b 99 975 75 993 90 983 b 111 942 107 967 111 954 b 76 842 111 907 85 876 b 56 789 72 824 63 806 b 39 763 50 779 47 767 l 38 763 "},"‘":{"ha":138,"x_min":0,"x_max":0,"o":"m 56 753 b 3 774 38 746 11 754 b 7 825 -4 790 1 810 b 58 913 19 857 46 882 b 90 968 67 931 79 951 b 113 992 97 978 103 990 b 136 957 129 994 142 975 b 108 850 129 922 122 883 b 100 821 106 840 101 831 b 56 753 94 794 81 764 "},"’":{"ha":197,"x_min":0,"x_max":0,"o":"m 29 725 b 7 761 13 725 3 744 b 36 872 15 796 24 836 b 44 900 39 882 43 890 b 90 971 51 929 65 961 b 106 975 94 974 101 975 b 144 950 122 975 138 967 b 150 933 147 946 150 939 b 142 899 150 921 144 907 b 88 807 128 865 103 840 b 54 749 78 788 65 767 b 33 725 47 739 42 725 l 29 725 "},"«":{"ha":304,"x_min":0,"x_max":0,"o":"m 267 196 b 251 203 263 196 257 197 b 242 215 247 207 244 211 b 235 225 239 219 236 222 b 192 278 218 242 206 260 b 164 315 183 290 174 304 l 164 317 b 181 467 122 381 132 410 b 196 488 186 472 190 479 b 218 518 201 497 208 508 l 239 539 b 240 540 239 540 239 540 b 299 549 267 565 286 558 l 303 540 b 296 508 307 526 300 517 l 294 507 b 278 483 290 500 285 490 l 276 482 b 250 447 267 469 258 461 b 219 406 243 436 232 419 b 210 376 213 397 210 389 l 210 368 l 213 364 b 254 283 229 336 240 317 b 271 254 258 272 264 264 b 281 236 274 249 278 243 l 282 235 b 285 207 285 229 292 218 b 269 196 281 199 274 196 l 267 196 m 138 194 b 103 211 128 194 117 199 b 101 213 103 211 103 213 l 89 225 b 81 235 86 228 83 231 b 58 264 71 243 65 254 b 43 286 54 272 49 279 b 26 435 -6 342 -15 371 b 28 436 26 435 26 436 l 56 474 b 97 526 68 492 82 510 b 104 536 100 529 101 533 b 114 549 107 540 110 544 b 133 556 121 556 128 557 b 147 546 136 556 143 554 b 144 517 154 535 149 522 l 144 515 l 133 499 l 117 469 b 75 388 104 435 92 415 l 72 383 l 72 375 b 82 347 72 364 75 354 b 113 304 94 333 106 317 b 140 271 121 292 129 282 l 140 269 b 158 244 147 261 154 253 l 158 243 b 165 211 164 236 169 225 b 161 204 165 208 164 206 b 138 194 156 199 147 194 "},"»":{"ha":304,"x_min":0,"x_max":0,"o":"m 35 196 b 19 207 31 197 24 199 b 22 236 13 218 19 229 l 24 236 b 33 254 26 243 31 249 b 50 283 40 264 46 272 b 93 365 64 318 75 336 l 94 368 l 94 378 b 85 406 94 389 92 397 b 54 447 72 419 61 436 b 28 482 46 461 38 471 l 26 483 b 10 507 19 492 14 500 l 8 508 b 1 542 4 517 -3 528 b 6 549 3 544 4 547 b 64 542 18 560 38 567 b 65 540 65 542 65 540 l 78 528 b 88 518 81 524 83 521 b 108 489 96 508 103 499 b 124 467 114 481 118 474 b 140 318 172 411 182 382 l 140 317 l 113 279 b 69 225 99 261 86 242 b 63 217 68 222 65 219 b 53 204 60 213 57 208 b 38 196 47 197 42 196 l 35 196 m 167 194 b 143 204 157 194 149 199 b 139 211 140 207 139 208 b 146 244 135 226 140 236 l 146 246 b 164 269 150 253 157 263 l 164 271 b 192 306 175 283 183 292 b 222 347 199 317 210 333 b 232 376 229 356 232 364 l 232 385 l 229 389 b 188 469 211 415 200 435 b 171 499 183 481 176 489 b 160 517 168 504 164 510 l 160 518 b 157 546 157 524 150 535 b 172 557 161 554 168 557 b 190 550 176 557 183 557 b 200 538 194 546 197 542 b 207 528 203 533 204 531 b 249 474 222 511 236 492 b 276 438 258 461 267 449 l 278 436 b 261 286 319 372 310 343 b 246 265 256 281 250 272 b 224 235 240 256 233 244 l 203 214 b 201 213 203 213 201 213 b 167 194 188 199 176 194 "},"‹":{"ha":167,"x_min":0,"x_max":0,"o":"m 138 194 b 103 211 128 194 117 199 b 101 213 103 211 103 213 l 89 225 b 81 235 86 228 83 231 b 58 264 71 243 65 254 b 43 286 54 272 49 279 b 26 435 -6 342 -15 371 b 28 436 26 435 26 436 l 56 474 b 97 526 68 492 82 510 b 104 536 100 529 101 533 b 114 549 107 540 110 544 b 133 556 121 556 128 557 b 147 546 136 556 143 554 b 144 517 154 535 149 522 l 144 515 l 133 499 l 117 469 b 75 388 104 435 92 415 l 72 383 l 72 375 b 82 347 72 364 75 354 b 113 304 94 333 106 317 b 140 271 121 292 129 282 l 140 269 b 158 244 147 261 154 253 l 158 243 b 165 211 164 236 169 225 b 161 204 165 208 164 206 b 138 194 156 199 147 194 "},"›":{"ha":167,"x_min":0,"x_max":0,"o":"m 29 194 b 6 204 19 194 11 199 b 1 211 3 207 1 208 b 8 244 -3 226 3 236 l 8 246 b 26 269 13 253 19 263 l 26 271 b 54 306 38 283 46 292 b 85 347 61 317 72 333 b 94 376 92 356 94 364 l 94 385 l 92 389 b 50 469 74 415 63 435 b 33 499 46 481 39 489 b 22 517 31 504 26 510 l 22 518 b 19 546 19 524 13 535 b 35 557 24 554 31 557 b 53 550 39 557 46 557 b 63 538 57 546 60 542 b 69 528 65 533 67 531 b 111 474 85 511 99 492 b 139 438 121 461 129 449 l 140 436 b 124 286 182 372 172 343 b 108 265 118 281 113 272 b 86 235 103 256 96 244 l 65 214 b 64 213 65 213 64 213 b 29 194 50 199 39 194 "},"\"":{"ha":232,"x_min":0,"x_max":0,"o":"m 174 756 b 142 781 158 750 143 764 b 131 890 136 815 131 856 b 129 921 131 901 131 911 b 147 1000 126 949 128 981 b 160 1007 151 1003 156 1006 b 204 999 175 1013 193 1011 b 214 985 208 994 213 989 b 218 949 218 972 218 960 b 200 849 217 914 201 883 l 189 786 b 176 757 185 775 185 761 l 176 756 l 174 756 m 90 742 b 83 736 89 739 85 736 b 56 749 72 732 60 736 b 28 843 44 779 33 810 b 21 868 26 851 24 861 b 22 956 13 892 7 932 b 36 967 25 961 29 964 b 75 963 47 971 65 967 b 99 935 86 957 94 947 b 100 829 111 903 96 865 b 99 772 103 811 100 790 b 92 742 97 761 99 749 l 90 742 "},"'":{"ha":104,"x_min":0,"x_max":0,"o":"m 53 756 b 21 781 38 750 22 764 b 10 890 15 815 10 856 b 8 921 10 901 10 911 b 26 1000 6 949 7 981 b 39 1007 31 1003 35 1006 b 83 999 54 1013 72 1011 b 93 985 88 994 92 989 b 97 949 97 972 97 960 b 79 849 96 914 81 883 l 68 786 b 56 757 64 775 64 761 l 56 756 l 53 756 "},"@":{"ha":490,"x_min":0,"x_max":0,"o":"m 125 6 b 43 53 93 7 61 25 b 14 136 25 78 19 107 l 13 143 b 7 197 10 160 7 179 b 18 271 7 221 11 246 l 33 343 l 44 392 b 67 476 50 421 58 449 l 79 521 b 122 635 90 560 106 596 b 192 776 140 681 163 728 l 203 797 b 228 839 210 811 218 825 b 365 963 261 889 310 931 b 415 978 381 972 399 979 b 471 950 438 976 458 968 b 483 906 481 935 483 921 b 479 861 483 890 481 875 b 476 825 478 849 476 836 l 476 815 b 478 786 476 804 476 794 l 479 760 b 472 676 481 731 476 703 l 468 640 b 442 531 464 606 458 567 l 401 457 l 375 413 b 354 381 369 401 364 390 b 314 361 340 365 326 364 b 297 364 307 360 301 361 b 272 422 278 374 268 396 b 278 446 272 428 275 435 b 285 475 281 453 285 468 b 246 438 279 472 267 463 l 229 417 b 199 379 221 403 211 390 b 168 369 190 372 179 372 b 150 372 163 368 156 369 b 126 413 136 381 126 396 b 144 468 126 433 136 451 l 147 472 b 174 528 157 490 165 508 b 232 635 192 563 210 600 l 242 653 b 263 689 247 665 254 678 b 307 713 272 701 289 711 b 311 714 308 713 310 714 b 340 700 322 713 333 707 b 342 699 342 700 342 699 b 354 668 350 688 354 678 b 304 597 354 639 325 615 b 282 578 296 590 288 585 b 226 496 258 554 242 525 l 238 508 b 290 558 253 528 268 547 b 308 564 296 561 303 565 b 325 558 314 563 319 561 b 347 535 335 554 343 546 b 351 514 350 528 351 522 b 340 463 351 496 346 478 l 336 450 b 335 444 336 449 335 447 b 350 468 340 453 347 463 b 358 479 353 472 356 476 b 424 743 418 571 421 643 l 425 781 l 428 874 l 428 876 b 415 914 428 899 424 911 b 407 917 413 915 410 917 b 372 904 399 915 386 911 b 268 813 329 882 294 851 b 267 811 267 813 267 813 b 146 569 215 746 175 665 b 125 508 140 549 133 528 l 113 471 b 92 381 104 442 97 411 b 78 317 88 360 83 338 b 68 235 71 288 68 260 b 71 189 68 218 69 203 b 122 89 79 147 97 96 b 128 90 124 89 125 90 b 158 107 136 89 147 94 l 160 107 l 193 136 b 308 253 236 169 279 206 b 332 293 317 265 325 279 b 342 307 335 297 338 303 b 349 321 344 313 346 317 b 419 385 364 347 389 400 b 431 382 422 383 426 383 l 432 382 b 446 368 439 379 443 374 l 446 364 b 440 347 446 358 444 353 b 419 328 435 339 426 333 b 403 313 413 322 407 318 b 367 253 386 296 376 275 l 351 222 b 306 167 339 200 321 182 l 264 124 l 243 103 b 232 92 239 99 235 96 b 189 46 217 76 201 63 b 128 6 175 26 156 6 l 125 6 "},"&":{"ha":563,"x_min":0,"x_max":0,"o":"m 78 -25 b 24 -4 57 -25 39 -18 b 11 22 15 3 13 13 b 8 31 10 25 8 28 b 7 35 7 33 7 33 b 14 114 6 63 10 89 l 15 128 l 18 149 b 28 188 22 161 25 175 b 38 233 31 203 33 218 b 56 283 43 251 49 267 b 75 324 61 297 68 311 l 85 340 b 94 363 88 347 92 354 l 107 388 b 114 401 110 392 111 396 l 132 435 l 132 436 b 164 499 143 456 154 476 b 193 557 175 518 185 538 b 196 569 193 561 194 565 l 200 581 b 201 590 200 583 201 588 b 192 617 201 599 197 606 l 189 621 l 176 649 l 164 675 b 147 731 154 692 147 710 b 172 815 150 767 157 792 b 174 818 172 817 174 817 b 213 831 186 826 200 829 b 243 840 224 832 235 833 l 246 842 b 282 867 256 850 268 858 b 328 881 294 872 310 878 b 336 882 331 881 333 882 b 360 885 343 885 351 886 b 379 876 367 883 374 879 b 385 874 381 875 383 874 b 424 825 404 863 418 846 b 426 804 425 818 426 813 b 407 738 426 782 419 758 b 396 725 403 732 399 728 b 390 717 394 722 392 719 l 379 700 b 369 685 375 694 372 690 b 360 672 367 679 363 675 b 354 665 357 671 356 668 l 340 636 b 321 594 333 624 326 611 b 318 576 319 588 318 582 b 326 526 318 560 322 546 l 331 507 l 336 481 b 338 478 336 479 338 479 b 343 457 340 471 342 464 l 347 439 l 353 426 b 358 415 356 422 357 419 l 363 404 b 369 386 365 397 368 392 b 382 418 375 396 378 407 l 383 424 b 394 488 389 444 392 464 l 394 489 b 438 528 401 507 418 528 b 460 497 446 528 457 522 b 461 471 461 488 461 481 b 413 321 461 413 438 363 b 404 307 411 317 407 313 l 418 268 b 481 156 439 221 458 186 b 525 107 494 136 510 121 b 551 63 539 93 549 79 l 553 60 b 556 43 554 54 556 49 b 547 17 556 33 553 25 b 515 0 539 7 528 0 b 474 21 500 0 485 7 b 461 47 468 29 464 38 b 451 67 458 54 456 60 b 403 156 433 97 417 126 l 389 192 b 378 221 386 201 382 211 b 367 251 374 231 369 242 b 356 233 363 246 358 239 b 299 156 339 206 319 181 b 292 149 296 154 294 151 b 275 131 286 142 281 136 b 207 71 254 108 231 89 l 196 61 b 183 51 190 57 186 54 b 169 42 178 49 174 46 b 163 33 167 39 164 36 b 151 24 160 31 156 26 l 140 11 b 124 -6 135 6 131 0 b 81 -25 113 -14 99 -25 l 78 -25 m 96 93 b 107 101 99 93 101 96 b 182 163 128 124 151 147 b 196 169 186 165 192 167 l 215 178 b 258 214 232 190 246 201 l 264 219 b 289 250 274 229 282 238 l 294 263 b 328 322 306 283 315 303 b 336 333 331 325 333 329 l 338 335 b 332 343 336 338 335 340 b 321 357 328 346 325 350 l 311 386 b 301 414 308 396 306 404 l 296 426 b 286 450 292 433 288 442 l 282 468 l 279 485 b 265 503 275 493 269 499 l 263 506 b 261 513 263 507 261 510 b 258 519 260 514 260 517 l 257 518 l 256 518 b 249 506 253 514 250 510 b 239 486 244 499 242 493 b 229 469 236 481 233 475 l 219 449 l 211 428 b 197 397 206 418 201 407 b 161 318 186 369 174 342 l 160 315 b 140 275 151 301 144 289 b 122 233 135 260 128 247 b 117 225 119 231 118 228 b 114 213 115 221 114 217 b 108 190 113 204 111 197 l 103 158 l 99 136 b 96 94 96 122 93 108 l 96 93 m 238 671 b 240 672 239 671 239 674 b 249 678 242 671 243 672 l 250 679 b 271 707 258 688 264 696 b 294 743 278 719 288 732 l 297 747 b 313 769 303 754 308 763 b 315 781 313 772 315 778 b 308 783 313 782 311 785 b 293 776 304 782 299 781 b 264 758 282 772 274 765 b 236 740 256 751 247 746 b 226 738 232 739 229 738 l 221 738 b 214 728 218 735 215 732 l 214 714 b 238 671 214 699 225 679 "},"©":{"ha":410,"x_min":0,"x_max":0,"o":"m 89 433 b 13 497 57 433 29 447 b 7 533 8 510 7 522 b 10 568 7 546 8 557 l 11 575 b 58 743 17 629 32 681 b 119 849 76 785 97 819 b 249 972 161 903 201 940 b 313 999 268 986 289 999 b 333 994 319 999 326 997 l 335 994 b 386 883 369 967 379 921 b 394 828 392 863 393 846 l 396 818 l 397 794 l 403 739 l 403 738 b 307 536 404 660 371 589 l 279 511 b 242 479 268 500 257 490 b 164 449 217 461 193 456 l 153 444 b 89 433 131 439 108 433 m 146 536 b 94 571 122 536 104 547 b 92 614 93 585 92 599 b 104 664 93 632 99 647 b 135 726 111 686 117 708 b 140 738 139 729 138 735 l 165 778 b 182 801 169 786 176 793 b 233 868 199 824 214 847 b 250 878 239 872 243 876 b 304 844 276 882 294 867 b 308 824 307 838 308 831 b 307 813 308 821 308 817 b 288 799 304 803 297 799 b 261 803 278 799 269 803 b 242 792 253 801 249 796 b 229 782 236 789 233 786 l 213 763 b 201 744 207 757 206 750 b 174 701 192 731 182 717 b 158 657 165 688 161 672 l 154 635 b 153 608 153 626 151 618 b 157 601 153 606 154 603 b 165 601 160 600 163 600 b 201 615 178 604 190 608 b 217 622 206 618 211 619 b 235 640 224 628 229 633 b 272 675 246 653 256 668 b 279 676 274 676 276 676 b 296 665 286 676 293 672 b 297 661 296 664 297 663 b 274 626 297 647 278 632 b 233 585 258 608 251 596 b 200 563 222 576 211 571 b 168 542 190 553 179 549 b 146 536 161 539 156 536 m 154 503 b 163 504 157 503 160 504 b 197 515 175 507 186 510 b 274 575 228 531 249 550 b 343 674 301 601 332 631 b 344 701 344 683 344 692 b 342 743 344 715 343 728 l 340 782 l 340 785 b 307 928 339 831 336 889 b 288 933 300 932 293 933 b 244 915 269 933 251 922 b 94 713 178 861 128 794 b 63 554 71 656 63 613 b 78 504 63 528 68 511 b 107 496 85 499 93 496 b 154 503 119 496 135 499 "},"®":{"ha":406,"x_min":0,"x_max":0,"o":"m 101 415 b 25 469 74 415 49 428 b 7 550 10 496 8 522 l 7 551 b 43 743 4 613 15 675 b 96 836 58 783 74 806 b 210 963 131 888 158 924 b 296 997 225 974 260 997 b 310 996 300 997 306 997 b 313 994 311 996 311 996 b 379 883 353 967 369 924 b 389 826 385 861 386 846 b 390 814 389 822 389 818 l 399 729 l 399 726 b 308 525 394 646 364 576 b 285 500 297 515 290 508 b 254 471 276 492 268 482 b 199 443 235 456 219 450 l 176 435 b 101 415 150 425 125 415 m 92 486 b 114 481 97 483 106 481 b 169 493 128 481 146 485 l 181 497 b 207 507 190 500 199 503 b 265 557 231 522 246 538 l 272 564 b 336 658 306 597 325 628 b 338 690 338 669 338 681 l 335 758 b 333 776 333 764 333 771 l 333 778 b 289 924 331 826 326 886 b 271 928 283 926 276 928 b 203 900 244 928 215 911 b 79 707 147 844 111 788 b 58 594 65 669 58 632 b 63 544 58 578 60 561 b 92 486 68 513 78 494 m 115 507 b 108 508 113 507 111 507 b 92 531 96 511 93 525 l 92 540 b 100 575 92 551 93 564 b 119 617 110 588 114 600 l 119 618 b 132 657 125 629 131 643 b 136 676 133 664 133 671 b 142 696 138 683 139 690 b 149 722 143 704 146 714 b 151 728 149 724 150 726 b 153 735 151 731 153 732 b 154 740 154 736 154 738 b 157 750 156 743 156 746 l 157 751 b 160 757 158 753 160 756 b 176 808 163 775 169 792 l 181 818 b 183 831 182 822 182 826 b 189 847 185 836 186 842 b 211 878 193 857 201 868 b 232 889 218 883 225 886 b 236 890 233 889 235 889 b 254 893 242 893 249 893 b 290 871 269 893 283 886 b 304 828 300 851 304 840 b 293 789 304 818 300 806 b 288 779 292 785 289 782 b 276 765 283 775 281 769 b 269 754 275 761 272 757 l 268 753 b 260 743 265 750 263 747 l 256 739 b 251 735 253 738 251 736 l 240 724 b 232 714 238 719 235 717 l 244 710 b 251 708 246 710 249 708 b 275 701 260 707 267 704 l 290 697 b 318 663 307 693 318 678 b 297 632 318 649 310 636 b 285 631 293 631 289 631 b 251 644 272 631 260 635 l 247 649 b 235 658 243 653 239 656 b 222 661 231 660 226 661 b 207 664 217 661 213 663 b 178 693 193 669 182 681 b 176 689 178 692 178 690 b 171 661 175 679 174 669 b 156 615 167 646 161 629 l 147 593 b 138 560 144 582 142 571 b 135 549 138 556 136 553 b 136 539 135 546 135 543 b 136 524 136 535 138 529 b 128 511 136 518 133 514 b 115 507 125 508 119 507 m 190 746 b 213 767 196 753 203 760 b 233 789 221 774 228 782 b 240 803 236 793 239 797 l 250 821 b 254 829 251 822 254 826 b 247 847 254 836 251 846 l 246 847 b 226 826 235 847 229 833 b 222 817 226 822 224 819 b 219 810 221 814 219 811 b 214 800 218 806 217 801 b 204 785 210 794 207 790 b 201 776 203 782 201 779 b 200 772 200 775 200 774 b 197 767 199 771 199 769 b 194 758 196 764 194 761 l 190 746 "},"°":{"ha":311,"x_min":0,"x_max":0,"o":"m 107 650 b 7 713 64 646 3 663 b 50 832 6 758 15 799 b 92 875 65 844 78 861 b 158 911 108 894 135 904 b 303 856 206 926 282 899 l 303 853 b 268 767 310 822 282 794 b 229 708 256 744 244 725 b 107 650 204 676 147 654 m 132 731 b 197 817 165 750 186 782 l 197 818 b 160 842 206 844 182 846 b 96 760 126 833 103 794 b 132 731 92 732 103 715 "},"¢":{"ha":421,"x_min":0,"x_max":0,"o":"m 165 129 b 147 140 158 129 151 133 b 140 158 144 146 142 153 b 139 174 139 164 139 168 l 139 215 b 142 208 139 196 140 203 b 143 214 143 210 143 213 b 150 242 146 224 149 233 b 157 265 153 250 154 258 l 157 267 l 119 247 b 93 239 110 243 103 239 b 13 290 54 243 32 258 b 7 344 10 308 7 325 b 21 424 7 371 13 397 b 63 513 28 457 40 486 l 63 514 b 71 529 68 518 67 524 b 110 593 86 550 96 569 b 139 628 118 607 122 615 b 240 678 167 650 203 665 b 251 738 246 697 249 719 b 257 771 253 750 254 761 b 260 783 258 774 260 779 l 264 797 b 285 829 267 811 272 826 b 325 828 299 832 311 831 b 340 783 343 824 343 800 b 335 765 339 776 336 771 b 333 763 333 764 333 763 l 333 757 l 325 732 l 317 703 l 325 707 b 356 713 339 711 346 715 b 413 644 394 704 406 681 b 414 660 414 640 414 664 b 404 600 414 621 411 611 b 385 588 399 592 393 588 b 328 606 361 588 353 604 b 290 601 318 606 304 604 l 286 588 b 278 553 285 576 282 564 b 275 543 276 550 275 547 b 274 538 275 542 275 539 b 272 531 274 535 274 533 b 271 522 272 528 272 525 b 269 513 271 519 269 515 l 263 482 l 254 457 l 250 446 b 231 367 242 419 236 393 l 231 364 l 254 376 b 328 406 279 388 301 403 b 354 381 344 407 356 403 b 308 342 353 360 319 347 b 226 299 276 325 256 311 l 217 294 b 215 290 217 293 215 292 b 211 275 215 285 214 279 b 204 249 207 267 206 258 l 204 246 b 201 235 203 242 203 238 b 200 226 201 232 200 229 l 194 199 b 188 160 192 185 189 172 b 182 142 188 153 185 146 b 165 129 179 135 172 131 m 179 422 b 200 504 183 451 190 479 b 206 524 203 511 206 518 b 218 586 210 544 213 565 l 218 588 b 175 565 201 581 188 575 b 161 540 167 557 165 549 l 122 478 b 100 413 110 458 104 436 l 97 382 b 99 346 97 360 97 353 b 106 336 99 342 101 338 b 119 335 110 333 115 333 l 167 346 l 175 393 l 179 422 "},"$":{"ha":631,"x_min":0,"x_max":0,"o":"m 243 -11 b 226 -19 239 -17 232 -19 b 201 -3 217 -19 208 -14 b 197 14 199 3 197 8 b 206 54 197 26 203 40 b 222 131 211 81 215 106 l 226 140 l 175 131 b 163 81 171 114 168 97 b 138 24 156 61 150 40 b 125 18 135 19 129 18 b 107 38 115 18 104 25 b 124 125 111 67 117 96 l 115 125 b 7 182 61 125 7 151 b 79 229 7 194 18 217 b 113 222 90 228 103 225 l 143 215 b 181 344 156 258 165 301 l 207 422 l 186 422 b 78 507 124 425 78 433 b 122 626 78 549 101 589 b 143 669 129 640 138 656 b 283 799 185 719 229 761 l 328 814 b 347 883 335 836 342 860 b 372 972 354 913 351 947 b 388 979 376 976 382 979 b 410 964 396 979 404 975 l 411 963 b 414 949 414 958 414 953 b 407 908 414 936 408 924 b 390 838 401 885 397 861 b 389 829 390 835 389 832 b 401 832 393 831 397 832 l 443 843 b 464 928 450 871 454 900 b 489 989 471 949 476 971 b 503 994 492 993 497 994 b 522 974 514 994 525 986 b 501 865 517 938 508 901 b 546 875 515 871 531 875 b 624 789 579 875 617 860 l 624 786 b 553 671 615 736 585 704 l 550 668 b 504 646 538 654 519 646 b 489 650 499 646 493 647 b 479 668 482 654 479 660 b 482 685 479 672 481 679 b 496 711 486 701 490 706 b 508 729 500 715 504 719 b 515 783 513 738 522 775 b 497 792 510 789 504 792 b 483 789 493 792 489 790 b 444 650 471 742 460 696 l 388 488 l 393 488 b 506 433 438 479 478 468 b 538 357 526 404 538 379 b 535 338 538 350 536 344 b 478 269 524 306 501 288 b 439 235 464 260 450 249 b 313 167 403 206 360 182 l 289 158 b 269 82 282 133 274 108 b 243 -11 261 51 264 14 m 196 207 b 228 206 207 206 217 206 b 250 207 235 206 243 206 b 267 260 256 224 263 242 b 315 425 281 315 299 369 b 258 422 296 424 278 422 b 224 297 246 381 233 339 b 196 207 217 267 206 236 m 315 224 b 429 293 356 242 394 258 b 436 300 432 296 435 297 b 471 357 453 315 471 333 b 467 376 471 363 469 369 b 367 428 451 419 408 428 b 346 351 358 401 353 376 b 307 219 335 307 318 264 l 308 221 l 315 224 m 247 532 b 274 628 257 563 265 596 b 306 731 282 663 294 696 b 268 708 292 726 279 719 b 168 542 214 663 183 611 b 232 492 186 515 208 500 l 247 532 m 279 485 b 336 486 297 485 317 485 b 399 700 358 557 381 628 b 418 764 404 722 411 743 l 371 750 b 358 747 367 750 363 749 l 349 715 b 279 485 329 638 303 561 "},"€":{"ha":433,"x_min":0,"x_max":0,"o":"m 85 0 b 7 64 44 0 7 19 b 17 107 7 79 13 93 l 18 108 b 33 174 25 129 29 151 b 58 250 39 203 47 228 b 75 296 64 264 69 278 l 83 333 b 101 401 88 356 92 379 b 131 469 108 425 119 449 l 150 508 l 143 508 b 118 513 135 508 126 508 b 111 513 117 514 114 514 b 97 511 107 511 101 511 b 82 513 92 511 88 511 l 79 513 b 71 511 76 511 72 511 b 51 522 63 511 57 515 b 49 531 50 525 49 528 b 53 542 49 533 50 538 b 71 549 57 549 63 550 b 79 550 74 549 76 549 b 139 551 86 554 135 551 l 169 551 l 178 569 l 182 583 b 179 582 181 583 181 582 b 174 581 176 582 175 581 l 169 581 b 156 578 165 579 161 578 l 136 578 b 93 583 121 578 107 579 b 79 592 88 586 83 588 b 72 608 74 596 72 601 b 89 629 72 619 79 628 l 104 632 l 111 633 b 115 632 113 633 114 633 l 132 631 b 157 629 140 631 149 631 b 164 631 158 629 161 629 l 175 631 b 190 632 181 631 185 632 b 203 635 194 632 199 633 l 204 635 b 229 710 214 660 222 685 b 276 836 243 751 256 794 l 281 843 b 310 888 289 858 297 874 b 324 908 315 894 319 901 b 342 935 329 918 335 928 b 379 950 351 944 365 950 b 426 888 414 950 426 915 l 424 849 l 421 826 b 419 814 421 822 419 818 b 415 758 417 796 414 776 b 417 739 417 751 417 744 b 389 686 417 719 410 706 b 349 663 382 679 367 663 b 322 676 338 663 328 668 b 319 690 319 681 319 686 b 321 701 319 694 319 697 b 329 717 322 707 326 713 b 336 733 332 722 335 728 b 339 757 339 740 339 749 b 346 792 339 768 339 781 b 349 799 346 794 347 796 b 354 810 351 801 353 806 b 358 836 357 817 357 826 b 361 860 358 844 360 851 l 361 861 b 317 801 349 854 322 813 b 276 692 299 767 288 731 l 271 671 l 263 640 l 288 640 b 301 640 292 640 296 639 b 328 635 310 640 319 639 b 338 635 331 633 333 633 b 354 638 343 638 349 638 b 369 635 360 638 365 638 b 375 635 371 633 372 635 b 385 636 378 636 381 636 b 404 624 392 636 399 632 b 407 614 406 621 407 618 b 403 603 407 611 406 607 b 388 594 400 597 394 594 b 374 594 381 594 376 596 b 350 593 365 590 357 590 b 346 594 349 593 347 593 b 342 596 344 594 343 594 l 333 596 b 304 592 325 592 315 590 b 294 593 301 593 299 593 b 285 592 292 592 288 592 l 265 592 b 246 590 258 592 251 592 l 233 558 l 242 558 b 249 560 243 558 246 560 b 253 561 250 561 251 561 l 257 563 b 268 564 260 563 264 564 l 285 565 b 324 558 299 565 311 563 b 335 553 329 557 332 554 b 343 536 340 547 343 543 b 326 517 343 528 335 518 b 314 515 322 517 318 515 l 308 514 l 303 514 l 289 515 b 268 517 282 517 275 517 l 258 517 b 251 515 256 517 254 515 l 239 515 b 228 513 235 514 231 514 b 218 511 225 513 222 511 b 211 510 217 511 214 510 l 194 479 b 154 388 179 450 163 419 b 144 333 150 369 147 350 b 128 239 140 301 135 271 l 115 210 l 104 182 b 94 117 99 163 96 143 b 103 96 94 107 97 99 b 108 94 104 94 107 94 b 124 99 113 94 118 96 b 158 126 136 107 147 117 b 185 150 167 135 175 143 b 208 164 192 156 200 160 b 214 167 210 165 213 165 b 236 185 222 171 229 178 l 244 193 b 297 250 264 208 281 228 b 314 278 304 258 308 268 b 326 299 318 283 322 292 b 350 361 342 319 350 342 l 350 364 b 335 414 350 379 347 406 b 306 444 322 419 313 431 b 304 451 304 447 304 449 b 310 467 304 456 306 461 b 376 507 324 485 363 510 b 422 463 400 503 418 485 b 424 450 424 458 424 454 b 418 419 424 439 421 429 b 414 399 417 413 414 406 b 414 376 413 392 414 383 b 415 368 414 374 415 371 b 403 300 417 347 413 324 b 390 279 400 293 396 286 b 376 256 386 272 381 264 b 360 232 371 249 367 240 l 347 211 b 310 163 336 194 325 176 l 293 146 b 278 131 289 140 283 136 b 246 106 268 121 257 114 l 228 93 b 186 57 215 83 200 72 l 185 56 b 110 3 165 33 143 8 b 85 0 101 1 93 0 "},"£":{"ha":833,"x_min":0,"x_max":0,"o":"m 257 0 b 224 7 246 0 236 3 b 160 11 203 11 183 11 b 149 10 156 11 153 11 b 115 6 138 10 126 8 l 86 1 b 13 31 50 -1 25 8 b 8 49 10 36 8 43 b 22 86 8 61 13 75 b 44 108 29 96 36 103 b 65 129 53 115 61 121 l 78 149 b 99 186 86 160 93 171 b 110 257 107 208 110 233 b 108 293 110 269 110 281 b 104 292 107 292 106 292 b 99 290 101 292 100 290 b 85 289 94 290 90 289 b 64 288 78 288 71 288 b 19 294 49 288 33 289 b 6 303 13 297 8 299 b 1 325 0 308 -1 317 b 19 342 4 333 11 340 l 36 344 l 43 346 b 49 344 44 346 47 346 l 65 343 b 90 342 74 343 82 343 b 99 343 93 342 96 342 l 101 343 b 99 360 100 349 99 354 b 86 468 92 396 86 432 b 88 500 86 479 86 490 l 90 514 b 100 597 96 551 96 560 b 101 607 100 600 100 604 b 117 685 104 632 107 658 b 150 740 125 706 138 724 l 164 763 l 179 792 l 182 797 b 219 857 192 818 203 838 b 257 908 232 872 246 889 b 263 918 258 911 260 915 b 306 964 272 936 282 956 b 338 971 317 968 328 971 b 410 932 364 971 388 957 l 411 932 l 411 931 b 436 844 431 906 435 875 b 444 808 436 831 440 821 l 456 781 b 468 751 461 772 465 763 l 472 738 l 478 717 b 483 667 483 700 483 682 b 485 646 483 660 483 653 l 485 599 b 486 594 486 597 486 596 b 485 576 486 589 486 583 b 456 517 479 554 469 535 l 449 508 b 438 493 444 504 440 499 b 428 474 433 488 431 481 b 401 433 422 461 417 446 b 354 413 386 419 369 413 b 329 418 346 413 338 414 b 299 476 313 426 301 457 b 297 488 299 481 297 483 b 308 517 297 500 301 510 b 347 531 322 529 336 531 b 356 532 350 531 353 532 b 396 563 369 533 385 544 b 408 614 408 579 408 593 l 408 631 b 407 658 408 640 408 649 b 393 718 406 678 400 696 b 390 726 392 721 390 724 b 381 747 388 735 385 742 b 365 775 375 757 369 765 b 357 810 361 786 358 799 b 347 843 354 822 351 833 b 336 854 344 850 340 853 l 333 854 b 315 847 328 854 322 851 b 274 806 299 835 288 821 b 264 785 269 799 267 792 b 251 761 260 776 257 769 l 181 667 b 167 585 169 638 168 615 b 165 563 167 578 167 569 b 157 497 164 542 161 519 b 149 417 153 469 149 440 b 158 354 150 396 154 376 l 158 350 b 178 353 165 351 172 353 b 203 354 186 354 194 354 l 218 354 b 226 353 221 354 224 353 l 246 353 b 274 347 254 353 264 353 b 283 347 275 347 278 346 b 301 350 290 350 296 350 b 317 347 307 350 313 350 b 322 347 318 346 321 347 b 332 350 326 349 329 350 b 353 335 342 350 349 344 b 354 328 354 333 354 331 b 349 314 354 324 353 319 b 333 306 346 308 340 306 b 317 306 328 306 322 307 b 303 303 313 303 307 303 b 292 304 299 303 296 303 b 289 306 292 304 290 306 b 283 307 288 306 285 306 b 275 307 281 308 279 308 b 244 303 265 303 254 301 b 233 304 242 304 238 304 l 224 304 b 213 304 219 303 215 303 b 175 299 199 304 186 301 b 167 297 172 299 169 299 b 172 238 169 278 172 258 b 160 161 172 213 168 186 b 142 131 157 154 151 144 b 118 89 135 119 124 101 b 154 94 131 93 142 94 b 165 96 157 94 161 96 b 172 99 167 96 168 97 b 183 104 175 100 179 103 b 208 108 192 107 200 108 b 243 103 221 108 232 106 b 258 99 247 101 253 99 l 261 99 b 274 104 264 99 267 100 b 293 113 279 107 285 111 b 304 114 297 114 300 114 b 326 107 311 114 319 111 b 340 86 333 103 339 94 b 314 29 346 63 329 43 b 257 0 293 10 276 0 "},"¥":{"ha":454,"x_min":0,"x_max":0,"o":"m 49 0 b 10 31 31 1 13 13 b 7 68 8 44 7 57 b 14 113 7 83 8 97 b 39 167 17 122 29 147 l 49 188 b 78 238 57 210 68 224 b 107 289 89 253 100 267 l 118 317 l 131 350 l 114 350 b 89 354 106 350 97 350 b 82 354 88 356 85 356 b 68 353 78 353 72 353 b 53 354 63 353 58 353 b 50 354 53 356 51 354 b 42 353 47 353 43 353 b 22 364 33 353 28 357 b 24 383 21 369 18 376 b 38 392 28 389 32 392 b 50 392 46 392 46 390 b 82 394 54 394 68 394 b 111 393 96 394 108 394 l 149 393 b 154 406 151 397 153 401 b 164 426 157 413 160 419 b 158 425 161 426 160 426 b 150 424 156 425 153 425 b 144 422 149 424 146 424 l 140 422 b 126 419 136 421 132 419 l 107 419 b 64 425 93 419 78 421 b 51 433 58 428 54 431 b 43 457 44 439 42 449 b 60 471 46 464 53 469 b 75 474 65 472 71 474 l 82 475 b 88 474 83 475 85 475 l 103 474 l 128 471 b 135 472 129 471 132 471 l 146 472 b 161 474 151 474 157 474 b 175 476 165 475 169 475 b 181 478 176 476 179 476 l 181 479 b 167 547 181 506 175 528 b 158 590 163 561 160 576 b 150 629 156 603 154 617 l 150 631 b 138 725 144 660 139 692 l 139 725 l 139 771 b 140 821 139 788 139 804 b 139 854 140 832 140 843 b 135 879 139 863 136 869 b 129 924 131 893 126 908 l 129 925 b 169 953 133 942 149 953 b 215 929 189 953 208 943 b 228 892 222 917 225 904 b 229 876 229 886 229 881 b 225 839 229 863 226 850 b 222 819 224 832 222 826 l 217 793 b 210 743 213 775 208 760 l 210 742 b 206 699 210 729 208 714 b 203 661 204 686 203 674 b 219 621 203 639 210 632 b 233 601 224 615 229 610 b 236 597 235 600 235 599 b 246 606 239 601 243 604 b 253 613 250 608 251 610 b 294 699 269 642 283 669 b 338 808 314 736 325 768 l 342 836 b 343 850 342 842 343 846 b 338 865 343 854 342 858 b 331 883 335 869 331 876 b 329 893 331 886 329 889 b 350 928 329 911 342 919 l 353 929 b 390 953 361 938 379 949 b 400 954 393 954 396 954 b 422 944 407 954 415 951 b 447 881 439 929 447 906 b 446 861 447 874 447 868 b 429 828 443 849 436 838 l 421 815 b 410 790 415 808 413 800 b 401 768 407 783 406 775 l 386 744 b 365 710 378 733 369 722 l 365 708 b 356 685 361 701 358 693 b 340 653 351 675 347 664 b 306 596 326 635 315 615 b 300 585 304 592 301 589 b 263 511 285 563 274 540 l 261 511 b 256 486 257 504 256 494 b 254 482 254 485 254 483 l 272 482 b 299 476 281 482 290 482 b 308 476 301 475 304 475 b 325 479 314 479 319 479 b 340 476 331 479 336 479 b 346 476 342 475 343 476 b 356 478 349 478 351 478 b 375 465 363 478 369 474 b 375 444 378 461 381 453 b 360 436 372 439 367 436 b 344 436 351 436 347 438 b 321 435 336 432 328 432 b 317 436 319 435 318 436 b 313 438 315 436 314 436 l 304 438 b 275 433 296 433 286 433 b 265 435 272 435 269 435 l 256 435 b 244 435 253 433 249 433 b 229 433 239 435 233 435 b 208 400 221 424 214 413 l 213 400 b 219 401 214 401 217 401 b 224 403 221 403 222 403 l 228 404 b 239 406 232 404 235 406 l 256 407 b 294 400 269 407 282 404 b 307 394 300 399 304 397 b 313 372 313 389 315 381 b 297 358 311 365 306 360 b 285 357 293 358 289 357 l 279 356 b 274 357 278 356 275 356 l 261 357 b 239 358 253 358 246 358 l 229 358 b 222 357 228 358 225 358 l 210 357 l 199 354 b 190 353 196 354 193 353 l 189 353 l 189 351 b 176 311 183 339 181 326 b 168 279 174 301 172 290 l 167 275 b 154 226 163 258 160 243 b 150 196 151 215 151 206 b 136 139 147 178 146 160 b 114 65 126 115 118 85 b 97 39 113 56 104 47 b 85 22 92 33 86 26 b 51 0 81 8 68 0 l 49 0 "},"+":{"ha":406,"x_min":0,"x_max":0,"o":"m 125 185 b 113 196 119 188 115 192 b 110 218 107 201 106 211 b 126 263 117 232 122 247 b 136 310 131 278 135 293 b 115 361 140 329 140 357 b 11 383 82 369 32 347 l 11 385 b 72 443 -7 424 32 454 b 167 464 113 433 138 428 b 196 515 178 479 188 497 b 260 576 219 563 199 588 b 279 544 276 578 282 560 b 250 482 272 522 258 503 b 242 451 246 471 239 458 b 264 442 244 443 256 442 b 310 440 278 440 293 440 l 311 440 b 389 429 338 439 367 446 b 394 390 401 421 400 404 b 350 368 388 375 365 371 b 282 358 326 367 304 357 b 236 361 267 358 251 364 b 203 300 208 356 207 324 l 190 233 l 185 208 l 181 201 b 125 185 168 182 149 171 "},"−":{"ha":446,"x_min":0,"x_max":0,"o":"m 93 354 b 38 363 74 354 56 356 b 18 372 29 365 24 368 b 8 408 8 382 4 396 b 33 431 11 419 21 429 l 53 435 l 61 436 b 69 435 64 436 67 436 l 88 433 b 119 432 99 432 108 432 b 126 432 121 431 124 432 l 132 432 b 142 433 135 432 139 433 b 161 435 149 433 154 433 b 176 438 165 435 171 436 b 189 440 181 438 185 439 l 219 444 l 249 446 b 268 444 256 446 261 446 l 300 444 b 338 438 311 444 324 444 b 343 438 338 436 340 436 b 388 438 358 443 374 442 l 390 438 b 435 421 410 444 425 438 b 433 389 440 410 440 399 b 403 376 426 378 415 374 b 393 375 397 376 396 376 b 358 374 382 369 369 369 b 356 375 358 375 357 375 b 349 378 353 375 351 376 b 343 376 347 378 346 378 b 304 372 331 372 318 371 b 292 374 300 374 296 374 b 281 372 288 374 285 374 l 265 372 b 225 368 251 374 236 371 b 211 365 221 367 217 367 b 190 364 204 365 197 365 l 157 363 b 149 360 156 363 151 361 b 140 358 146 360 143 360 l 136 358 b 118 356 131 357 125 356 b 93 354 110 354 101 354 "},"×":{"ha":343,"x_min":0,"x_max":0,"o":"m 211 183 b 161 251 185 197 176 228 l 161 253 b 138 297 153 268 146 283 b 118 311 133 304 126 314 b 93 289 110 311 100 299 b 47 231 76 269 65 247 b 8 232 35 219 14 215 b 46 299 0 260 31 281 b 81 353 60 315 72 333 b 40 476 100 397 69 443 b 69 554 10 510 24 551 l 71 554 b 144 468 117 553 119 494 b 204 474 161 446 188 460 b 243 506 218 483 231 493 b 278 544 257 517 267 531 b 300 553 282 551 292 556 b 317 546 306 553 311 550 b 328 485 342 531 340 507 b 324 478 328 482 326 481 l 303 460 l 246 415 b 206 353 226 400 197 382 b 231 310 210 336 222 325 b 254 242 243 289 246 264 b 257 189 260 225 268 203 b 211 183 246 175 226 176 "},"÷":{"ha":446,"x_min":0,"x_max":0,"o":"m 93 354 b 38 363 74 354 56 356 b 18 372 29 365 24 368 b 8 408 8 382 4 396 b 33 431 11 419 21 429 l 53 435 l 61 436 b 69 435 64 436 67 436 l 88 433 b 119 432 99 432 108 432 b 126 432 121 431 124 432 l 132 432 b 142 433 135 432 139 433 b 161 435 149 433 154 433 b 176 438 165 435 171 436 b 189 440 181 438 185 439 l 219 444 l 249 446 b 268 444 256 446 261 446 l 300 444 b 338 438 311 444 324 444 b 343 438 338 436 340 436 b 388 438 358 443 374 442 l 390 438 b 435 421 410 444 425 438 b 433 389 440 410 440 399 b 403 376 426 378 415 374 b 393 375 397 376 396 376 b 358 374 382 369 369 369 b 356 375 358 375 357 375 b 349 378 353 375 351 376 b 343 376 347 378 346 378 b 304 372 331 372 318 371 b 292 374 300 374 296 374 b 281 372 288 374 285 374 l 265 372 b 225 368 251 374 236 371 b 211 365 221 367 217 367 b 190 364 204 365 197 365 l 157 363 b 149 360 156 363 151 361 b 140 358 146 360 143 360 l 136 358 b 118 356 131 357 125 356 b 93 354 110 354 101 354 m 172 154 b 140 178 157 154 146 164 b 138 194 139 183 138 189 b 167 251 138 218 151 239 b 188 264 174 257 181 260 l 196 272 b 228 288 204 282 215 288 b 254 278 236 288 246 285 b 271 247 264 269 269 260 l 271 228 b 269 219 271 225 269 222 b 263 211 269 213 269 214 l 257 207 l 232 185 b 215 169 226 179 221 174 b 175 154 203 163 189 156 l 172 154 m 196 514 b 164 538 181 514 169 524 b 161 554 163 543 161 549 b 190 611 161 578 175 599 b 211 624 197 617 204 619 l 219 632 b 251 647 228 642 239 647 b 278 638 260 647 269 644 b 293 607 288 629 293 619 l 294 588 b 293 579 294 585 293 582 b 286 571 293 572 293 574 l 281 567 l 256 544 b 239 531 250 539 244 533 b 199 514 226 522 213 515 l 196 514 "},"=":{"ha":469,"x_min":0,"x_max":0,"o":"m 199 283 b 181 285 193 283 188 283 l 149 285 b 111 292 138 285 124 285 b 104 292 110 293 108 293 b 60 292 89 286 74 288 l 57 292 b 13 308 38 285 22 292 b 13 342 6 319 6 331 b 43 354 19 351 31 356 b 54 354 49 353 51 353 b 144 357 67 361 140 358 l 183 357 b 225 363 199 356 213 358 b 239 364 229 363 233 364 b 260 365 246 365 253 365 l 293 368 b 303 369 296 368 300 369 b 311 371 306 371 308 371 b 315 372 313 372 314 372 b 333 375 321 374 326 375 b 415 368 360 378 388 378 b 435 357 424 365 431 361 b 446 321 444 347 449 333 b 419 299 442 310 432 300 l 400 294 l 392 293 b 383 294 389 293 386 293 l 364 296 l 332 299 b 325 297 331 299 328 297 l 319 297 b 310 296 315 297 313 297 b 290 294 303 296 296 296 b 274 292 285 294 279 293 b 261 290 269 292 265 290 b 231 285 251 288 240 286 l 200 283 l 199 283 m 117 418 b 61 426 97 418 79 419 b 42 436 53 429 47 432 b 32 472 32 446 28 460 b 57 494 35 483 44 493 l 76 499 l 85 500 b 93 499 88 500 90 500 l 111 497 b 143 496 122 496 132 496 b 150 496 144 494 147 496 l 156 496 b 165 497 158 496 163 497 b 185 499 172 497 178 497 b 200 501 189 499 194 500 b 213 504 204 501 208 503 l 243 508 l 272 510 b 292 508 279 510 285 510 l 324 508 b 361 501 335 508 347 508 b 367 501 361 500 364 500 b 411 501 382 507 397 506 l 414 501 b 458 485 433 508 449 501 b 457 453 464 474 464 463 b 426 440 450 442 439 438 b 417 439 421 440 419 440 b 382 438 406 433 393 433 b 379 439 382 439 381 439 b 372 442 376 439 375 440 b 367 440 371 442 369 442 b 328 436 354 436 342 435 b 315 438 324 438 319 438 b 304 436 311 438 308 438 l 289 436 b 249 432 275 438 260 435 b 235 429 244 431 240 431 b 214 428 228 429 221 429 l 181 426 b 172 424 179 426 175 425 b 164 422 169 424 167 424 l 160 422 b 142 419 154 421 149 419 b 117 418 133 418 125 418 "},"%":{"ha":479,"x_min":0,"x_max":0,"o":"m 108 6 b 100 1 106 3 103 1 b 89 8 96 1 93 4 b 79 22 85 13 82 18 b 76 35 78 26 76 31 b 78 46 76 38 78 42 b 93 69 81 57 86 63 b 107 89 100 75 104 82 l 117 111 b 122 126 119 117 121 121 l 139 182 b 144 210 142 192 142 200 l 149 222 b 160 244 153 229 157 236 l 168 279 b 171 285 169 281 169 282 l 175 301 l 179 325 b 186 353 182 335 186 343 b 190 364 186 357 189 361 l 194 382 l 194 385 b 204 429 201 399 201 414 b 213 465 207 442 211 453 b 218 499 215 476 217 488 b 222 507 219 501 219 504 b 228 535 228 515 228 525 l 228 556 b 231 575 229 561 229 568 b 236 592 232 581 233 586 b 240 613 240 597 240 606 b 249 654 240 628 243 642 b 251 669 250 658 251 664 b 254 696 251 678 251 686 b 267 763 261 717 264 740 l 274 796 b 279 836 276 810 278 822 l 285 867 b 294 903 288 879 290 890 b 307 932 297 913 303 922 l 311 943 b 326 957 315 949 319 954 l 349 969 b 371 974 356 972 364 974 b 388 971 376 974 382 974 b 414 931 404 965 414 949 b 407 897 414 918 410 908 b 400 888 406 894 403 892 b 390 872 397 883 393 878 l 375 832 b 374 828 375 831 375 829 b 363 782 371 813 367 797 l 356 756 b 350 742 354 750 351 746 b 336 697 346 726 338 714 b 331 686 336 693 333 689 b 322 649 324 674 321 663 l 322 640 l 318 610 l 314 594 b 304 554 308 582 307 568 l 299 507 b 297 503 299 506 297 504 b 289 469 292 492 292 481 l 281 440 l 276 424 l 267 388 l 267 381 b 264 353 267 371 267 361 b 258 335 261 347 260 340 b 257 329 258 333 257 331 b 251 311 253 324 253 317 l 247 297 b 233 260 240 286 238 272 b 215 210 228 243 224 225 l 211 200 b 204 179 208 193 206 186 b 199 161 201 174 200 167 b 192 135 199 151 194 143 l 171 93 b 168 88 171 90 169 89 b 161 67 168 79 164 72 b 157 53 158 63 157 58 b 147 36 156 47 153 42 l 132 21 b 122 14 129 18 125 17 l 108 6 m 339 229 b 358 226 340 231 349 226 b 390 254 368 226 381 232 b 410 317 397 274 406 296 b 417 344 413 325 415 335 b 418 385 418 357 419 371 b 417 419 417 396 418 408 b 410 428 415 426 413 428 b 390 415 403 428 394 421 b 349 328 371 392 356 361 b 335 269 346 308 339 289 l 333 246 b 339 229 333 236 335 229 m 343 151 b 288 244 285 151 285 207 l 289 282 l 289 292 b 292 317 289 300 290 308 b 308 365 294 333 304 349 b 331 407 311 381 322 393 b 343 446 338 419 335 435 b 368 468 349 456 360 461 b 394 488 376 475 383 486 l 399 488 b 425 479 407 488 417 483 b 454 453 438 472 446 463 b 476 410 463 439 474 426 l 478 410 b 479 397 478 406 479 401 b 474 374 479 389 478 381 b 467 353 471 367 468 360 b 436 247 457 317 449 282 b 361 156 425 201 401 178 b 343 151 356 153 349 151 m 51 578 b 61 569 53 572 57 569 b 89 585 71 569 85 578 b 142 681 115 611 133 644 b 156 742 144 701 151 721 l 156 750 b 146 785 156 763 154 786 b 136 763 140 779 142 768 b 129 756 135 760 132 757 b 111 751 124 754 117 751 b 86 758 100 751 93 758 b 76 751 83 758 79 757 b 53 685 64 732 57 708 b 46 657 50 676 46 667 l 46 635 b 47 614 46 628 46 621 b 51 578 49 603 49 590 m 63 501 b 0 579 11 501 0 542 b 1 607 0 589 0 599 b 1 649 0 621 3 635 l 1 660 b 4 689 1 669 3 679 b 24 743 8 708 18 725 b 49 790 28 761 40 775 b 64 836 57 804 54 822 b 92 861 69 847 82 853 b 121 882 100 869 108 881 l 126 882 b 157 872 138 882 147 876 b 189 843 169 865 179 854 b 215 794 199 828 211 813 b 217 779 215 789 217 785 b 213 753 217 771 215 761 b 203 729 210 746 206 738 b 168 610 193 689 183 649 b 85 506 157 557 131 531 b 63 501 78 503 69 501 "},"‰":{"ha":697,"x_min":0,"x_max":0,"o":"m 115 6 b 107 1 113 3 110 1 b 96 8 103 1 100 4 b 86 22 92 13 89 18 b 83 35 85 26 83 31 b 85 46 83 38 85 42 b 100 69 88 57 93 63 b 114 89 107 75 111 82 l 124 111 b 129 126 126 117 128 121 l 146 182 b 151 210 149 192 149 200 l 156 222 b 167 244 160 229 164 236 l 175 279 b 178 285 176 281 176 282 l 182 301 l 186 325 b 193 353 189 335 193 343 b 197 364 193 357 196 361 l 201 382 l 201 385 b 211 429 208 399 208 414 b 219 465 214 442 218 453 b 225 499 222 476 224 488 b 229 507 226 501 226 504 b 235 535 235 515 235 525 l 235 556 b 238 575 236 561 236 568 b 243 592 239 581 240 586 b 247 613 247 597 247 606 b 256 654 247 628 250 642 b 258 669 257 658 258 664 b 261 696 258 678 258 686 b 274 763 268 717 271 740 l 281 796 b 286 836 283 810 285 822 l 292 867 b 301 903 294 879 297 890 b 314 932 304 913 310 922 l 318 943 b 333 957 322 949 326 954 l 356 969 b 378 974 363 972 371 974 b 394 971 383 974 389 974 b 421 931 411 965 421 949 b 414 897 421 918 417 908 b 407 888 413 894 410 892 b 397 872 404 883 400 878 l 382 832 b 381 828 382 831 382 829 b 369 782 378 813 374 797 l 363 756 b 357 742 361 750 358 746 b 343 697 353 726 344 714 b 338 686 343 693 340 689 b 329 649 331 674 328 663 l 329 640 l 325 610 l 321 594 b 311 554 315 582 314 568 l 306 507 b 304 503 306 506 304 504 b 296 469 299 492 299 481 l 288 440 l 283 424 l 274 388 l 274 381 b 271 353 274 371 274 361 b 265 335 268 347 267 340 b 264 329 265 333 264 331 b 258 311 260 324 260 317 l 254 297 b 240 260 247 286 244 272 b 222 210 235 243 231 225 l 218 200 b 211 179 215 193 213 186 b 206 161 208 174 207 167 b 199 135 206 151 201 143 l 178 93 b 175 88 178 90 176 89 b 168 67 175 79 171 72 b 164 53 165 63 164 58 b 154 36 163 47 160 42 l 139 21 b 129 14 136 18 132 17 l 115 6 m 346 229 b 365 226 347 231 356 226 b 397 254 375 226 388 232 b 417 317 404 274 413 296 b 424 344 419 325 422 335 b 425 385 425 357 426 371 b 424 419 424 396 425 408 b 417 428 422 426 419 428 b 397 415 410 428 401 421 b 356 328 378 392 363 361 b 342 269 353 308 346 289 l 340 246 b 346 229 340 236 342 229 m 350 151 b 294 244 292 151 292 207 l 296 282 l 296 292 b 299 317 296 300 297 308 b 315 365 301 333 311 349 b 338 407 318 381 329 393 b 350 446 344 419 342 435 b 375 468 356 456 367 461 b 401 488 383 475 390 486 l 406 488 b 432 479 414 488 424 483 b 461 453 444 472 453 463 b 483 410 469 439 481 426 l 485 410 b 486 397 485 406 486 401 b 481 374 486 389 485 381 b 474 353 478 367 475 360 b 443 247 464 317 456 282 b 368 156 432 201 408 178 b 350 151 363 153 356 151 m 58 578 b 68 569 60 572 64 569 b 96 585 78 569 92 578 b 149 681 122 611 140 644 b 163 742 151 701 158 721 l 163 750 b 153 785 163 763 161 786 b 143 763 147 779 149 768 b 136 756 142 760 139 757 b 118 751 131 754 124 751 b 93 758 107 751 100 758 b 83 751 90 758 86 757 b 60 685 71 732 64 708 b 53 657 57 676 53 667 l 53 635 b 54 614 53 628 53 621 b 58 578 56 603 56 590 m 69 501 b 7 579 18 501 7 542 b 8 607 7 589 7 599 b 8 649 7 621 10 635 l 8 660 b 11 689 8 669 10 679 b 31 743 15 708 25 725 b 56 790 35 761 47 775 b 71 836 64 804 61 822 b 99 861 76 847 89 853 b 128 882 107 869 115 881 l 133 882 b 164 872 144 882 154 876 b 196 843 176 865 186 854 b 222 794 206 828 218 813 b 224 779 222 789 224 785 b 219 753 224 771 222 761 b 210 729 217 746 213 738 b 175 610 200 689 190 649 b 92 506 164 557 138 531 b 69 501 85 503 76 501 m 550 229 b 569 226 551 231 560 226 b 601 254 579 226 592 232 b 622 317 608 274 617 296 l 628 344 b 629 385 629 357 631 371 b 628 419 628 396 629 408 b 621 428 626 426 624 428 b 601 415 614 428 606 421 b 561 328 582 392 567 361 l 546 269 l 544 246 b 550 229 544 236 546 229 m 554 151 b 499 244 496 151 496 207 l 500 282 l 500 292 b 503 317 500 300 501 308 b 519 365 506 333 515 349 b 542 407 522 381 533 393 b 554 446 549 419 546 435 b 579 468 560 456 571 461 b 606 488 588 475 594 486 l 610 488 b 636 479 618 488 628 483 b 665 453 649 472 657 463 b 688 410 674 439 685 426 l 689 410 b 690 397 689 406 690 401 b 685 374 690 389 689 381 b 678 353 682 367 679 360 b 647 247 668 317 660 282 b 572 156 636 201 613 178 b 554 151 567 153 560 151 "},"¨":{"ha":244,"x_min":0,"x_max":0,"o":"m 179 922 b 146 942 167 921 150 929 b 165 1007 138 967 150 990 b 176 1014 171 1013 172 1011 b 181 1019 178 1017 178 1017 b 222 1015 193 1033 208 1026 b 238 989 231 1010 236 999 l 238 972 b 238 965 238 969 236 967 b 232 958 238 960 236 960 b 228 956 231 957 229 956 l 215 942 b 208 932 213 939 213 935 b 179 922 199 928 190 924 m 53 925 b 26 928 43 926 35 925 b 8 953 14 932 7 939 b 7 958 8 956 8 957 b 17 986 6 968 10 981 b 32 999 22 992 26 993 b 36 1007 35 1001 35 1003 b 53 1021 39 1014 44 1019 b 61 1024 56 1022 57 1022 b 110 1001 81 1025 99 1018 b 111 981 115 994 115 988 l 97 953 b 53 925 90 933 74 925 "},"˙":{"ha":121,"x_min":0,"x_max":0,"o":"m 53 925 b 26 928 43 926 35 925 b 8 953 14 932 7 939 b 7 958 8 956 8 957 b 17 986 6 968 10 981 b 32 999 22 992 26 993 b 36 1007 35 1001 35 1003 b 53 1021 39 1014 44 1019 b 61 1024 56 1022 57 1022 b 110 1001 81 1025 99 1018 b 111 981 115 994 115 988 l 97 953 b 53 925 90 933 74 925 "},"`":{"ha":242,"x_min":0,"x_max":0,"o":"m 224 885 b 193 890 215 881 204 886 b 135 917 174 897 151 906 b 42 957 106 933 69 938 b 7 1003 26 968 7 981 b 38 1044 7 1021 21 1039 b 114 1014 64 1049 93 1033 l 138 997 b 224 926 168 976 197 951 b 235 903 231 921 235 911 b 225 885 235 896 232 889 l 224 885 "},"´":{"ha":242,"x_min":0,"x_max":0,"o":"m 17 885 b 7 903 10 889 7 896 b 18 926 7 911 11 921 b 104 997 44 951 74 976 l 128 1014 b 204 1044 149 1033 178 1049 b 235 1003 221 1039 235 1021 b 200 957 235 981 215 968 b 107 917 172 938 136 933 b 49 890 90 906 68 897 b 18 885 38 886 26 881 l 17 885 "},"˝":{"ha":263,"x_min":0,"x_max":0,"o":"m 32 861 b 14 868 25 860 18 863 b 7 893 8 875 6 885 b 28 1003 11 929 17 968 l 35 1031 b 74 1104 38 1060 50 1090 b 124 1092 90 1110 113 1106 b 126 1033 138 1074 131 1053 b 81 943 118 1001 93 975 b 54 886 75 924 64 903 b 33 861 47 875 43 864 l 32 861 m 156 861 b 138 868 149 860 142 863 b 131 893 132 875 129 885 b 150 1003 135 929 140 968 l 158 1031 b 197 1104 161 1060 174 1090 b 247 1092 214 1110 236 1106 b 250 1033 261 1074 254 1053 b 206 943 242 1001 217 975 b 178 886 199 924 188 903 b 157 861 171 875 167 864 l 156 861 "},"ˆ":{"ha":417,"x_min":0,"x_max":0,"o":"m 57 900 b 47 901 54 900 51 900 b 40 906 44 901 43 903 b 31 929 36 911 31 919 b 49 964 31 939 36 950 b 50 965 49 964 49 965 l 71 986 b 101 1008 81 996 92 1001 b 122 1024 108 1013 117 1018 b 204 1067 154 1051 178 1067 b 272 1040 224 1067 244 1058 l 274 1039 b 310 1011 285 1029 297 1021 b 364 969 328 999 347 985 b 374 963 367 967 369 965 b 386 953 378 960 382 957 b 393 933 393 946 393 939 b 382 919 393 931 390 924 b 371 917 378 917 375 917 b 354 922 364 917 358 919 l 353 922 b 335 933 346 926 340 931 b 306 950 325 939 317 946 b 225 992 271 963 253 975 l 221 994 l 211 994 b 183 985 200 994 192 992 b 142 954 169 972 153 961 b 107 926 128 946 119 938 l 106 926 b 82 908 99 919 89 913 l 81 908 b 57 900 75 904 67 900 "},"ˇ":{"ha":376,"x_min":0,"x_max":0,"o":"m 196 899 b 129 925 176 899 156 907 b 128 926 128 925 128 925 l 90 954 b 36 996 72 967 53 979 b 26 1003 33 999 31 1000 b 15 1013 22 1006 18 1008 b 7 1031 7 1019 7 1026 b 18 1046 8 1035 10 1042 b 28 1049 22 1049 25 1049 b 47 1043 36 1049 43 1044 b 65 1032 54 1039 60 1035 b 94 1015 75 1025 83 1019 b 175 974 129 1003 147 990 l 179 971 l 189 971 b 217 981 200 971 208 974 b 258 1011 231 993 247 1004 b 293 1039 272 1019 281 1028 l 294 1039 b 318 1056 301 1046 311 1051 l 319 1057 b 353 1064 328 1061 339 1068 b 360 1060 356 1064 358 1061 b 369 1038 365 1054 369 1047 b 353 1001 369 1028 365 1015 b 351 1000 351 1001 351 1000 l 338 988 l 329 979 b 299 957 319 969 310 963 b 278 942 292 951 283 947 b 196 899 246 914 222 899 "},"˚":{"ha":204,"x_min":0,"x_max":0,"o":"m 71 890 b 7 931 43 888 4 899 b 35 1007 6 960 13 986 b 61 1035 44 1015 53 1026 b 104 1058 72 1047 89 1054 b 197 1022 135 1068 183 1050 l 197 1021 b 175 965 201 1001 183 983 b 150 928 167 951 160 939 b 71 890 133 907 97 893 m 88 942 b 129 997 108 954 122 975 l 129 999 b 106 1014 135 1015 119 1017 b 64 961 83 1008 68 983 b 88 942 61 943 68 932 "},"˜":{"ha":507,"x_min":0,"x_max":0,"o":"m 331 903 b 258 921 306 903 282 908 b 244 926 254 922 250 924 b 228 933 239 928 233 931 b 199 953 217 940 207 946 b 178 967 192 958 185 964 l 161 978 b 132 990 150 986 143 990 b 93 969 118 990 108 982 l 88 965 b 65 947 81 958 74 953 b 63 946 64 947 63 946 b 35 936 56 942 46 936 b 22 939 31 936 26 938 b 17 944 21 940 18 942 b 7 969 10 953 7 961 b 33 1017 7 989 24 1006 l 33 1018 b 36 1019 35 1018 36 1019 l 46 1028 b 79 1053 56 1038 67 1046 b 139 1069 100 1064 119 1069 b 188 1060 154 1069 171 1067 b 189 1058 188 1060 189 1060 l 238 1028 b 315 982 263 1010 288 992 b 358 978 331 979 344 978 b 436 1000 388 978 413 985 b 449 1011 440 1003 444 1007 b 463 1024 453 1015 457 1021 b 485 1028 471 1029 478 1031 b 499 1014 489 1028 496 1024 b 500 1006 500 1011 500 1008 b 486 981 500 994 490 985 l 482 976 b 418 925 464 957 444 938 b 331 903 386 911 358 903 "},"¯":{"ha":457,"x_min":0,"x_max":0,"o":"m 138 939 b 29 944 101 932 64 926 b 47 1019 -12 974 10 1024 l 49 1019 b 143 1015 81 1018 111 1011 b 260 1032 182 1018 221 1033 b 372 1017 297 1032 335 1022 b 440 1006 394 1014 421 1022 b 426 957 460 986 444 960 b 336 957 396 951 365 963 b 246 954 306 954 275 961 b 138 939 210 946 174 946 "},"¸":{"ha":221,"x_min":0,"x_max":0,"o":"m 78 -358 b 58 -346 68 -356 64 -351 b 32 -311 47 -335 39 -325 b 10 -272 25 -299 17 -286 b 7 -260 8 -268 7 -264 b 38 -229 7 -243 21 -229 l 40 -229 b 60 -244 49 -229 57 -236 b 61 -250 60 -247 60 -249 b 71 -265 64 -256 68 -261 b 101 -294 79 -278 88 -286 b 113 -297 104 -297 108 -297 b 121 -293 117 -297 119 -296 b 132 -268 128 -285 129 -276 b 138 -246 133 -261 136 -254 b 144 -211 142 -235 144 -224 b 139 -171 144 -196 142 -185 b 136 -157 138 -165 139 -161 b 125 -143 133 -151 129 -149 b 114 -135 122 -139 119 -137 b 92 -126 107 -132 101 -128 l 86 -126 l 61 -128 b 31 -111 46 -128 32 -122 l 31 -106 b 33 -92 31 -100 32 -96 b 39 -36 33 -74 33 -56 b 42 -18 40 -31 42 -24 b 72 40 42 0 50 29 b 89 44 78 43 83 44 b 125 32 103 44 117 39 b 138 8 133 25 138 17 b 108 -50 138 -11 118 -31 b 124 -53 113 -51 118 -51 b 144 -64 133 -54 140 -60 b 192 -128 165 -85 179 -106 b 203 -149 196 -136 200 -140 l 210 -183 b 208 -194 210 -187 206 -190 b 214 -219 213 -203 214 -211 b 210 -257 214 -231 211 -243 b 201 -308 210 -274 210 -292 b 174 -350 194 -324 183 -336 b 118 -365 156 -360 138 -365 b 78 -358 106 -365 92 -362 "}}}
